<?xml version="1.0" encoding="UTF-8" standalone="no"?>
<!-- Created with Inkscape (http://www.inkscape.org/) -->

<svg
   version="1.1"
   id="svg1"
   width="663.65332"
   height="663.65332"
   viewBox="0 0 663.65332 663.65332"
   sodipodi:docname="7040862.eps"
   xmlns:inkscape="http://www.inkscape.org/namespaces/inkscape"
   xmlns:sodipodi="http://sodipodi.sourceforge.net/DTD/sodipodi-0.dtd"
   xmlns="http://www.w3.org/2000/svg"
   xmlns:svg="http://www.w3.org/2000/svg">
  <defs
     id="defs1" />
  <sodipodi:namedview
     id="namedview1"
     pagecolor="#ffffff"
     bordercolor="#000000"
     borderopacity="0.25"
     inkscape:showpageshadow="2"
     inkscape:pageopacity="0.0"
     inkscape:pagecheckerboard="0"
     inkscape:deskcolor="#d1d1d1">
    <inkscape:page
       x="0"
       y="0"
       inkscape:label="1"
       id="page1"
       width="663.65332"
       height="663.65332"
       margin="0"
       bleed="0" />
  </sodipodi:namedview>
  <g
     id="g1"
     inkscape:groupmode="layer"
     inkscape:label="1">
    <g
       id="group-R5">
      <path
         id="path2"
         d="M 0,0 H 4977.38 V 4977.38 H 0 Z"
         style="fill:#ffffff;fill-opacity:1;fill-rule:nonzero;stroke:none"
         transform="matrix(0.13333333,0,0,-0.13333333,0,663.65333)" />
      <path
         id="path3"
         d="m 3703.69,428.691 c -433.33,0 -788.63,334.09 -822.38,758.739 h 1023.28 c 53.41,0 98.42,35.77 112.39,84.62 h 45.82 c 40.75,0 73.8,33.04 73.8,73.8 v 610.27 c 235.3,-145.32 392.09,-405.56 392.09,-702.43 0,-455.631 -369.37,-824.999 -825,-824.999"
         style="fill:#eee7f5;fill-opacity:1;fill-rule:nonzero;stroke:none"
         transform="matrix(0.13333333,0,0,-0.13333333,0,663.65333)" />
      <path
         id="path4"
         d="m 965.852,1829.89 c -298.325,257.64 -487.164,638.69 -487.164,1063.8 0,775.96 629.042,1405 1405.002,1405 586.18,0 1088.55,-359.04 1299.2,-869.15 H 1082.74 c -64.51,0 -116.888,-52.38 -116.888,-116.89 V 1829.89"
         style="fill:#eee7f5;fill-opacity:1;fill-rule:nonzero;stroke:none"
         transform="matrix(0.13333333,0,0,-0.13333333,0,663.65333)" />
      <path
         id="path5"
         d="m 4347.08,2655.82 -3.38,3.69 c -27.92,-25.57 -63.16,-38.18 -98.34,-38.18 -39.5,0 -78.83,15.89 -107.53,47.24 -25.57,27.92 -38.18,63.15 -38.18,98.33 0,39.5 15.9,78.83 47.24,107.54 27.93,25.57 63.16,38.17 98.34,38.18 39.5,-0.01 78.83,-15.9 107.54,-47.24 25.56,-27.93 38.17,-63.16 38.17,-98.34 0,-39.5 -15.9,-78.83 -47.24,-107.53 l 3.38,-3.69 3.38,-3.69 c 33.48,30.66 50.49,72.75 50.48,114.91 0.01,37.56 -13.49,75.27 -40.8,105.09 -30.66,33.49 -72.74,50.49 -114.91,50.49 -37.56,0 -75.27,-13.5 -105.09,-40.81 -33.49,-30.66 -50.5,-72.74 -50.49,-114.91 -0.01,-37.55 13.49,-75.26 40.8,-105.09 30.66,-33.48 72.74,-50.49 114.91,-50.48 37.56,-0.01 75.27,13.49 105.09,40.8 z m 100.73,378.66 -3.38,3.69 -41.93,-38.4 c -1.65,-1.52 -3.07,-3.13 -4.33,-4.77 l 3.97,-3.04 2.86,4.1 c -27.13,18.91 -56.96,32.5 -88,40.7 l -1.28,-4.84 4.89,-1.06 c 0.43,2.01 0.79,4.17 0.89,6.47 l 2.22,56.83 0.03,1.47 c -0.01,19.81 -15.67,36.25 -35.62,37.05 l -56.83,2.24 -1.46,0.03 c -19.81,-0.01 -36.26,-15.68 -37.05,-35.64 l -2.24,-56.82 v 0 l -0.03,-1.2 c 0,-1.87 0.17,-3.65 0.4,-5.32 l 4.96,0.68 -0.9,4.92 c -30.73,-5.58 -60.74,-16.35 -88.64,-32.37 l 2.49,-4.33 4.21,2.69 c -1.1,1.72 -2.37,3.46 -3.89,5.12 v -0.01 l -38.4,41.94 c -7.3,7.98 -17.35,12.04 -27.37,12.03 -8.94,0.01 -17.94,-3.22 -25.04,-9.72 l -41.93,-38.4 c -7.98,-7.3 -12.04,-17.34 -12.03,-27.37 -0.01,-8.93 3.22,-17.94 9.72,-25.04 l 38.4,-41.93 c 1.51,-1.65 3.13,-3.07 4.76,-4.33 l 3.05,3.96 -4.1,2.86 c -18.92,-27.13 -32.5,-56.95 -40.7,-87.99 l 4.83,-1.28 1.06,4.89 c -2.01,0.43 -4.16,0.78 -6.46,0.88 l -56.84,2.23 -1.48,0.03 c -9.27,0.01 -18.15,-3.43 -25.02,-9.73 l -0.09,-0.08 -0.17,-0.18 3.53,-3.54 -3.39,3.68 c -7.26,-6.7 -11.51,-15.92 -11.89,-25.79 l -2.24,-56.91 v -0.11 h 5 l -4.99,0.2 -0.03,-1.47 c 0,-19.8 15.67,-36.25 35.63,-37.04 l 56.82,-2.24 1.13,-0.02 c 1.91,0 3.71,0.18 5.39,0.41 l -0.69,4.95 -4.92,-0.89 c 5.59,-30.74 16.36,-60.75 32.37,-88.66 l 4.34,2.49 -2.68,4.22 c -1.74,-1.11 -3.48,-2.39 -5.12,-3.89 l -41.94,-38.41 c -7.98,-7.3 -12.04,-17.34 -12.03,-27.36 -0.01,-8.94 3.22,-17.94 9.72,-25.04 l 38.4,-41.94 c 7.3,-7.97 17.34,-12.03 27.37,-12.03 8.93,0 17.94,3.22 25.04,9.72 l 41.93,38.41 c 1.65,1.5 3.08,3.12 4.33,4.76 l -3.96,3.04 -2.86,-4.1 c 27.14,-18.92 56.97,-32.51 88.01,-40.7 l 1.28,4.84 -4.88,1.07 c -0.43,-1.97 -0.82,-4.13 -0.91,-6.51 v 0.02 l -2.23,-56.81 -0.03,-1.51 c -0.01,-9.34 3.49,-18.26 9.86,-25.13 6.69,-7.26 15.91,-11.51 25.78,-11.89 l 56.81,-2.23 1.46,-0.03 c 9.6,0 18.42,3.69 25.03,9.74 7.04,6.44 11.63,15.62 12.04,25.9 l 2.23,56.82 v 0.02 l 0.02,1.05 c 0,1.94 -0.18,3.75 -0.41,5.44 l -4.95,-0.68 0.89,-4.92 c 30.73,5.58 60.75,16.36 88.65,32.37 l -2.48,4.34 -4.22,-2.7 c 1.11,-1.73 2.39,-3.46 3.9,-5.11 l 38.4,-41.94 c 7.3,-7.97 17.34,-12.03 27.36,-12.03 8.94,0 17.94,3.22 25.04,9.72 l 41.94,38.41 c 7.97,7.29 12.03,17.34 12.03,27.36 0,8.94 -3.22,17.94 -9.72,25.04 l -38.41,41.94 c -1.51,1.64 -3.12,3.07 -4.77,4.33 l -3.04,-3.97 4.1,-2.86 c 18.93,27.14 32.51,56.97 40.71,88.02 l -4.84,1.27 -1.07,-4.88 c 1.99,-0.44 4.14,-0.81 6.49,-0.91 l 56.82,-2.23 1.46,-0.03 c 9.59,0 18.43,3.69 25.03,9.75 7.04,6.43 11.63,15.62 12.03,25.89 l 2.24,56.82 0.02,1.45 c 0,19.82 -15.68,36.27 -35.63,37.07 l -56.83,2.23 -1.22,0.02 c -1.85,0 -3.62,-0.16 -5.29,-0.38 l 0.67,-4.96 4.92,0.89 c -5.58,30.73 -16.35,60.74 -32.36,88.64 l -4.34,-2.49 2.69,-4.21 c 1.73,1.1 3.47,2.37 5.12,3.89 l 41.94,38.4 c 7.97,7.3 12.04,17.34 12.03,27.37 0,8.93 -3.22,17.94 -9.72,25.03 l -38.41,41.94 c -7.3,7.98 -17.34,12.04 -27.37,12.03 -8.93,0.01 -17.94,-3.22 -25.04,-9.72 l 3.38,-3.69 3.38,-3.69 c 5.2,4.76 11.73,7.1 18.28,7.1 7.37,0 14.66,-2.95 19.99,-8.78 l 38.41,-41.94 c 4.76,-5.2 7.09,-11.72 7.1,-18.28 -0.01,-7.36 -2.95,-14.65 -8.79,-19.99 l -41.93,-38.41 c -1.14,-1.04 -2.39,-1.97 -3.75,-2.84 l -4.02,-2.56 2.37,-4.14 c 15.44,-26.89 25.82,-55.81 31.2,-85.44 l 0.85,-4.7 4.73,0.63 c 1.38,0.19 2.7,0.3 3.96,0.3 l 0.82,-0.01 56.83,-2.23 c 14.55,-0.56 26.04,-12.63 26.03,-27.08 l -0.02,-1.06 -2.23,-56.82 c -0.3,-7.52 -3.63,-14.18 -8.79,-18.9 -4.85,-4.45 -11.27,-7.13 -18.28,-7.13 l -1.07,0.02 -56.82,2.24 c -1.51,0.06 -3.07,0.31 -4.74,0.68 l -4.68,1.02 -1.22,-4.63 c -7.9,-29.94 -21,-58.69 -39.24,-84.85 l -2.74,-3.92 3.8,-2.91 c 1.26,-0.97 2.42,-2 3.48,-3.15 l 38.4,-41.93 c 4.76,-5.2 7.09,-11.73 7.1,-18.29 -0.01,-7.36 -2.95,-14.65 -8.79,-19.99 l -41.93,-38.4 c -5.2,-4.76 -11.73,-7.09 -18.29,-7.1 -7.36,0.01 -14.65,2.95 -19.99,8.78 l -38.4,41.94 c -1.04,1.14 -1.98,2.4 -2.84,3.75 l -2.57,4.01 -4.13,-2.37 c -26.9,-15.43 -55.83,-25.82 -85.47,-31.2 l -4.71,-0.85 0.65,-4.74 c 0.2,-1.43 0.32,-2.78 0.32,-4.09 l -0.01,-0.7 v 0.02 l -2.24,-56.82 c -0.29,-7.52 -3.63,-14.18 -8.79,-18.91 -4.86,-4.44 -11.27,-7.12 -18.28,-7.12 l -1.07,0.02 -56.81,2.23 c -7.26,0.3 -13.9,3.35 -18.83,8.68 -4.68,5.08 -7.2,11.5 -7.2,18.35 l 0.02,1.11 2.24,56.82 v 0.02 c 0.05,1.48 0.3,3.04 0.67,4.71 l 1.03,4.69 -4.63,1.22 c -29.94,7.9 -58.69,21 -84.86,39.23 l -3.91,2.73 -2.91,-3.78 c -0.97,-1.27 -2.01,-2.43 -3.15,-3.47 l -41.94,-38.41 c -5.2,-4.76 -11.73,-7.09 -18.28,-7.1 -7.36,0.01 -14.65,2.95 -19.99,8.78 l -38.4,41.94 c -4.76,5.2 -7.1,11.73 -7.1,18.29 0,7.36 2.95,14.64 8.78,19.99 l 41.93,38.4 c 1.14,1.04 2.4,1.97 3.74,2.83 l 4.03,2.56 -2.37,4.15 c -15.44,26.9 -25.82,55.82 -31.21,85.47 l -0.85,4.71 -4.75,-0.65 c -1.4,-0.2 -2.74,-0.32 -4.02,-0.32 l -0.74,0.01 -56.82,2.24 c -14.55,0.56 -26.03,12.62 -26.02,27.05 l 0.02,1.08 v 0.1 0.01 l 2.23,56.71 c 0.29,7.27 3.35,13.89 8.68,18.83 l 0.08,0.07 0.17,0.18 -3.53,3.53 3.38,-3.69 c 5.06,4.63 11.44,7.1 18.26,7.11 l 1.09,-0.02 56.83,-2.23 c 1.52,-0.06 3.1,-0.31 4.74,-0.67 l 4.67,-1.01 1.22,4.62 c 7.91,29.93 21.01,58.68 39.24,84.83 l 2.73,3.92 -3.78,2.91 c -1.28,0.98 -2.44,2.01 -3.48,3.15 l -38.4,41.94 c -4.76,5.2 -7.1,11.73 -7.1,18.28 0,7.36 2.95,14.65 8.78,19.99 l 41.93,38.4 c 5.2,4.76 11.73,7.1 18.29,7.1 7.36,0 14.65,-2.95 19.99,-8.78 l 38.41,-41.94 0.01,-0.01 c 1.03,-1.12 1.95,-2.37 2.82,-3.74 l 2.57,-4.01 4.13,2.37 c 26.9,15.43 55.82,25.82 85.46,31.2 l 4.71,0.86 -0.65,4.74 c -0.19,1.38 -0.31,2.7 -0.31,3.96 l 0.02,0.79 2.24,56.83 c 0.56,14.56 12.62,26.04 27.06,26.04 l 1.07,-0.03 56.82,-2.23 c 14.55,-0.56 26.03,-12.63 26.02,-27.06 l -0.02,-1.08 -2.22,-56.82 v 0.01 c -0.07,-1.52 -0.31,-3.09 -0.67,-4.75 l -1.02,-4.68 4.62,-1.22 c 29.94,-7.91 58.69,-21 84.84,-39.23 l 3.91,-2.74 2.91,3.79 c 0.97,1.27 2.01,2.43 3.15,3.48 l 41.94,38.4 -3.38,3.69"
         style="fill:#212c5a;fill-opacity:1;fill-rule:nonzero;stroke:none"
         transform="matrix(0.13333333,0,0,-0.13333333,0,663.65333)" />
      <path
         id="path6"
         d="m 630.305,2396.04 h -49.246 c -4.082,0 -7.395,3.31 -7.395,7.39 0,4.08 3.313,7.39 7.395,7.39 h 49.246 c 4.078,0 7.386,-3.31 7.386,-7.39 0,-4.08 -3.308,-7.39 -7.386,-7.39 z m 98.504,0 h -49.254 c -4.078,0 -7.387,3.31 -7.387,7.39 0,4.08 3.309,7.39 7.387,7.39 h 49.254 c 4.074,0 7.382,-3.31 7.382,-7.39 0,-4.08 -3.308,-7.39 -7.382,-7.39 z m 98.496,0 h -49.25 c -4.078,0 -7.387,3.31 -7.387,7.39 0,4.08 3.309,7.39 7.387,7.39 h 49.25 c 4.074,0 7.386,-3.31 7.386,-7.39 0,-4.08 -3.312,-7.39 -7.386,-7.39 z m 98.5,0 h -49.254 c -4.078,0 -7.387,3.31 -7.387,7.39 0,4.08 3.309,7.39 7.387,7.39 h 49.254 c 4.078,0 7.386,-3.31 7.386,-7.39 0,-4.08 -3.308,-7.39 -7.386,-7.39 z m 98.495,0 h -49.249 c -4.074,0 -7.387,3.31 -7.387,7.39 0,4.08 3.313,7.39 7.387,7.39 h 49.249 c 4.08,0 7.39,-3.31 7.39,-7.39 0,-4.08 -3.31,-7.39 -7.39,-7.39 z m 98.5,0 h -49.25 c -4.08,0 -7.38,3.31 -7.38,7.39 0,4.08 3.3,7.39 7.38,7.39 h 49.25 c 4.08,0 7.39,-3.31 7.39,-7.39 0,-4.08 -3.31,-7.39 -7.39,-7.39 z m 98.5,0 h -49.25 c -4.08,0 -7.39,3.31 -7.39,7.39 0,4.08 3.31,7.39 7.39,7.39 h 49.25 c 4.08,0 7.38,-3.31 7.38,-7.39 0,-4.08 -3.3,-7.39 -7.38,-7.39 z m 98.5,0 h -49.25 c -4.08,0 -7.39,3.31 -7.39,7.39 0,4.08 3.31,7.39 7.39,7.39 h 49.25 c 4.08,0 7.39,-3.31 7.39,-7.39 0,-4.08 -3.31,-7.39 -7.39,-7.39 z m 98.5,0 h -49.25 c -4.08,0 -7.39,3.31 -7.39,7.39 0,4.08 3.31,7.39 7.39,7.39 h 49.25 c 4.08,0 7.39,-3.31 7.39,-7.39 0,-4.08 -3.31,-7.39 -7.39,-7.39 z m 98.5,0 h -49.25 c -4.08,0 -7.39,3.31 -7.39,7.39 0,4.08 3.31,7.39 7.39,7.39 h 49.25 c 4.08,0 7.38,-3.31 7.38,-7.39 0,-4.08 -3.3,-7.39 -7.38,-7.39 z m 98.5,0 h -49.25 c -4.08,0 -7.39,3.31 -7.39,7.39 0,4.08 3.31,7.39 7.39,7.39 h 49.25 c 4.07,0 7.38,-3.31 7.38,-7.39 0,-4.08 -3.31,-7.39 -7.38,-7.39 z m 98.49,0 h -49.25 c -4.07,0 -7.38,3.31 -7.38,7.39 0,4.08 3.31,7.39 7.38,7.39 h 49.25 c 4.08,0 7.39,-3.31 7.39,-7.39 0,-4.08 -3.31,-7.39 -7.39,-7.39 z M 486.426,2373.46 c -2.602,0 -5.117,1.36 -6.465,3.79 -1.984,3.57 -0.703,8.07 2.863,10.04 14.977,8.32 31.012,14.54 47.66,18.49 4.016,0.92 7.954,-1.52 8.895,-5.49 0.941,-3.97 -1.516,-7.95 -5.484,-8.89 -15.332,-3.63 -30.098,-9.35 -43.891,-17.02 -1.141,-0.63 -2.367,-0.92 -3.578,-0.92 z m -69.192,-68.37 c -1.242,0 -2.5,0.31 -3.656,0.96 -3.543,2.03 -4.769,6.55 -2.75,10.08 8.473,14.84 18.949,28.47 31.137,40.51 2.902,2.86 7.578,2.84 10.445,-0.06 2.867,-2.91 2.848,-7.58 -0.058,-10.45 -11.235,-11.1 -20.895,-23.66 -28.692,-37.32 -1.367,-2.39 -3.855,-3.72 -6.426,-3.72 z m -23.664,-94.34 c -4.082,0 -7.386,3.31 -7.386,7.38 v 4.99 c 0,15.43 1.875,30.78 5.578,45.6 0.992,3.96 5.078,6.37 8.953,5.38 3.965,-0.99 6.375,-5 5.383,-8.95 -3.41,-13.67 -5.145,-27.81 -5.145,-42.03 v -4.99 c 0,-4.07 -3.305,-7.38 -7.383,-7.38 z m 0,-98.5 c -4.082,0 -7.386,3.31 -7.386,7.39 v 49.25 c 0,4.08 3.304,7.39 7.386,7.39 4.078,0 7.383,-3.31 7.383,-7.39 v -49.25 c 0,-4.08 -3.305,-7.39 -7.383,-7.39 z m 0,-98.5 c -4.082,0 -7.386,3.31 -7.386,7.39 v 49.25 c 0,4.08 3.304,7.38 7.386,7.38 4.078,0 7.383,-3.3 7.383,-7.38 v -49.25 c 0,-4.08 -3.305,-7.39 -7.383,-7.39 z m 0,-98.5 c -4.082,0 -7.386,3.31 -7.386,7.39 v 49.25 c 0,4.08 3.304,7.39 7.386,7.39 4.078,0 7.383,-3.31 7.383,-7.39 v -49.25 c 0,-4.08 -3.305,-7.39 -7.383,-7.39 z m 0,-98.49 c -4.082,0 -7.386,3.3 -7.386,7.38 v 49.25 c 0,4.08 3.304,7.39 7.386,7.39 4.078,0 7.383,-3.31 7.383,-7.39 v -49.25 c 0,-4.08 -3.305,-7.38 -7.383,-7.38 z m 0,-98.51 c -4.082,0 -7.386,3.31 -7.386,7.39 v 49.25 c 0,4.08 3.304,7.39 7.386,7.39 4.078,0 7.383,-3.31 7.383,-7.39 v -49.25 c 0,-4.08 -3.305,-7.39 -7.383,-7.39 z m 0,-98.5 c -4.082,0 -7.386,3.32 -7.386,7.4 v 49.25 c 0,4.07 3.304,7.38 7.386,7.38 4.078,0 7.383,-3.31 7.383,-7.38 v -49.25 c 0,-4.08 -3.305,-7.4 -7.383,-7.4 z m 0,-98.49 c -4.082,0 -7.386,3.31 -7.386,7.38 v 49.25 c 0,4.08 3.304,7.39 7.386,7.39 4.078,0 7.383,-3.31 7.383,-7.39 v -49.25 c 0,-4.07 -3.305,-7.38 -7.383,-7.38 z m 0,-98.51 c -4.082,0 -7.386,3.31 -7.386,7.4 v 49.24 c 0,4.09 3.304,7.4 7.386,7.4 4.078,0 7.383,-3.31 7.383,-7.4 v -49.24 c 0,-4.09 -3.305,-7.4 -7.383,-7.4 z m 0,-98.49 c -4.082,0 -7.386,3.31 -7.386,7.39 v 49.25 c 0,4.07 3.304,7.38 7.386,7.38 4.078,0 7.383,-3.31 7.383,-7.38 v -49.25 c 0,-4.08 -3.305,-7.39 -7.383,-7.39 z m 0,-98.5 c -4.082,0 -7.386,3.31 -7.386,7.38 v 49.25 c 0,4.08 3.304,7.39 7.386,7.39 4.078,0 7.383,-3.31 7.383,-7.39 v -49.25 c 0,-4.07 -3.305,-7.38 -7.383,-7.38 z m 0,-98.5 c -4.082,0 -7.386,3.31 -7.386,7.39 v 49.25 c 0,4.08 3.304,7.39 7.386,7.39 4.078,0 7.383,-3.31 7.383,-7.39 v -49.25 c 0,-4.08 -3.305,-7.39 -7.383,-7.39 z m 0,-98.5 c -4.082,0 -7.386,3.31 -7.386,7.39 v 49.25 c 0,4.07 3.304,7.38 7.386,7.38 4.078,0 7.383,-3.31 7.383,-7.38 v -49.25 c 0,-4.08 -3.305,-7.39 -7.383,-7.39 z m 17.922,-95.772 c -2.754,0 -5.387,1.532 -6.672,4.184 -7.437,15.437 -12.742,31.789 -15.73,48.609 -0.711,4.02 1.965,7.86 5.98,8.559 3.993,0.68 7.852,-1.949 8.563,-5.969 2.762,-15.5 7.637,-30.562 14.504,-44.781 1.769,-3.68 0.23,-8.09 -3.442,-9.86 -1.039,-0.511 -2.129,-0.742 -3.203,-0.742 z m 64.371,-72.918 c -1.379,0 -2.769,0.391 -4.015,1.192 -14.321,9.297 -27.344,20.519 -38.696,33.359 -2.695,3.051 -2.402,7.719 0.657,10.43 3.039,2.687 7.714,2.418 10.421,-0.653 10.461,-11.839 22.454,-22.179 35.661,-30.738 3.429,-2.23 4.394,-6.801 2.172,-10.219 -1.411,-2.179 -3.778,-3.371 -6.2,-3.371 z m 92.86,-28.859 h -0.2 c -17.171,0.48 -34.128,3.277 -50.414,8.34 -3.898,1.219 -6.07,5.347 -4.859,9.258 1.211,3.871 5.313,6.062 9.242,4.851 14.996,-4.66 30.621,-7.238 46.442,-7.68 4.074,-0.109 7.296,-3.519 7.175,-7.589 -0.117,-4.012 -3.39,-7.18 -7.386,-7.18 z m 98.504,-0.082 h -49.254 c -4.078,0 -7.387,3.312 -7.387,7.391 0,4.082 3.309,7.39 7.387,7.39 h 49.254 c 4.074,0 7.386,-3.308 7.386,-7.39 0,-4.079 -3.312,-7.391 -7.386,-7.391 z m 98.496,0 h -49.25 c -4.078,0 -7.387,3.312 -7.387,7.391 0,4.082 3.309,7.39 7.387,7.39 h 49.25 c 4.082,0 7.386,-3.308 7.386,-7.39 0,-4.079 -3.304,-7.391 -7.386,-7.391 z m 98.5,0 h -49.25 c -4.082,0 -7.387,3.312 -7.387,7.391 0,4.082 3.305,7.39 7.387,7.39 h 49.25 c 4.078,0 7.386,-3.308 7.386,-7.39 0,-4.079 -3.308,-7.391 -7.386,-7.391 z m 98.5,0 h -49.254 c -4.074,0 -7.387,3.312 -7.387,7.391 0,4.082 3.313,7.39 7.387,7.39 h 49.254 c 4.078,0 7.382,-3.308 7.382,-7.39 0,-4.079 -3.304,-7.391 -7.382,-7.391 z m 98.497,0 h -49.25 c -4.08,0 -7.39,3.312 -7.39,7.391 0,4.082 3.31,7.39 7.39,7.39 h 49.25 c 4.08,0 7.39,-3.308 7.39,-7.39 0,-4.079 -3.31,-7.391 -7.39,-7.391 z m 71.34,0 h -22.09 c -4.08,0 -7.39,3.312 -7.39,7.391 0,4.082 3.31,7.39 7.39,7.39 h 22.09 c 4.08,0 7.39,-3.308 7.39,-7.39 0,-4.079 -3.31,-7.391 -7.39,-7.391"
         style="fill:#a08bcd;fill-opacity:1;fill-rule:nonzero;stroke:none"
         transform="matrix(0.13333333,0,0,-0.13333333,0,663.65333)" />
      <path
         id="path7"
         d="m 425.754,1618.79 c 0,-17.79 -14.406,-32.19 -32.188,-32.19 -17.777,0 -32.187,14.4 -32.187,32.19 0,17.77 14.41,32.19 32.187,32.19 17.782,0 32.188,-14.42 32.188,-32.19"
         style="fill:#a08bcd;fill-opacity:1;fill-rule:nonzero;stroke:none"
         transform="matrix(0.13333333,0,0,-0.13333333,0,663.65333)" />
      <path
         id="path8"
         d="m 393.57,1671.73 c -29.191,0 -52.941,-23.75 -52.941,-52.94 0,-29.2 23.75,-52.95 52.941,-52.95 29.196,0 52.942,23.75 52.942,52.95 0,29.19 -23.746,52.94 -52.942,52.94 z m 0,-113.27 c -33.265,0 -60.332,27.06 -60.332,60.33 0,33.26 27.067,60.33 60.332,60.33 33.266,0 60.328,-27.07 60.328,-60.33 0,-33.27 -27.062,-60.33 -60.328,-60.33"
         style="fill:#a08bcd;fill-opacity:1;fill-rule:nonzero;stroke:none"
         transform="matrix(0.13333333,0,0,-0.13333333,0,663.65333)" />
      <path
         id="path9"
         d="m 2396.93,4227.45 h -59.92 c -4.96,0 -8.98,4.03 -8.98,8.99 0,4.96 4.02,8.99 8.98,8.99 h 59.92 c 4.97,0 8.99,-4.03 8.99,-8.99 0,-4.96 -4.02,-8.99 -8.99,-8.99 z m 119.85,0 h -59.93 c -4.96,0 -8.99,4.03 -8.99,8.99 0,4.96 4.03,8.99 8.99,8.99 h 59.93 c 4.96,0 8.98,-4.03 8.98,-8.99 0,-4.96 -4.02,-8.99 -8.98,-8.99 z m 119.84,0 h -59.92 c -4.96,0 -9,4.03 -9,8.99 0,4.96 4.04,8.99 9,8.99 h 59.92 c 4.96,0 8.98,-4.03 8.98,-8.99 0,-4.96 -4.02,-8.99 -8.98,-8.99 z m 119.84,0 h -59.92 c -4.96,0 -8.99,4.03 -8.99,8.99 0,4.96 4.03,8.99 8.99,8.99 h 59.92 c 4.96,0 8.99,-4.03 8.99,-8.99 0,-4.96 -4.03,-8.99 -8.99,-8.99 z m -538.75,-6.52 c -4.03,0 -7.69,2.73 -8.71,6.81 -1.2,4.82 1.72,9.7 6.55,10.9 18.03,4.5 36.69,6.79 55.48,6.79 h 6.06 c 4.96,0 8.99,-4.03 8.99,-8.99 0,-4.96 -4.03,-8.99 -8.99,-8.99 h -6.06 c -17.31,0 -34.51,-2.1 -51.13,-6.25 z m 655.9,-12.59 c -1.23,0 -2.48,0.25 -3.68,0.79 -17.5,7.84 -36.01,13.24 -54.98,16.05 -4.91,0.73 -8.31,5.3 -7.58,10.21 0.72,4.91 5.26,8.4 10.21,7.57 20.6,-3.04 40.69,-8.91 59.7,-17.43 4.53,-2.03 6.56,-7.35 4.53,-11.88 -1.5,-3.33 -4.77,-5.31 -8.2,-5.31 z m -758.63,-46.08 c -2.29,0 -4.57,0.87 -6.32,2.6 -3.53,3.48 -3.56,9.17 -0.07,12.71 14.66,14.83 31.23,27.57 49.27,37.88 4.29,2.47 9.79,0.96 12.27,-3.34 2.45,-4.31 0.95,-9.8 -3.35,-12.27 -16.62,-9.49 -31.89,-21.24 -45.41,-34.91 -1.76,-1.78 -4.08,-2.67 -6.39,-2.67 z m 849.58,-29.67 c -2.86,0 -5.68,1.35 -7.41,3.87 -10.92,15.81 -23.93,30.03 -38.66,42.31 -3.8,3.17 -4.33,8.84 -1.15,12.66 3.19,3.82 8.84,4.32 12.67,1.15 15.97,-13.32 30.08,-28.75 41.93,-45.89 2.82,-4.08 1.8,-9.68 -2.28,-12.5 -1.56,-1.08 -3.35,-1.6 -5.1,-1.6 z m -907,-73.8 -2.08,0.24 c -4.84,1.15 -7.82,5.99 -6.67,10.82 4.8,20.28 12.37,39.79 22.49,57.99 2.4,4.34 7.89,5.91 12.22,3.48 4.34,-2.41 5.9,-7.89 3.49,-12.22 -9.33,-16.76 -16.29,-34.72 -20.72,-53.39 -0.97,-4.14 -4.66,-6.92 -8.73,-6.92 z m 945.32,-38.09 c -4.73,0 -8.69,3.7 -8.97,8.48 -1.08,19.2 -4.78,38.11 -10.98,56.2 -1.6,4.69 0.9,9.8 5.59,11.42 4.65,1.59 9.82,-0.89 11.41,-5.6 6.75,-19.63 10.76,-40.16 11.94,-61 0.29,-4.96 -3.51,-9.2 -8.46,-9.49 z m -951.23,-81.28 c -4.96,0 -8.99,4.03 -8.99,8.99 v 59.92 c 0,4.96 4.03,8.99 8.99,8.99 4.96,0 8.99,-4.03 8.99,-8.99 v -59.92 c 0,-4.96 -4.03,-8.99 -8.99,-8.99 z m 951.62,-38.55 c -4.96,0 -8.98,4.03 -8.98,8.99 v 59.92 c 0,4.96 4.02,8.99 8.98,8.99 4.96,0 8.98,-4.03 8.98,-8.99 v -59.92 c 0,-4.96 -4.02,-8.99 -8.98,-8.99 z m -951.62,-81.29 c -4.96,0 -8.99,4.03 -8.99,8.99 v 59.92 c 0,4.96 4.03,8.98 8.99,8.98 4.96,0 8.99,-4.02 8.99,-8.98 v -59.92 c 0,-4.96 -4.03,-8.99 -8.99,-8.99 z m 951.62,-38.55 c -4.96,0 -8.98,4.02 -8.98,8.99 v 59.92 c 0,4.96 4.02,8.98 8.98,8.98 4.96,0 8.98,-4.02 8.98,-8.98 v -59.92 c 0,-4.97 -4.02,-8.99 -8.98,-8.99 z m -951.62,-81.29 c -4.96,0 -8.99,4.02 -8.99,8.98 v 59.93 c 0,4.96 4.03,8.99 8.99,8.99 4.96,0 8.99,-4.03 8.99,-8.99 v -59.93 c 0,-4.96 -4.03,-8.98 -8.99,-8.98 z m 951.62,-38.55 c -4.96,0 -8.98,4.02 -8.98,8.98 v 59.93 c 0,4.96 4.02,8.99 8.98,8.99 4.96,0 8.98,-4.03 8.98,-8.99 v -59.93 c 0,-4.96 -4.02,-8.98 -8.98,-8.98 z m -951.62,-81.29 c -4.96,0 -8.99,4.02 -8.99,8.99 v 59.92 c 0,4.96 4.03,8.98 8.99,8.98 4.96,0 8.99,-4.02 8.99,-8.98 v -59.92 c 0,-4.97 -4.03,-8.99 -8.99,-8.99 z m 951.62,-38.55 c -4.96,0 -8.98,4.02 -8.98,8.98 v 59.92 c 0,4.97 4.02,8.99 8.98,8.99 4.96,0 8.98,-4.02 8.98,-8.99 v -59.92 c 0,-4.96 -4.02,-8.98 -8.98,-8.98 z m -951.62,-81.3 c -4.96,0 -8.99,4.03 -8.99,8.99 v 59.92 c 0,4.96 4.03,8.99 8.99,8.99 4.96,0 8.99,-4.03 8.99,-8.99 v -59.92 c 0,-4.96 -4.03,-8.99 -8.99,-8.99 z m 951.62,-38.55 c -4.96,0 -8.98,4.03 -8.98,8.99 v 59.92 c 0,4.96 4.02,8.99 8.98,8.99 4.96,0 8.98,-4.03 8.98,-8.99 v -59.92 c 0,-4.96 -4.02,-8.99 -8.98,-8.99 z m -951.62,-81.29 c -4.96,0 -8.99,4.03 -8.99,8.99 v 59.92 c 0,4.97 4.03,8.99 8.99,8.99 4.96,0 8.99,-4.02 8.99,-8.99 v -59.92 c 0,-4.96 -4.03,-8.99 -8.99,-8.99 z m 951.62,-11.89 c -4.96,0 -8.98,4.03 -8.98,8.99 v 33.26 c 0,4.96 4.02,8.99 8.98,8.99 4.96,0 8.98,-4.03 8.98,-8.99 v -33.26 c 0,-4.96 -4.02,-8.99 -8.98,-8.99 z m -951.62,-107.95 c -4.96,0 -8.99,4.03 -8.99,8.99 v 59.92 c 0,4.96 4.03,8.99 8.99,8.99 4.96,0 8.99,-4.03 8.99,-8.99 v -59.92 c 0,-4.96 -4.03,-8.99 -8.99,-8.99 z m 0,-119.84 c -4.96,0 -8.99,4.02 -8.99,8.99 v 59.92 c 0,4.96 4.03,8.99 8.99,8.99 4.96,0 8.99,-4.03 8.99,-8.99 v -59.92 c 0,-4.97 -4.03,-8.99 -8.99,-8.99 z m 0,-119.84 c -4.96,0 -8.99,4.03 -8.99,8.99 v 59.92 c 0,4.96 4.03,8.98 8.99,8.98 4.96,0 8.99,-4.02 8.99,-8.98 v -59.92 c 0,-4.96 -4.03,-8.99 -8.99,-8.99 z m 0,-119.84 c -4.96,0 -8.99,4.02 -8.99,8.98 v 59.92 c 0,4.97 4.03,8.99 8.99,8.99 4.96,0 8.99,-4.02 8.99,-8.99 v -59.92 c 0,-4.96 -4.03,-8.98 -8.99,-8.98 z m 0,-119.85 c -4.96,0 -8.99,4.03 -8.99,8.99 v 59.92 c 0,4.97 4.03,8.99 8.99,8.99 4.96,0 8.99,-4.02 8.99,-8.99 v -59.92 c 0,-4.96 -4.03,-8.99 -8.99,-8.99 z m 0,-119.84 c -4.96,0 -8.99,4.03 -8.99,8.99 v 59.92 c 0,4.96 4.03,8.99 8.99,8.99 4.96,0 8.99,-4.03 8.99,-8.99 v -59.92 c 0,-4.96 -4.03,-8.99 -8.99,-8.99"
         style="fill:#a08bcd;fill-opacity:1;fill-rule:nonzero;stroke:none"
         transform="matrix(0.13333333,0,0,-0.13333333,0,663.65333)" />
      <path
         id="path10"
         d="m 2527.46,4202.67 c 18.65,0 33.77,15.12 33.77,33.77 0,18.65 -15.12,33.77 -33.77,33.77 -18.64,0 -33.77,-15.12 -33.77,-33.77 0,-18.65 15.13,-33.77 33.77,-33.77"
         style="fill:#a08bcd;fill-opacity:1;fill-rule:nonzero;stroke:none"
         transform="matrix(0.13333333,0,0,-0.13333333,0,663.65333)" />
      <path
         id="path11"
         d="m 2527.46,4291.98 c -30.63,0 -55.54,-24.92 -55.54,-55.54 0,-30.63 24.91,-55.54 55.54,-55.54 30.62,0 55.55,24.91 55.55,55.54 0,30.62 -24.93,55.54 -55.55,55.54 z m 0,-118.83 c -34.9,0 -63.29,28.39 -63.29,63.29 0,34.9 28.39,63.29 63.29,63.29 34.89,0 63.29,-28.39 63.29,-63.29 0,-34.9 -28.4,-63.29 -63.29,-63.29"
         style="fill:#a08bcd;fill-opacity:1;fill-rule:nonzero;stroke:none"
         transform="matrix(0.13333333,0,0,-0.13333333,0,663.65333)" />
      <path
         id="path12"
         d="m 2567.81,3650.48 h -579.54 v 99.07 h 579.54 v -99.07"
         style="fill:#b7b9b7;fill-opacity:1;fill-rule:nonzero;stroke:none"
         transform="matrix(0.13333333,0,0,-0.13333333,0,663.65333)" />
      <path
         id="path13"
         d="m 3036.02,3786.84 h -414.26 c -30.15,0 -58.75,-10.12 -78.14,-27.65 l -112.54,-84.21 h -443.34 c -18.54,0 -33.56,-15.02 -33.56,-33.56 v -613.63 c 0,-18.53 15.02,-33.56 33.56,-33.56 h 1080.24 c 18.53,0 33.56,15.03 33.56,33.56 v 592.86 20.77 70.85 c 0,39.41 -29.33,74.57 -65.52,74.57"
         style="fill:#fab743;fill-opacity:1;fill-rule:nonzero;stroke:none"
         transform="matrix(0.13333333,0,0,-0.13333333,0,663.65333)" />
      <path
         id="path14"
         d="m 1188.55,1358.63 -3.48,3.59 c -43.02,-41.7 -98.69,-62.44 -154.36,-62.45 -57.972,0.01 -115.835,22.51 -159.269,67.3 -41.707,43.03 -62.445,98.7 -62.449,154.36 0.004,57.98 22.504,115.84 67.305,159.28 43.016,41.7 98.687,62.44 154.353,62.45 57.97,-0.01 115.84,-22.51 159.27,-67.31 41.71,-43.02 62.44,-98.69 62.45,-154.35 -0.01,-57.98 -22.5,-115.84 -67.3,-159.28 l 3.48,-3.59 3.48,-3.59 c 46.81,45.39 70.35,105.91 70.34,166.46 0,58.13 -21.69,116.36 -65.27,161.31 -45.38,46.81 -105.91,70.35 -166.45,70.35 -58.134,0 -116.373,-21.7 -161.314,-65.27 -46.813,-45.38 -70.352,-105.91 -70.344,-166.46 -0.008,-58.13 21.692,-116.37 65.27,-161.32 45.379,-46.81 105.906,-70.34 166.448,-70.34 58.13,0 116.38,21.7 161.32,65.27 z m 135.3,573.91 -3.48,3.59 -61.45,-59.57 c -2.28,-2.22 -4.26,-4.59 -6.02,-7.02 l 4.06,-2.93 2.74,4.18 c -41.37,27.13 -86.55,46.16 -133.3,57.1 l -1.14,-4.86 4.92,-0.93 c 0.55,2.96 0.97,6.07 1,9.35 l 0.93,85.57 v 0.57 c -0.01,29.13 -23.51,52.96 -52.72,53.29 l -85.562,0.93 v 0 h -0.578 c -29.129,-0.01 -52.961,-23.51 -53.281,-52.72 l -0.922,-85.57 -0.004,-0.49 c 0,-3.09 0.34,-6.04 0.801,-8.85 l 4.933,0.81 -1.031,4.89 c -45.719,-9.65 -90.117,-27.03 -131.148,-52.16 l 2.609,-4.26 4.141,2.8 c -1.676,2.48 -3.575,4.91 -5.801,7.2 h 0.004 l -59.567,61.44 c -10.429,10.76 -24.371,16.18 -38.273,16.17 -13.348,0.01 -26.758,-4.99 -37.082,-15 l -61.438,-59.57 c -10.761,-10.43 -16.179,-24.37 -16.175,-38.27 -0.004,-13.35 4.992,-26.76 15.007,-37.08 l 59.567,-61.45 v 0 c 2.223,-2.29 4.594,-4.26 7.008,-6.01 l 2.933,4.05 -4.183,2.74 c -27.121,-41.36 -46.16,-86.54 -57.098,-133.3 l 4.867,-1.14 0.918,4.92 c -2.949,0.55 -6.058,0.97 -9.336,1 l -85.828,0.93 h 0.27 -0.59 c -13.899,0.01 -27.102,-5.33 -37.086,-15.03 l -0.055,-0.04 -0.215,-0.23 3.59,-3.48 -3.496,3.57 c -10.16,-9.92 -15.875,-23.31 -16.016,-37.51 l -0.921,-85.57 5,-0.05 v 5 h -0.008 -4.946 l -0.054,-4.95 v -0.57 c 0.008,-29.13 23.511,-52.96 52.715,-53.28 l 85.57,-0.93 h 0.008 0.414 c 3.148,0 6.121,0.36 8.933,0.84 l -0.832,4.92 -4.894,-1.03 c 9.652,-45.73 27.035,-90.13 52.168,-131.18 l 4.265,2.62 -2.808,4.13 c -2.461,-1.67 -4.903,-3.56 -7.195,-5.79 l -61.438,-59.57 c -10.758,-10.43 -16.176,-24.36 -16.172,-38.26 -0.004,-13.35 4.992,-26.76 15.008,-37.09 l 59.562,-61.44 c 10.43,-10.76 24.372,-16.18 38.274,-16.17 13.348,-0.01 26.758,4.99 37.082,15 l 61.68,59.8 -0.239,-0.23 c 2.285,2.22 4.258,4.59 6.008,7 l -4.047,2.94 -2.738,-4.18 c 41.375,-27.13 86.562,-46.17 133.324,-57.11 l 1.141,4.87 -4.914,0.93 c -0.551,-2.91 -1,-6.01 -1.035,-9.34 l -0.922,-85.57 -0.004,-0.6 c -0.008,-13.98 5.398,-27.251 15.207,-37.251 9.926,-10.149 23.308,-15.868 37.508,-16.008 l 85.567,-0.922 0.06,5 h -5 v -0.008 -4.949 l 4.95,-0.051 h 0.55 c 14.38,0 27.49,5.75 37.09,15.051 9.85,9.527 16.05,22.888 16.21,37.668 l 0.93,85.57 v 0.41 c 0,3.16 -0.37,6.13 -0.84,8.94 l -4.93,-0.83 1.03,-4.89 c 45.73,9.65 90.14,27.04 131.18,52.17 l -2.61,4.26 -4.13,-2.81 c 1.67,-2.46 3.56,-4.89 5.78,-7.19 l 59.57,-61.44 c 10.43,-10.76 24.37,-16.18 38.27,-16.17 13.35,-0.01 26.76,4.99 37.09,15.01 l 61.44,59.56 c 10.76,10.43 16.18,24.36 16.17,38.27 0.01,13.35 -4.99,26.76 -15.01,37.08 l -59.56,61.45 c -2.22,2.29 -4.6,4.26 -7.01,6.01 l -2.94,-4.05 4.18,-2.74 c 27.13,41.37 46.18,86.56 57.11,133.33 l -4.87,1.13 -0.94,-4.91 c 2.93,-0.56 6.04,-1 9.36,-1.03 l 85.56,-0.93 h 0.6 c 14.36,-0.01 27.47,5.74 37.06,15.04 9.84,9.54 16.05,22.9 16.21,37.67 l 0.92,85.57 0.01,0.58 c -0.01,29.13 -23.52,52.96 -52.72,53.29 l -85.57,0.91 h 0.01 l -0.45,0.01 c -3.1,0 -6.07,-0.34 -8.91,-0.8 l 0.82,-4.94 4.89,1.04 c -9.66,45.71 -27.03,90.11 -52.16,131.14 l -4.27,-2.61 2.81,-4.14 c 2.47,1.67 4.9,3.57 7.2,5.8 l 61.44,59.57 c 10.76,10.42 16.18,24.36 16.17,38.26 0.01,13.35 -4.99,26.76 -15.01,37.09 l -59.56,61.43 c -10.43,10.77 -24.37,16.19 -38.27,16.18 -13.35,0.01 -26.76,-4.99 -37.08,-15 l 3.48,-3.59 3.48,-3.59 c 8.4,8.14 19.24,12.18 30.12,12.18 11.33,0 22.6,-4.39 31.09,-13.14 l 59.56,-61.43 c 8.15,-8.41 12.18,-19.25 12.19,-30.13 -0.01,-11.33 -4.39,-22.6 -13.13,-31.08 l -61.44,-59.57 c -1.8,-1.74 -3.76,-3.28 -5.85,-4.7 l -3.96,-2.67 2.5,-4.08 c 24.52,-40.04 41.48,-83.37 50.91,-127.99 l 0.98,-4.68 4.72,0.78 c 2.48,0.41 4.9,0.67 7.28,0.67 h 0.33 v -0.01 l 85.57,-0.91 c 23.69,-0.25 42.84,-19.65 42.83,-43.29 l -0.01,-0.47 -0.92,-85.57 c -0.13,-12.01 -5.15,-22.82 -13.17,-30.6 -7.83,-7.57 -18.43,-12.22 -30.1,-12.22 h -0.49 l -85.57,0.93 c -2.49,0.02 -4.99,0.36 -7.58,0.85 l -4.72,0.91 -1.09,-4.68 c -10.67,-45.65 -29.25,-89.74 -55.73,-130.11 l -2.61,-3.99 3.85,-2.8 c 2.05,-1.49 3.97,-3.09 5.71,-4.89 l 59.56,-61.44 c 8.15,-8.4 12.19,-19.24 12.19,-30.12 0,-11.34 -4.38,-22.61 -13.13,-31.09 l -61.44,-59.56 c -8.41,-8.15 -19.25,-12.19 -30.13,-12.19 -11.33,0 -22.6,4.38 -31.09,13.13 l -59.56,61.44 v -0.01 c -1.74,1.81 -3.28,3.77 -4.71,5.86 l -2.68,3.94 -4.06,-2.48 c -40.06,-24.53 -83.39,-41.49 -128.02,-50.92 l -4.69,-0.99 0.79,-4.73 c 0.42,-2.5 0.7,-4.9 0.7,-7.28 v -0.31 l -0.93,-85.56 c -0.13,-12.02 -5.15,-22.82 -13.17,-30.591 -7.83,-7.589 -18.44,-12.238 -30.13,-12.238 h -0.46 l -0.04,-5 h 5 v 0.008 4.949 l -90.522,0.973 c -11.594,0.129 -22.348,4.73 -30.469,13.008 -8,8.181 -12.343,18.841 -12.351,30.251 l 0.004,0.49 0.922,85.57 c 0.023,2.49 0.367,4.99 0.859,7.59 l 0.895,4.71 -4.668,1.09 c -45.649,10.68 -89.743,29.26 -130.122,55.73 l -3.988,2.61 -2.801,-3.86 c -1.48,-2.04 -3.082,-3.95 -4.879,-5.69 l -61.437,-59.57 c -8.402,-8.14 -19.242,-12.18 -30.121,-12.18 -11.332,0 -22.609,4.38 -31.098,13.13 l -59.558,61.44 c -8.145,8.41 -12.184,19.25 -12.188,30.13 0.008,11.33 4.387,22.6 13.133,31.08 l 61.441,59.57 h 0.004 c 1.785,1.74 3.75,3.28 5.84,4.7 l 3.949,2.68 -2.492,4.07 c -24.527,40.05 -41.488,83.38 -50.91,128.02 l -0.992,4.7 -4.735,-0.81 c -2.476,-0.42 -4.878,-0.69 -7.265,-0.69 h -0.317 l -85.566,0.93 c -23.699,0.24 -42.836,19.64 -42.824,43.28 v 0.47 l -5,0.05 v -5 h 0.008 4.945 l 0.976,90.51 c 0.129,11.6 4.719,22.36 13.008,30.48 l 0.051,0.05 0.199,0.2 -3.586,3.49 3.481,-3.59 c 8.16,7.91 18.773,12.2 30.125,12.2 h 0.469 l 85.574,-0.93 h 0.004 c 2.48,-0.02 5.007,-0.35 7.605,-0.83 l 4.695,-0.88 1.09,4.66 c 10.676,45.64 29.254,89.72 55.723,130.09 l 2.617,3.99 -3.867,2.8 c -2.039,1.48 -3.953,3.08 -5.695,4.88 l -59.563,61.44 c -8.144,8.4 -12.183,19.24 -12.187,30.12 0.004,11.33 4.386,22.61 13.136,31.09 l 61.438,59.57 c 8.402,8.14 19.242,12.18 30.121,12.18 11.336,0 22.605,-4.38 31.094,-13.14 l 59.562,-61.43 h 0.004 c 1.738,-1.79 3.277,-3.75 4.695,-5.85 l 2.68,-3.95 4.074,2.49 c 40.043,24.52 83.368,41.49 127.993,50.91 l 4.675,0.98 -0.777,4.72 c -0.406,2.47 -0.668,4.88 -0.668,7.23 l 0.004,0.38 0.922,85.57 c 0.242,23.7 19.648,42.84 43.281,42.83 h 0.465 0.004 l 85.561,-0.93 c 23.7,-0.25 42.84,-19.65 42.83,-43.29 v -0.47 l -0.93,-85.56 c -0.02,-2.49 -0.34,-5.02 -0.83,-7.61 l -0.89,-4.7 4.66,-1.09 c 45.64,-10.68 89.72,-29.26 130.09,-55.73 l 4,-2.62 2.8,3.87 c 1.47,2.04 3.08,3.95 4.88,5.7 l 61.44,59.57 -3.48,3.59"
         style="fill:#212c5a;fill-opacity:1;fill-rule:nonzero;stroke:none"
         transform="matrix(0.13333333,0,0,-0.13333333,0,663.65333)" />
      <path
         id="path15"
         d="M 2953.52,1231.12 H 2033.81 V 790.242 h 919.71 v 440.878"
         style="fill:#e31293;fill-opacity:1;fill-rule:nonzero;stroke:none"
         transform="matrix(0.13333333,0,0,-0.13333333,0,663.65333)" />
      <path
         id="path16"
         d="M 4021.47,3312.65 V 1304.23 c 0,-64.5 -52.29,-116.8 -116.88,-116.8 H 1082.74 c -64.51,0 -116.888,52.3 -116.888,116.8 v 2008.42 c 0,64.51 52.378,116.89 116.888,116.89 h 2821.85 c 64.59,0 116.88,-52.38 116.88,-116.89"
         style="fill:#ee1a98;fill-opacity:1;fill-rule:nonzero;stroke:none"
         transform="matrix(0.13333333,0,0,-0.13333333,0,663.65333)" />
      <path
         id="path17"
         d="m 2488.69,1268.69 c -33.14,0 -60,26.87 -60,60 0,33.14 26.86,60 60,60 33.13,0 60,-26.86 60,-60 0,-33.13 -26.87,-60 -60,-60"
         style="fill:#f472bf;fill-opacity:1;fill-rule:nonzero;stroke:none"
         transform="matrix(0.13333333,0,0,-0.13333333,0,663.65333)" />
      <path
         id="path18"
         d="m 3984.76,1461.03 v 1829.12 c 0,55.44 -43.38,100.39 -96.92,100.39 H 1099.49 c -53.53,0 -96.93,-44.95 -96.93,-100.39 V 1461.03 h 2982.2"
         style="fill:#dac9e9;fill-opacity:1;fill-rule:nonzero;stroke:none"
         transform="matrix(0.13333333,0,0,-0.13333333,0,663.65333)" />
      <path
         id="path19"
         d="M 3134.48,742.73 H 1852.85 v 3.071 c 0,50.781 41.16,91.941 91.94,91.941 h 1097.75 c 50.77,0 91.94,-41.16 91.94,-91.941 v -3.071"
         style="fill:#ee1a98;fill-opacity:1;fill-rule:nonzero;stroke:none"
         transform="matrix(0.13333333,0,0,-0.13333333,0,663.65333)" />
      <path
         id="path20"
         d="m 1243.01,3409.3 c 0,88.53 -66.74,161.38 -152.63,171.23 0.66,5.78 1.08,11.64 1.08,17.61 0,84.88 -68.8,153.68 -153.679,153.68 -22.738,0 -44.25,-5.07 -63.668,-13.93 -40.922,63.79 -112.406,106.09 -193.812,106.09 -127.117,0 -230.164,-103.05 -230.164,-230.17 0,-11.19 0.84,-22.19 2.383,-32.95 -86.989,-8.8 -154.879,-82.25 -154.879,-171.56 0,-95.24 77.207,-172.45 172.445,-172.45 h 609.024 v 0.44 c 91.24,4.49 163.9,79.66 163.9,172.01"
         style="fill:#a08bcd;fill-opacity:1;fill-rule:nonzero;stroke:none"
         transform="matrix(0.13333333,0,0,-0.13333333,0,663.65333)" />
      <path
         id="path21"
         d="M 880.773,3105.26 V 3373.2 H 659.871 V 3105.26 H 590.82 l 179.5,-168.17 179.508,168.17 h -69.055"
         style="fill:#fab743;fill-opacity:1;fill-rule:nonzero;stroke:none"
         transform="matrix(0.13333333,0,0,-0.13333333,0,663.65333)" />
      <path
         id="path22"
         d="m 3321.03,3282.61 h -542.36 c -50.16,0 -90.81,40.65 -90.81,90.81 v 180.37 c 0,50.15 40.65,90.81 90.81,90.81 h 542.36 c 50.16,0 90.81,-40.66 90.81,-90.81 v -180.37 c 0,-50.16 -40.65,-90.81 -90.81,-90.81"
         style="fill:#4746a4;fill-opacity:1;fill-rule:nonzero;stroke:none"
         transform="matrix(0.13333333,0,0,-0.13333333,0,663.65333)" />
      <path
         id="path23"
         d="M 1296.45,677.66 H 754.086 c -50.152,0 -90.813,40.649 -90.813,90.809 V 948.84 c 0,50.148 40.661,90.81 90.813,90.81 h 542.364 c 50.16,0 90.81,-40.662 90.81,-90.81 V 768.469 c 0,-50.16 -40.65,-90.809 -90.81,-90.809"
         style="fill:#4746a4;fill-opacity:1;fill-rule:nonzero;stroke:none"
         transform="matrix(0.13333333,0,0,-0.13333333,0,663.65333)" />
      <path
         id="path24"
         d="m 1557.26,2209.04 h -542.37 c -50.152,0 -90.812,40.66 -90.812,90.81 v 180.38 c 0,50.15 40.66,90.81 90.812,90.81 h 542.37 c 50.16,0 90.81,-40.66 90.81,-90.81 v -180.38 c 0,-50.15 -40.65,-90.81 -90.81,-90.81"
         style="fill:#4746a4;fill-opacity:1;fill-rule:nonzero;stroke:none"
         transform="matrix(0.13333333,0,0,-0.13333333,0,663.65333)" />
      <path
         id="path25"
         d="m 3468.37,1050.02 h -25.84 c -4.28,0 -7.75,3.48 -7.75,7.75 0,4.28 3.47,7.76 7.75,7.76 h 25.84 c 4.27,0 7.74,-3.48 7.74,-7.76 0,-4.27 -3.47,-7.75 -7.74,-7.75"
         style="fill:#a08bcd;fill-opacity:1;fill-rule:nonzero;stroke:none"
         transform="matrix(0.13333333,0,0,-0.13333333,0,663.65333)" />
      <path
         id="path26"
         d="m 4303.34,1908.86 c -4.29,0 -7.76,3.46 -7.76,7.74 v 51.68 c 0,4.28 3.47,7.75 7.76,7.75 4.28,0 7.74,-3.47 7.74,-7.75 v -51.68 c 0,-4.28 -3.46,-7.74 -7.74,-7.74 z m 0,-103.35 c -4.29,0 -7.76,3.46 -7.76,7.74 v 51.68 c 0,4.28 3.47,7.74 7.76,7.74 4.28,0 7.74,-3.46 7.74,-7.74 v -51.68 c 0,-4.28 -3.46,-7.74 -7.74,-7.74 z m 0,-103.36 c -4.29,0 -7.76,3.46 -7.76,7.74 v 51.68 c 0,4.28 3.47,7.76 7.76,7.76 4.28,0 7.74,-3.48 7.74,-7.76 v -51.68 c 0,-4.28 -3.46,-7.74 -7.74,-7.74 z m 0,-103.35 c -4.29,0 -7.76,3.46 -7.76,7.74 v 51.68 c 0,4.28 3.47,7.76 7.76,7.76 4.28,0 7.74,-3.48 7.74,-7.76 v -51.68 c 0,-4.28 -3.46,-7.74 -7.74,-7.74 z m 0,-103.36 c -4.29,0 -7.76,3.48 -7.76,7.75 v 51.67 c 0,4.28 3.47,7.76 7.76,7.76 4.28,0 7.74,-3.48 7.74,-7.76 v -51.67 c 0,-4.27 -3.46,-7.75 -7.74,-7.75 z m 0,-103.35 c -4.29,0 -7.76,3.47 -7.76,7.75 v 51.67 c 0,4.28 3.47,7.76 7.76,7.76 4.28,0 7.74,-3.48 7.74,-7.76 v -51.67 c 0,-4.28 -3.46,-7.75 -7.74,-7.75 z m 0,-103.36 c -4.29,0 -7.76,3.48 -7.76,7.75 v 51.68 c 0,4.28 3.47,7.75 7.76,7.75 4.28,0 7.74,-3.47 7.74,-7.75 v -51.68 c 0,-4.27 -3.46,-7.75 -7.74,-7.75 z m -14.31,-101.56 c -0.93,0 -1.87,0.16 -2.79,0.51 -3.99,1.55 -5.98,6.04 -4.44,10.02 5.98,15.48 10.07,31.68 12.13,48.16 0.54,4.25 4.28,7.27 8.67,6.72 4.24,-0.54 7.25,-4.41 6.71,-8.66 -2.22,-17.72 -6.61,-35.14 -13.05,-51.79 -1.18,-3.08 -4.11,-4.96 -7.23,-4.96 z m -58.58,-83.88 c -2.16,0 -4.3,0.89 -5.83,2.64 -2.82,3.21 -2.51,8.11 0.71,10.93 12.48,10.97 23.63,23.43 33.13,37.03 2.45,3.5 7.27,4.37 10.8,1.91 3.5,-2.45 4.35,-7.29 1.9,-10.79 -10.21,-14.61 -22.19,-28 -35.61,-39.8 -1.46,-1.29 -3.29,-1.92 -5.1,-1.92 z m -90.79,-47.26 c -3.49,0 -6.66,2.38 -7.52,5.93 -1.01,4.16 1.55,8.34 5.7,9.36 16.14,3.9 31.79,9.77 46.5,17.45 3.81,1.99 8.48,0.51 10.46,-3.28 1.98,-3.8 0.5,-8.48 -3.29,-10.46 -15.84,-8.26 -32.65,-14.58 -50.02,-18.78 z m -567.94,-6.01 h -51.68 c -4.28,0 -7.75,3.48 -7.75,7.75 0,4.28 3.47,7.76 7.75,7.76 h 51.68 c 4.27,0 7.75,-3.48 7.75,-7.76 0,-4.27 -3.48,-7.75 -7.75,-7.75 z m 103.35,0 h -51.67 c -4.28,0 -7.75,3.48 -7.75,7.75 0,4.28 3.47,7.76 7.75,7.76 h 51.67 c 4.27,0 7.75,-3.48 7.75,-7.76 0,-4.27 -3.48,-7.75 -7.75,-7.75 z m 103.36,0 h -51.68 c -4.28,0 -7.76,3.48 -7.76,7.75 0,4.28 3.48,7.76 7.76,7.76 h 51.68 c 4.27,0 7.74,-3.48 7.74,-7.76 0,-4.27 -3.47,-7.75 -7.74,-7.75 z m 103.36,0 h -51.68 c -4.28,0 -7.76,3.48 -7.76,7.75 0,4.28 3.48,7.76 7.76,7.76 h 51.68 c 4.27,0 7.74,-3.48 7.74,-7.76 0,-4.27 -3.47,-7.75 -7.74,-7.75 z m 103.34,0 h -51.67 c -4.28,0 -7.75,3.48 -7.75,7.75 0,4.28 3.47,7.76 7.75,7.76 h 51.67 c 4.28,0 7.75,-3.48 7.75,-7.76 0,-4.27 -3.47,-7.75 -7.75,-7.75 z m 103.35,0 h -51.68 c -4.27,0 -7.74,3.48 -7.74,7.75 0,4.28 3.47,7.76 7.74,7.76 h 51.68 c 4.28,0 7.76,-3.48 7.76,-7.76 0,-4.27 -3.48,-7.75 -7.76,-7.75"
         style="fill:#a08bcd;fill-opacity:1;fill-rule:nonzero;stroke:none"
         transform="matrix(0.13333333,0,0,-0.13333333,0,663.65333)" />
      <path
         id="path27"
         d="m 4303.34,2012.44 c -4.29,0 -7.76,3.47 -7.76,7.74 v 18.09 h -6.5 c -4.28,0 -7.74,3.48 -7.74,7.75 0,4.28 3.46,7.76 7.74,7.76 h 14.26 c 4.28,0 7.74,-3.48 7.74,-7.76 v -25.84 c 0,-4.27 -3.46,-7.74 -7.74,-7.74"
         style="fill:#a08bcd;fill-opacity:1;fill-rule:nonzero;stroke:none"
         transform="matrix(0.13333333,0,0,-0.13333333,0,663.65333)" />
      <path
         id="path28"
         d="m 4062.8,2828.74 h -678.05 c -40.76,0 -73.81,-33.04 -73.81,-73.8 V 1345.85 c 0,-40.76 33.05,-73.8 73.81,-73.8 h 678.05 c 40.75,0 73.8,33.04 73.8,73.8 v 1409.09 c 0,40.76 -33.05,73.8 -73.8,73.8"
         style="fill:#a08bcd;fill-opacity:1;fill-rule:nonzero;stroke:none"
         transform="matrix(0.13333333,0,0,-0.13333333,0,663.65333)" />
      <path
         id="path29"
         d="m 3875.39,2747.54 h -372.97 c -6.47,0 -11.72,5.25 -11.72,11.73 v 1.51 c 0,6.47 5.25,11.72 11.72,11.72 h 372.97 c 6.47,0 11.72,-5.25 11.72,-11.72 v -1.51 c 0,-6.48 -5.25,-11.73 -11.72,-11.73"
         style="fill:#212c5a;fill-opacity:1;fill-rule:nonzero;stroke:none"
         transform="matrix(0.13333333,0,0,-0.13333333,0,663.65333)" />
      <path
         id="path30"
         d="m 3956.85,2760.02 c 0,-6.89 -5.59,-12.48 -12.48,-12.48 -6.89,0 -12.48,5.59 -12.48,12.48 0,6.89 5.59,12.48 12.48,12.48 6.89,0 12.48,-5.59 12.48,-12.48"
         style="fill:#212c5a;fill-opacity:1;fill-rule:nonzero;stroke:none"
         transform="matrix(0.13333333,0,0,-0.13333333,0,663.65333)" />
      <path
         id="path31"
         d="M 4091.15,2235.89 H 3356.4 v 451.49 h 734.75 v -451.49"
         style="fill:#ffffff;fill-opacity:1;fill-rule:nonzero;stroke:none"
         transform="matrix(0.13333333,0,0,-0.13333333,0,663.65333)" />
      <path
         id="path32"
         d="m 3863.16,2498.71 -53.86,-64.43 -139.39,166.74 -233.06,-278.78 h 278.79 187.32 107.73 l -147.53,176.47"
         style="fill:#fab743;fill-opacity:1;fill-rule:nonzero;stroke:none"
         transform="matrix(0.13333333,0,0,-0.13333333,0,663.65333)" />
      <path
         id="path33"
         d="M 3703.29,1434.4 H 3356.4 v 203.46 h 346.89 V 1434.4"
         style="fill:#ffffff;fill-opacity:1;fill-rule:nonzero;stroke:none"
         transform="matrix(0.13333333,0,0,-0.13333333,0,663.65333)" />
      <path
         id="path34"
         d="m 3595.65,1558.8 -25.43,-30.43 -65.81,78.73 -110.03,-131.62 h 131.62 88.44 50.87 l -69.66,83.32"
         style="fill:#fab743;fill-opacity:1;fill-rule:nonzero;stroke:none"
         transform="matrix(0.13333333,0,0,-0.13333333,0,663.65333)" />
      <path
         id="path35"
         d="m 3356.4,2100.26 h 346.891 v 19.5 H 3356.4 Z"
         style="fill:#5c58b1;fill-opacity:1;fill-rule:nonzero;stroke:none"
         transform="matrix(0.13333333,0,0,-0.13333333,0,663.65333)" />
      <path
         id="path36"
         d="m 3356.4,2141.1 h 346.891 v 19.5 H 3356.4 Z"
         style="fill:#5c58b1;fill-opacity:1;fill-rule:nonzero;stroke:none"
         transform="matrix(0.13333333,0,0,-0.13333333,0,663.65333)" />
      <path
         id="path37"
         d="m 3356.4,2060.37 h 219.34 v 19.4883 H 3356.4 Z"
         style="fill:#5c58b1;fill-opacity:1;fill-rule:nonzero;stroke:none"
         transform="matrix(0.13333333,0,0,-0.13333333,0,663.65333)" />
      <path
         id="path38"
         d="m 3591.34,2060.37 h 111.949 v 19.4883 H 3591.34 Z"
         style="fill:#5c58b1;fill-opacity:1;fill-rule:nonzero;stroke:none"
         transform="matrix(0.13333333,0,0,-0.13333333,0,663.65333)" />
      <path
         id="path39"
         d="m 3356.4,2020.52 h 306.902 v 19.5 H 3356.4 Z"
         style="fill:#5c58b1;fill-opacity:1;fill-rule:nonzero;stroke:none"
         transform="matrix(0.13333333,0,0,-0.13333333,0,663.65333)" />
      <path
         id="path40"
         d="m 3356.4,1979.58 h 106.602 v 19.4922 H 3356.4 Z"
         style="fill:#5c58b1;fill-opacity:1;fill-rule:nonzero;stroke:none"
         transform="matrix(0.13333333,0,0,-0.13333333,0,663.65333)" />
      <path
         id="path41"
         d="m 3481.38,1979.58 h 76.7695 v 19.4922 H 3481.38 Z"
         style="fill:#5c58b1;fill-opacity:1;fill-rule:nonzero;stroke:none"
         transform="matrix(0.13333333,0,0,-0.13333333,0,663.65333)" />
      <path
         id="path42"
         d="m 3744.26,1827.32 h 346.887 v 19.5 H 3744.26 Z"
         style="fill:#5c58b1;fill-opacity:1;fill-rule:nonzero;stroke:none"
         transform="matrix(0.13333333,0,0,-0.13333333,0,663.65333)" />
      <path
         id="path43"
         d="m 3744.26,1868.16 h 346.887 v 19.4883 H 3744.26 Z"
         style="fill:#5c58b1;fill-opacity:1;fill-rule:nonzero;stroke:none"
         transform="matrix(0.13333333,0,0,-0.13333333,0,663.65333)" />
      <path
         id="path44"
         d="m 3744.26,1787.43 h 219.34 v 19.4922 h -219.34 z"
         style="fill:#5c58b1;fill-opacity:1;fill-rule:nonzero;stroke:none"
         transform="matrix(0.13333333,0,0,-0.13333333,0,663.65333)" />
      <path
         id="path45"
         d="m 3979.19,1787.43 h 111.957 v 19.4922 H 3979.19 Z"
         style="fill:#5c58b1;fill-opacity:1;fill-rule:nonzero;stroke:none"
         transform="matrix(0.13333333,0,0,-0.13333333,0,663.65333)" />
      <path
         id="path46"
         d="m 3744.26,1747.58 h 306.898 v 19.4922 H 3744.26 Z"
         style="fill:#5c58b1;fill-opacity:1;fill-rule:nonzero;stroke:none"
         transform="matrix(0.13333333,0,0,-0.13333333,0,663.65333)" />
      <path
         id="path47"
         d="m 3744.26,1706.64 h 106.59 v 19.4883 h -106.59 z"
         style="fill:#5c58b1;fill-opacity:1;fill-rule:nonzero;stroke:none"
         transform="matrix(0.13333333,0,0,-0.13333333,0,663.65333)" />
      <path
         id="path48"
         d="m 3869.24,1706.64 h 76.7578 v 19.4883 H 3869.24 Z"
         style="fill:#5c58b1;fill-opacity:1;fill-rule:nonzero;stroke:none"
         transform="matrix(0.13333333,0,0,-0.13333333,0,663.65333)" />
      <path
         id="path49"
         d="m 3744.26,2100.26 h 346.887 v 19.5 H 3744.26 Z"
         style="fill:#5c58b1;fill-opacity:1;fill-rule:nonzero;stroke:none"
         transform="matrix(0.13333333,0,0,-0.13333333,0,663.65333)" />
      <path
         id="path50"
         d="m 3744.26,2141.1 h 346.887 v 19.5 H 3744.26 Z"
         style="fill:#5c58b1;fill-opacity:1;fill-rule:nonzero;stroke:none"
         transform="matrix(0.13333333,0,0,-0.13333333,0,663.65333)" />
      <path
         id="path51"
         d="m 3744.26,2060.37 h 219.34 v 19.4883 h -219.34 z"
         style="fill:#5c58b1;fill-opacity:1;fill-rule:nonzero;stroke:none"
         transform="matrix(0.13333333,0,0,-0.13333333,0,663.65333)" />
      <path
         id="path52"
         d="m 3979.19,2060.37 h 111.957 v 19.4883 H 3979.19 Z"
         style="fill:#5c58b1;fill-opacity:1;fill-rule:nonzero;stroke:none"
         transform="matrix(0.13333333,0,0,-0.13333333,0,663.65333)" />
      <path
         id="path53"
         d="m 3744.26,2020.52 h 346.887 v 19.5 H 3744.26 Z"
         style="fill:#5c58b1;fill-opacity:1;fill-rule:nonzero;stroke:none"
         transform="matrix(0.13333333,0,0,-0.13333333,0,663.65333)" />
      <path
         id="path54"
         d="m 3744.26,1979.58 h 106.59 v 19.4922 h -106.59 z"
         style="fill:#5c58b1;fill-opacity:1;fill-rule:nonzero;stroke:none"
         transform="matrix(0.13333333,0,0,-0.13333333,0,663.65333)" />
      <path
         id="path55"
         d="m 3869.24,1979.58 h 221.906 v 19.4922 H 3869.24 Z"
         style="fill:#5c58b1;fill-opacity:1;fill-rule:nonzero;stroke:none"
         transform="matrix(0.13333333,0,0,-0.13333333,0,663.65333)" />
      <path
         id="path56"
         d="m 3356.4,1827.32 h 346.891 v 19.5 H 3356.4 Z"
         style="fill:#5c58b1;fill-opacity:1;fill-rule:nonzero;stroke:none"
         transform="matrix(0.13333333,0,0,-0.13333333,0,663.65333)" />
      <path
         id="path57"
         d="m 3356.4,1868.16 h 346.891 v 19.4883 H 3356.4 Z"
         style="fill:#5c58b1;fill-opacity:1;fill-rule:nonzero;stroke:none"
         transform="matrix(0.13333333,0,0,-0.13333333,0,663.65333)" />
      <path
         id="path58"
         d="m 3356.4,1787.43 h 346.891 v 19.4922 H 3356.4 Z"
         style="fill:#5c58b1;fill-opacity:1;fill-rule:nonzero;stroke:none"
         transform="matrix(0.13333333,0,0,-0.13333333,0,663.65333)" />
      <path
         id="path59"
         d="m 3356.4,1747.58 h 346.891 v 19.4922 H 3356.4 Z"
         style="fill:#5c58b1;fill-opacity:1;fill-rule:nonzero;stroke:none"
         transform="matrix(0.13333333,0,0,-0.13333333,0,663.65333)" />
      <path
         id="path60"
         d="m 3356.4,1706.64 h 346.891 v 19.4883 H 3356.4 Z"
         style="fill:#5c58b1;fill-opacity:1;fill-rule:nonzero;stroke:none"
         transform="matrix(0.13333333,0,0,-0.13333333,0,663.65333)" />
      <path
         id="path61"
         d="m 3744.26,1570.87 h 346.887 v 19.4883 H 3744.26 Z"
         style="fill:#5c58b1;fill-opacity:1;fill-rule:nonzero;stroke:none"
         transform="matrix(0.13333333,0,0,-0.13333333,0,663.65333)" />
      <path
         id="path62"
         d="m 3744.26,1611.71 h 346.887 v 19.4883 H 3744.26 Z"
         style="fill:#5c58b1;fill-opacity:1;fill-rule:nonzero;stroke:none"
         transform="matrix(0.13333333,0,0,-0.13333333,0,663.65333)" />
      <path
         id="path63"
         d="m 3871.81,1530.98 h 219.34 v 19.4883 h -219.34 z"
         style="fill:#5c58b1;fill-opacity:1;fill-rule:nonzero;stroke:none"
         transform="matrix(0.13333333,0,0,-0.13333333,0,663.65333)" />
      <path
         id="path64"
         d="m 3744.26,1530.98 h 111.949 v 19.4883 H 3744.26 Z"
         style="fill:#5c58b1;fill-opacity:1;fill-rule:nonzero;stroke:none"
         transform="matrix(0.13333333,0,0,-0.13333333,0,663.65333)" />
      <path
         id="path65"
         d="m 3744.26,1491.12 h 266.348 v 19.4883 H 3744.26 Z"
         style="fill:#5c58b1;fill-opacity:1;fill-rule:nonzero;stroke:none"
         transform="matrix(0.13333333,0,0,-0.13333333,0,663.65333)" />
      <path
         id="path66"
         d="m 4029.12,1491.12 h 62.0273 v 19.4883 H 4029.12 Z"
         style="fill:#5c58b1;fill-opacity:1;fill-rule:nonzero;stroke:none"
         transform="matrix(0.13333333,0,0,-0.13333333,0,663.65333)" />
      <path
         id="path67"
         d="m 3835.26,1450.18 h 255.887 v 19.5 H 3835.26 Z"
         style="fill:#5c58b1;fill-opacity:1;fill-rule:nonzero;stroke:none"
         transform="matrix(0.13333333,0,0,-0.13333333,0,663.65333)" />
      <path
         id="path68"
         d="m 3744.26,1450.18 h 76.7578 v 19.5 H 3744.26 Z"
         style="fill:#5c58b1;fill-opacity:1;fill-rule:nonzero;stroke:none"
         transform="matrix(0.13333333,0,0,-0.13333333,0,663.65333)" />
      <path
         id="path69"
         d="m 3475.21,910.051 h -542.36 c -50.16,0 -90.81,40.66 -90.81,90.809 v 180.38 c 0,50.15 40.65,90.81 90.81,90.81 h 542.36 c 50.16,0 90.82,-40.66 90.82,-90.81 v -180.38 c 0,-50.149 -40.66,-90.809 -90.82,-90.809"
         style="fill:#4746a4;fill-opacity:1;fill-rule:nonzero;stroke:none"
         transform="matrix(0.13333333,0,0,-0.13333333,0,663.65333)" />
      <path
         id="path70"
         d="m 4331.27,1510.44 c 0,-18.65 -15.12,-33.77 -33.77,-33.77 -18.65,0 -33.77,15.12 -33.77,33.77 0,18.65 15.12,33.77 33.77,33.77 18.65,0 33.77,-15.12 33.77,-33.77"
         style="fill:#a08bcd;fill-opacity:1;fill-rule:nonzero;stroke:none"
         transform="matrix(0.13333333,0,0,-0.13333333,0,663.65333)" />
      <path
         id="path71"
         d="m 4297.49,1565.99 c -30.63,0 -55.54,-24.92 -55.54,-55.55 0,-30.63 24.91,-55.54 55.54,-55.54 30.63,0 55.55,24.91 55.55,55.54 0,30.63 -24.92,55.55 -55.55,55.55 z m 0,-118.84 c -34.89,0 -63.29,28.39 -63.29,63.29 0,34.9 28.4,63.3 63.29,63.3 34.9,0 63.3,-28.4 63.3,-63.3 0,-34.9 -28.4,-63.29 -63.3,-63.29"
         style="fill:#a08bcd;fill-opacity:1;fill-rule:nonzero;stroke:none"
         transform="matrix(0.13333333,0,0,-0.13333333,0,663.65333)" />
      <path
         id="path72"
         d="m 4588.93,2005.95 h -542.37 c -50.16,0 -90.81,40.66 -90.81,90.81 v 180.38 c 0,50.14 40.65,90.81 90.81,90.81 h 542.37 c 50.15,0 90.81,-40.67 90.81,-90.81 v -180.38 c 0,-50.15 -40.66,-90.81 -90.81,-90.81"
         style="fill:#4746a4;fill-opacity:1;fill-rule:nonzero;stroke:none"
         transform="matrix(0.13333333,0,0,-0.13333333,0,663.65333)" />
      <path
         id="path73"
         d="m 2641.77,1919.01 h -227.82 v 20.67 h 227.82 v -20.67"
         style="fill:#212c5a;fill-opacity:1;fill-rule:nonzero;stroke:none"
         transform="matrix(0.13333333,0,0,-0.13333333,0,663.65333)" />
      <path
         id="path74"
         d="m 3227.77,1919.01 h -527.58 v 20.67 h 527.58 v -20.67"
         style="fill:#212c5a;fill-opacity:1;fill-rule:nonzero;stroke:none"
         transform="matrix(0.13333333,0,0,-0.13333333,0,663.65333)" />
      <path
         id="path75"
         d="m 2957.38,1761.83 c -90.57,0 -181.33,0.11 -271.67,0.33 l 0.05,20.66 c 180.65,-0.43 363,-0.43 541.98,0 l 0.05,-20.66 c -89.5,-0.22 -179.85,-0.33 -270.41,-0.33"
         style="fill:#212c5a;fill-opacity:1;fill-rule:nonzero;stroke:none"
         transform="matrix(0.13333333,0,0,-0.13333333,0,663.65333)" />
      <path
         id="path76"
         d="m 3227.77,1840.58 h -625.05 v 20.67 h 625.05 v -20.67"
         style="fill:#212c5a;fill-opacity:1;fill-rule:nonzero;stroke:none"
         transform="matrix(0.13333333,0,0,-0.13333333,0,663.65333)" />
      <path
         id="path77"
         d="m 3227.77,1683.4 h -659.05 v 20.67 h 659.05 v -20.67"
         style="fill:#212c5a;fill-opacity:1;fill-rule:nonzero;stroke:none"
         transform="matrix(0.13333333,0,0,-0.13333333,0,663.65333)" />
      <path
         id="path78"
         d="m 3227.77,1604.97 h -750.46 v 20.66 h 750.46 v -20.66"
         style="fill:#212c5a;fill-opacity:1;fill-rule:nonzero;stroke:none"
         transform="matrix(0.13333333,0,0,-0.13333333,0,663.65333)" />
      <path
         id="path79"
         d="m 1535.56,3100.85 h -352.84 v 20.67 h 352.84 v -20.67"
         style="fill:#a08bcd;fill-opacity:1;fill-rule:nonzero;stroke:none"
         transform="matrix(0.13333333,0,0,-0.13333333,0,663.65333)" />
      <path
         id="path80"
         d="m 2355.66,3100.85 h -364.12 v 20.67 h 364.12 v -20.67"
         style="fill:#a08bcd;fill-opacity:1;fill-rule:nonzero;stroke:none"
         transform="matrix(0.13333333,0,0,-0.13333333,0,663.65333)" />
      <path
         id="path81"
         d="m 2355.66,3022.43 h -252.58 v 20.66 h 252.58 v -20.66"
         style="fill:#fab743;fill-opacity:1;fill-rule:nonzero;stroke:none"
         transform="matrix(0.13333333,0,0,-0.13333333,0,663.65333)" />
      <path
         id="path82"
         d="m 2355.66,2865.24 h -356.48 v 20.67 h 356.48 v -20.67"
         style="fill:#fab743;fill-opacity:1;fill-rule:nonzero;stroke:none"
         transform="matrix(0.13333333,0,0,-0.13333333,0,663.65333)" />
      <path
         id="path83"
         d="m 2355.66,2786.81 h -426.3 v 20.67 h 426.3 v -20.67"
         style="fill:#fab743;fill-opacity:1;fill-rule:nonzero;stroke:none"
         transform="matrix(0.13333333,0,0,-0.13333333,0,663.65333)" />
      <path
         id="path84"
         d="m 2355.66,2695.12 h -548.35 v 20.66 h 548.35 v -20.66"
         style="fill:#fab743;fill-opacity:1;fill-rule:nonzero;stroke:none"
         transform="matrix(0.13333333,0,0,-0.13333333,0,663.65333)" />
      <path
         id="path85"
         d="m 1945.61,3100.85 h -352.85 v 20.67 h 352.85 v -20.67"
         style="fill:#fab743;fill-opacity:1;fill-rule:nonzero;stroke:none"
         transform="matrix(0.13333333,0,0,-0.13333333,0,663.65333)" />
      <path
         id="path86"
         d="m 2070.81,2943.67 c -53.9,0 -107.99,0.07 -216.17,0.23 l -70.33,0.09 0.02,20.67 70.34,-0.1 c 216.32,-0.3 216.34,-0.3 431.13,0 l 69.86,0.1 v -20.67 l -69.83,-0.09 c -107.41,-0.16 -161.12,-0.23 -215.02,-0.23"
         style="fill:#fab743;fill-opacity:1;fill-rule:nonzero;stroke:none"
         transform="matrix(0.13333333,0,0,-0.13333333,0,663.65333)" />
      <path
         id="path87"
         d="m 1453.11,2943.67 c -90.56,0 -180.91,0.1 -270.42,0.32 l 0.05,20.67 c 178.98,-0.43 361.33,-0.43 541.99,0 l 0.04,-20.67 c -90.34,-0.22 -181.11,-0.32 -271.66,-0.32"
         style="fill:#a08bcd;fill-opacity:1;fill-rule:nonzero;stroke:none"
         transform="matrix(0.13333333,0,0,-0.13333333,0,663.65333)" />
      <path
         id="path88"
         d="m 2052.97,3022.43 h -870.25 v 20.66 h 870.25 v -20.66"
         style="fill:#a08bcd;fill-opacity:1;fill-rule:nonzero;stroke:none"
         transform="matrix(0.13333333,0,0,-0.13333333,0,663.65333)" />
      <path
         id="path89"
         d="m 1759,2695.12 h -576.28 v 20.66 H 1759 v -20.66"
         style="fill:#a08bcd;fill-opacity:1;fill-rule:nonzero;stroke:none"
         transform="matrix(0.13333333,0,0,-0.13333333,0,663.65333)" />
      <path
         id="path90"
         d="m 1954.18,2865.24 h -771.46 v 20.67 h 771.46 v -20.67"
         style="fill:#a08bcd;fill-opacity:1;fill-rule:nonzero;stroke:none"
         transform="matrix(0.13333333,0,0,-0.13333333,0,663.65333)" />
      <path
         id="path91"
         d="m 1881.88,2786.81 h -699.16 v 20.67 h 699.16 v -20.67"
         style="fill:#a08bcd;fill-opacity:1;fill-rule:nonzero;stroke:none"
         transform="matrix(0.13333333,0,0,-0.13333333,0,663.65333)" />
      <path
         id="path92"
         d="m 1123.11,3111.19 c 0,-7.88 -6.38,-14.26 -14.25,-14.26 -7.88,0 -14.26,6.38 -14.26,14.26 0,7.87 6.38,14.25 14.26,14.25 7.87,0 14.25,-6.38 14.25,-14.25"
         style="fill:#ee1a98;fill-opacity:1;fill-rule:nonzero;stroke:none"
         transform="matrix(0.13333333,0,0,-0.13333333,0,663.65333)" />
      <path
         id="path93"
         d="m 1123.11,3032.75 c 0,-7.87 -6.38,-14.25 -14.25,-14.25 -7.88,0 -14.26,6.38 -14.26,14.25 0,7.87 6.38,14.26 14.26,14.26 7.87,0 14.25,-6.39 14.25,-14.26"
         style="fill:#ee1a98;fill-opacity:1;fill-rule:nonzero;stroke:none"
         transform="matrix(0.13333333,0,0,-0.13333333,0,663.65333)" />
      <path
         id="path94"
         d="m 1123.11,2954.33 c 0,-7.88 -6.38,-14.26 -14.25,-14.26 -7.88,0 -14.26,6.38 -14.26,14.26 0,7.87 6.38,14.25 14.26,14.25 7.87,0 14.25,-6.38 14.25,-14.25"
         style="fill:#ee1a98;fill-opacity:1;fill-rule:nonzero;stroke:none"
         transform="matrix(0.13333333,0,0,-0.13333333,0,663.65333)" />
      <path
         id="path95"
         d="m 1123.11,2875.9 c 0,-7.87 -6.38,-14.26 -14.25,-14.26 -7.88,0 -14.26,6.39 -14.26,14.26 0,7.87 6.38,14.25 14.26,14.25 7.87,0 14.25,-6.38 14.25,-14.25"
         style="fill:#ee1a98;fill-opacity:1;fill-rule:nonzero;stroke:none"
         transform="matrix(0.13333333,0,0,-0.13333333,0,663.65333)" />
      <path
         id="path96"
         d="m 1123.11,2797.14 c 0,-7.87 -6.38,-14.25 -14.25,-14.25 -7.88,0 -14.26,6.38 -14.26,14.25 0,7.87 6.38,14.26 14.26,14.26 7.87,0 14.25,-6.39 14.25,-14.26"
         style="fill:#ee1a98;fill-opacity:1;fill-rule:nonzero;stroke:none"
         transform="matrix(0.13333333,0,0,-0.13333333,0,663.65333)" />
      <path
         id="path97"
         d="m 1123.11,2705.45 c 0,-7.87 -6.38,-14.25 -14.25,-14.25 -7.88,0 -14.26,6.38 -14.26,14.25 0,7.87 6.38,14.25 14.26,14.25 7.87,0 14.25,-6.38 14.25,-14.25"
         style="fill:#ee1a98;fill-opacity:1;fill-rule:nonzero;stroke:none"
         transform="matrix(0.13333333,0,0,-0.13333333,0,663.65333)" />
      <path
         id="path98"
         d="m 2449.71,2658.72 c -2.85,0 -5.16,2.31 -5.16,5.17 v 458.9 c 0,2.86 2.31,5.17 5.16,5.17 2.86,0 5.17,-2.31 5.17,-5.17 v -458.9 c 0,-2.86 -2.31,-5.17 -5.17,-5.17"
         style="fill:#ee1a98;fill-opacity:1;fill-rule:nonzero;stroke:none"
         transform="matrix(0.13333333,0,0,-0.13333333,0,663.65333)" />
      <path
         id="path99"
         d="m 1462.84,1993.5 h -31.76 c -2.93,0 -5.3,2.37 -5.3,5.3 0,2.93 2.37,5.29 5.3,5.29 h 31.76 c 2.93,0 5.3,-2.36 5.3,-5.29 0,-2.93 -2.37,-5.3 -5.3,-5.3 z m 63.54,0 h -31.77 c -2.93,0 -5.3,2.37 -5.3,5.3 0,2.93 2.37,5.29 5.3,5.29 h 31.77 c 2.92,0 5.29,-2.36 5.29,-5.29 0,-2.93 -2.37,-5.3 -5.29,-5.3 z m 63.53,0 h -31.77 c -2.93,0 -5.3,2.37 -5.3,5.3 0,2.93 2.37,5.29 5.3,5.29 h 31.77 c 2.92,0 5.29,-2.36 5.29,-5.29 0,-2.93 -2.37,-5.3 -5.29,-5.3 z m -197.14,-41.24 c -2.93,0 -5.3,2.38 -5.3,5.3 v 3.86 c 0,10.79 4.03,21.07 11.34,28.97 1.98,2.14 5.32,2.28 7.48,0.29 2.15,-1.98 2.28,-5.33 0.3,-7.48 -5.5,-5.94 -8.53,-13.67 -8.53,-21.78 v -3.86 c 0,-2.92 -2.36,-5.3 -5.29,-5.3 z m 0,-63.52 c -2.93,0 -5.3,2.36 -5.3,5.29 v 31.77 c 0,2.92 2.37,5.29 5.3,5.29 2.93,0 5.29,-2.37 5.29,-5.29 v -31.77 c 0,-2.93 -2.36,-5.29 -5.29,-5.29 z m 0,-63.54 c -2.93,0 -5.3,2.38 -5.3,5.3 v 31.76 c 0,2.93 2.37,5.3 5.3,5.3 2.93,0 5.29,-2.37 5.29,-5.3 v -31.76 c 0,-2.92 -2.36,-5.3 -5.29,-5.3 z m 0,-63.52 c -2.93,0 -5.3,2.36 -5.3,5.29 v 31.77 c 0,2.92 2.37,5.29 5.3,5.29 2.93,0 5.29,-2.37 5.29,-5.29 v -31.77 c 0,-2.93 -2.36,-5.29 -5.29,-5.29 z m 0.85,-63.47 c -2.44,0 -4.63,1.69 -5.16,4.17 -0.65,3 -0.99,6.07 -0.99,9.11 v 23.71 c 0,2.93 2.37,5.3 5.3,5.3 2.93,0 5.29,-2.37 5.29,-5.3 v -23.71 c 0,-2.29 0.25,-4.61 0.74,-6.86 0.62,-2.86 -1.19,-5.68 -4.05,-6.3 z m 49.38,-29.38 h -12.86 c -7.23,0 -14.38,1.84 -20.67,5.34 -2.57,1.41 -3.49,4.64 -2.07,7.2 1.43,2.56 4.68,3.46 7.2,2.06 4.72,-2.63 10.1,-4.01 15.54,-4.01 H 1443 c 2.93,0 5.29,-2.37 5.29,-5.29 0,-2.93 -2.36,-5.3 -5.29,-5.3 z m 63.53,0 h -31.76 c -2.93,0 -5.3,2.37 -5.3,5.3 0,2.92 2.37,5.29 5.3,5.29 h 31.76 c 2.93,0 5.29,-2.37 5.29,-5.29 0,-2.93 -2.36,-5.3 -5.29,-5.3 z m 63.53,0 h -31.76 c -2.93,0 -5.3,2.37 -5.3,5.3 0,2.92 2.37,5.29 5.3,5.29 h 31.76 c 2.93,0 5.29,-2.37 5.29,-5.29 0,-2.93 -2.36,-5.3 -5.29,-5.3"
         style="fill:#212c5a;fill-opacity:1;fill-rule:nonzero;stroke:none"
         transform="matrix(0.13333333,0,0,-0.13333333,0,663.65333)" />
      <path
         id="path100"
         d="m 1685.29,1785.14 h -170.05 v 21.17 h 170.05 v -21.17"
         style="fill:#212c5a;fill-opacity:1;fill-rule:nonzero;stroke:none"
         transform="matrix(0.13333333,0,0,-0.13333333,0,663.65333)" />
      <path
         id="path101"
         d="M 2004.51,1785.14 H 1729.8 v 21.17 h 274.71 v -21.17"
         style="fill:#212c5a;fill-opacity:1;fill-rule:nonzero;stroke:none"
         transform="matrix(0.13333333,0,0,-0.13333333,0,663.65333)" />
      <path
         id="path102"
         d="m 2004.51,1604.97 h -170.04 v 21.17 h 170.04 v -21.17"
         style="fill:#212c5a;fill-opacity:1;fill-rule:nonzero;stroke:none"
         transform="matrix(0.13333333,0,0,-0.13333333,0,663.65333)" />
      <path
         id="path103"
         d="m 1789.97,1604.97 h -274.73 v 21.17 h 274.73 v -21.17"
         style="fill:#212c5a;fill-opacity:1;fill-rule:nonzero;stroke:none"
         transform="matrix(0.13333333,0,0,-0.13333333,0,663.65333)" />
      <path
         id="path104"
         d="m 1814.33,1723.77 h -299.09 v 21.18 h 299.09 v -21.18"
         style="fill:#212c5a;fill-opacity:1;fill-rule:nonzero;stroke:none"
         transform="matrix(0.13333333,0,0,-0.13333333,0,663.65333)" />
      <path
         id="path105"
         d="m 2004.51,1723.77 h -145.68 v 21.18 h 145.68 v -21.18"
         style="fill:#212c5a;fill-opacity:1;fill-rule:nonzero;stroke:none"
         transform="matrix(0.13333333,0,0,-0.13333333,0,663.65333)" />
      <path
         id="path106"
         d="m 1761.37,1663.53 h -246.13 v 21.19 h 246.13 v -21.19"
         style="fill:#212c5a;fill-opacity:1;fill-rule:nonzero;stroke:none"
         transform="matrix(0.13333333,0,0,-0.13333333,0,663.65333)" />
      <path
         id="path107"
         d="M 2004.51,1663.53 H 1837.5 v 21.19 h 167.01 v -21.19"
         style="fill:#212c5a;fill-opacity:1;fill-rule:nonzero;stroke:none"
         transform="matrix(0.13333333,0,0,-0.13333333,0,663.65333)" />
      <path
         id="path108"
         d="m 1604.26,2062.16 h -89.02 v -165.75 h 89.02 v 165.75"
         style="fill:#fab743;fill-opacity:1;fill-rule:nonzero;stroke:none"
         transform="matrix(0.13333333,0,0,-0.13333333,0,663.65333)" />
      <path
         id="path109"
         d="m 1743.92,2125.08 h -89.01 v -228.67 h 89.01 v 228.67"
         style="fill:#ee1a98;fill-opacity:1;fill-rule:nonzero;stroke:none"
         transform="matrix(0.13333333,0,0,-0.13333333,0,663.65333)" />
      <path
         id="path110"
         d="m 1878.98,2255.54 h -89.02 v -359.13 h 89.02 v 359.13"
         style="fill:#4746a4;fill-opacity:1;fill-rule:nonzero;stroke:none"
         transform="matrix(0.13333333,0,0,-0.13333333,0,663.65333)" />
      <path
         id="path111"
         d="m 1816.84,1663.53 h -31.95 v 21.19 h 31.95 v -21.19"
         style="fill:#212c5a;fill-opacity:1;fill-rule:nonzero;stroke:none"
         transform="matrix(0.13333333,0,0,-0.13333333,0,663.65333)" />
      <path
         id="path112"
         d="m 3219.75,2074.68 h -666.38 v 743.49 h 666.38 v -743.49"
         style="fill:#a08bcd;fill-opacity:1;fill-rule:nonzero;stroke:none"
         transform="matrix(0.13333333,0,0,-0.13333333,0,663.65333)" />
      <path
         id="path113"
         d="m 3071.83,2670.53 h -464.65 v 15.5 h 464.65 v -15.5"
         style="fill:#ffffff;fill-opacity:1;fill-rule:nonzero;stroke:none"
         transform="matrix(0.13333333,0,0,-0.13333333,0,663.65333)" />
      <path
         id="path114"
         d="m 2839,2557.71 c -79.8,0 -159.44,0.08 -231.84,0.26 l 0.04,15.5 c 144.78,-0.36 318.48,-0.36 464.61,0 l 0.04,-15.5 c -73.07,-0.18 -153.04,-0.26 -232.85,-0.26"
         style="fill:#ffffff;fill-opacity:1;fill-rule:nonzero;stroke:none"
         transform="matrix(0.13333333,0,0,-0.13333333,0,663.65333)" />
      <path
         id="path115"
         d="m 3071.83,2614.25 h -464.65 v 15.5 h 464.65 v -15.5"
         style="fill:#ffffff;fill-opacity:1;fill-rule:nonzero;stroke:none"
         transform="matrix(0.13333333,0,0,-0.13333333,0,663.65333)" />
      <path
         id="path116"
         d="m 2945.92,2501.43 h -338.74 v 15.5 h 338.74 v -15.5"
         style="fill:#ffffff;fill-opacity:1;fill-rule:nonzero;stroke:none"
         transform="matrix(0.13333333,0,0,-0.13333333,0,663.65333)" />
      <path
         id="path117"
         d="m 3071.83,2122.58 h -464.65 v 15.5 h 464.65 v -15.5"
         style="fill:#ffffff;fill-opacity:1;fill-rule:nonzero;stroke:none"
         transform="matrix(0.13333333,0,0,-0.13333333,0,663.65333)" />
      <path
         id="path118"
         d="m 3071.81,2235.14 c -146.14,0.35 -319.84,0.35 -464.61,0 l -0.04,15.49 c 144.81,0.35 318.53,0.35 464.69,0 l -0.04,-15.49"
         style="fill:#ffffff;fill-opacity:1;fill-rule:nonzero;stroke:none"
         transform="matrix(0.13333333,0,0,-0.13333333,0,663.65333)" />
      <path
         id="path119"
         d="m 3071.83,2178.86 h -464.65 v 15.49 h 464.65 v -15.49"
         style="fill:#ffffff;fill-opacity:1;fill-rule:nonzero;stroke:none"
         transform="matrix(0.13333333,0,0,-0.13333333,0,663.65333)" />
      <path
         id="path120"
         d="m 2945.92,2291.67 h -338.74 v 15.51 h 338.74 v -15.51"
         style="fill:#ffffff;fill-opacity:1;fill-rule:nonzero;stroke:none"
         transform="matrix(0.13333333,0,0,-0.13333333,0,663.65333)" />
      <path
         id="path121"
         d="m 2553.37,2074.68 h 666.38 v 743.73 h -666.38 z m 676.73,-10.34 h -687.06 v 764.4 h 687.06 v -764.4"
         style="fill:#4746a4;fill-opacity:1;fill-rule:nonzero;stroke:none"
         transform="matrix(0.13333333,0,0,-0.13333333,0,663.65333)" />
      <path
         id="path122"
         d="m 3224.92,2823.58 h -676.73 v -89.07 h 676.73 v 89.07"
         style="fill:#4746a4;fill-opacity:1;fill-rule:nonzero;stroke:none"
         transform="matrix(0.13333333,0,0,-0.13333333,0,663.65333)" />
      <path
         id="path123"
         d="m 3031.67,2346.77 c -1.83,0 -3.65,0.64 -5.13,1.94 l -52.08,46.02 c -1.66,1.46 -2.61,3.58 -2.61,5.8 0,2.22 0.95,4.33 2.61,5.81 l 52.08,46.01 c 3.2,2.82 8.1,2.54 10.95,-0.68 2.82,-3.2 2.52,-8.1 -0.69,-10.94 l -45.49,-40.2 45.49,-40.21 c 3.21,-2.83 3.51,-7.72 0.69,-10.94 -1.53,-1.73 -3.67,-2.61 -5.82,-2.61"
         style="fill:#ffffff;fill-opacity:1;fill-rule:nonzero;stroke:none"
         transform="matrix(0.13333333,0,0,-0.13333333,0,663.65333)" />
      <path
         id="path124"
         d="m 3112,2346.77 c -2.14,0 -4.28,0.88 -5.81,2.61 -2.82,3.22 -2.52,8.11 0.67,10.94 l 45.51,40.21 -45.51,40.2 c -3.19,2.84 -3.49,7.74 -0.67,10.94 2.83,3.21 7.72,3.5 10.95,0.68 l 52.07,-46.01 c 1.67,-1.48 2.61,-3.59 2.61,-5.81 0,-2.22 -0.94,-4.34 -2.61,-5.8 l -52.07,-46.02 c -1.49,-1.3 -3.31,-1.94 -5.14,-1.94"
         style="fill:#ffffff;fill-opacity:1;fill-rule:nonzero;stroke:none"
         transform="matrix(0.13333333,0,0,-0.13333333,0,663.65333)" />
      <path
         id="path125"
         d="m 2612.29,2779.04 18.05,18.06 c 1.71,1.71 1.71,4.47 0,6.18 -1.7,1.7 -4.47,1.7 -6.17,0 l -18.06,-18.06 -18.06,18.06 c -1.7,1.7 -4.47,1.7 -6.18,0 -1.71,-1.71 -1.71,-4.47 0,-6.18 l 18.06,-18.06 -18.06,-18.05 c -1.71,-1.71 -1.71,-4.47 0,-6.18 0.86,-0.86 1.98,-1.28 3.1,-1.28 1.11,0 2.24,0.42 3.08,1.28 l 18.06,18.06 18.06,-18.06 c 0.85,-0.86 1.97,-1.28 3.08,-1.28 1.13,0 2.24,0.42 3.09,1.28 1.71,1.71 1.71,4.47 0,6.18 l -18.05,18.05"
         style="fill:#ffffff;fill-opacity:1;fill-rule:nonzero;stroke:none"
         transform="matrix(0.13333333,0,0,-0.13333333,0,663.65333)" />
      <path
         id="path126"
         d="m 2689.71,2796.39 c -9.56,0 -17.33,-7.78 -17.33,-17.35 0,-9.56 7.77,-17.34 17.33,-17.34 9.58,0 17.35,7.78 17.35,17.34 0,9.57 -7.77,17.35 -17.35,17.35 z m 0,-42.86 c -14.06,0 -25.5,11.44 -25.5,25.51 0,14.07 11.44,25.52 25.5,25.52 14.08,0 25.52,-11.45 25.52,-25.52 0,-14.07 -11.44,-25.51 -25.52,-25.51"
         style="fill:#ffffff;fill-opacity:1;fill-rule:nonzero;stroke:none"
         transform="matrix(0.13333333,0,0,-0.13333333,0,663.65333)" />
      <path
         id="path127"
         d="m 2788.43,2753.53 h -41.59 c -2.41,0 -4.36,1.96 -4.36,4.37 0,2.41 1.95,4.37 4.36,4.37 h 41.59 c 2.42,0 4.37,-1.96 4.37,-4.37 0,-2.41 -1.95,-4.37 -4.37,-4.37"
         style="fill:#ffffff;fill-opacity:1;fill-rule:nonzero;stroke:none"
         transform="matrix(0.13333333,0,0,-0.13333333,0,663.65333)" />
      <path
         id="path128"
         d="m 2061.85,3485.1 c -87.95,-27.82 -182.13,21.1 -209.95,109.04 -27.82,87.96 21.1,182.14 109.05,209.97 87.95,27.81 182.13,-21.11 209.96,-109.06 27.81,-87.95 -21.11,-182.14 -109.06,-209.95 z m 278.56,334.02 -60.18,-19.03 c -2,-0.63 -3.89,-1.46 -5.7,-2.4 -18.12,31.17 -41.36,58.3 -68.28,80.66 1.26,1.66 2.43,3.4 3.41,5.29 l 28.83,56.15 c 8.96,17.47 2.05,38.99 -15.42,47.96 l -56.16,28.83 c -17.46,8.97 -38.98,2.06 -47.95,-15.42 l -28.83,-56.15 c -0.97,-1.89 -1.7,-3.85 -2.31,-5.83 -32.95,8.6 -67.55,11.74 -102.49,8.73 -0.27,2.02 -0.68,4.03 -1.31,6.03 l -19.04,60.19 c -5.92,18.73 -25.97,29.14 -44.7,23.22 l -60.18,-19.04 c -18.73,-5.92 -29.15,-25.98 -23.23,-44.71 l 19.04,-60.18 c 0.64,-2 1.46,-3.88 2.4,-5.69 -31.16,-18.12 -58.29,-41.36 -80.66,-68.28 -1.66,1.26 -3.4,2.43 -5.29,3.4 l -56.15,28.83 c -8.41,4.32 -17.99,5.13 -27.01,2.28 l -0.16,-0.05 c -9.06,-2.92 -16.44,-9.18 -20.78,-17.65 l -28.84,-56.15 c -8.97,-17.47 -2.05,-38.98 15.42,-47.96 l 56.15,-28.83 c 1.9,-0.97 3.87,-1.69 5.84,-2.29 -8.61,-32.95 -11.75,-67.56 -8.74,-102.51 -2.01,-0.26 -4.03,-0.67 -6.03,-1.3 l -60.18,-19.04 c -18.73,-5.93 -29.15,-25.98 -23.22,-44.71 l 19.03,-60.18 c 5.93,-18.73 25.98,-29.14 44.71,-23.22 l 60.18,19.04 c 2,0.63 3.89,1.46 5.69,2.39 18.13,-31.16 41.38,-58.3 68.3,-80.66 -1.25,-1.65 -2.44,-3.38 -3.42,-5.28 l -28.83,-56.15 c -4.35,-8.46 -5.14,-18.12 -2.22,-27.17 2.91,-9.06 9.18,-16.45 17.64,-20.79 l 56.15,-28.83 v 0 c 8.68,-4.46 18.36,-4.99 27,-2.26 8.75,2.77 16.44,8.89 20.96,17.68 l 28.83,56.15 c 0.98,1.9 1.68,3.87 2.29,5.84 32.95,-8.61 67.56,-11.74 102.51,-8.74 0.27,-2.01 0.68,-4.03 1.31,-6.03 l 19.04,-60.19 c 5.92,-18.72 25.97,-29.14 44.7,-23.22 l 60.18,19.04 c 18.73,5.93 29.14,25.97 23.22,44.7 l -19.03,60.19 c -0.64,2 -1.46,3.89 -2.4,5.69 31.16,18.13 58.3,41.38 80.66,68.3 1.65,-1.26 3.38,-2.44 5.28,-3.42 l 56.15,-28.84 c 8.69,-4.45 18.37,-4.99 27.01,-2.25 8.75,2.77 16.44,8.88 20.95,17.67 l 28.84,56.16 c 8.97,17.47 2.05,38.99 -15.42,47.95 l -56.16,28.83 c -1.88,0.97 -3.84,1.71 -5.83,2.32 8.6,32.95 11.74,67.55 8.73,102.48 2.02,0.27 4.03,0.68 6.04,1.32 l 60.18,19.03 c 18.73,5.92 29.14,25.98 23.22,44.71 l -19.03,60.18 c -5.93,18.73 -25.98,29.14 -44.71,23.21"
         style="fill:#212c5a;fill-opacity:1;fill-rule:nonzero;stroke:none"
         transform="matrix(0.13333333,0,0,-0.13333333,0,663.65333)" />
      <path
         id="path129"
         d="m 2312.6,2159.72 c -21.38,-52.36 -81.36,-77.56 -133.71,-56.19 -52.35,21.38 -77.55,81.36 -56.18,133.72 21.38,52.35 81.36,77.54 133.71,56.17 52.35,-21.38 77.55,-81.36 56.18,-133.7 z m -48.18,262.22 -14.63,-35.82 c -0.49,-1.19 -0.84,-2.41 -1.1,-3.62 -21.79,3.67 -43.69,3.36 -64.78,-0.56 -0.29,1.25 -0.65,2.48 -1.16,3.68 l -15.15,35.61 c -4.72,11.07 -17.57,16.25 -28.65,11.53 l -35.6,-15.15 c -11.08,-4.72 -16.26,-17.56 -11.54,-28.65 l 15.16,-35.59 c 0.5,-1.2 1.14,-2.32 1.84,-3.38 -16.98,-12.16 -32.02,-27.23 -44.3,-44.87 -1.05,0.66 -2.17,1.26 -3.36,1.74 l -35.82,14.63 c -11.15,4.55 -23.92,-0.81 -28.47,-11.96 l -14.63,-35.82 c -4.55,-11.15 0.82,-23.92 11.96,-28.48 l 35.83,-14.62 c 1.19,-0.48 2.4,-0.84 3.62,-1.1 -3.68,-21.8 -3.36,-43.69 0.55,-64.78 -1.24,-0.29 -2.48,-0.65 -3.68,-1.16 l -35.6,-15.15 c -5.34,-2.28 -9.47,-6.48 -11.66,-11.84 l -0.04,-0.1 c -2.18,-5.41 -2.12,-11.34 0.16,-16.71 l 15.16,-35.6 c 4.71,-11.08 17.56,-16.25 28.64,-11.53 l 35.6,15.14 c 1.21,0.52 2.31,1.16 3.37,1.86 12.15,-16.97 27.23,-32.02 44.88,-44.31 -0.67,-1.05 -1.26,-2.17 -1.75,-3.36 l -14.63,-35.82 c -4.55,-11.15 0.82,-23.91 11.96,-28.47 l 35.83,-14.62 c 11.15,-4.56 23.92,0.81 28.47,11.96 l 14.63,35.82 c 0.48,1.19 0.83,2.4 1.09,3.62 21.8,-3.68 43.7,-3.37 64.8,0.55 0.28,-1.23 0.63,-2.47 1.14,-3.67 l 15.16,-35.61 c 2.28,-5.37 6.52,-9.52 11.93,-11.7 5.41,-2.19 11.35,-2.12 16.71,0.17 l 35.61,15.14 c 5.5,2.35 9.55,6.7 11.65,11.85 2.13,5.21 2.26,11.23 -0.12,16.8 l -15.15,35.6 c -0.51,1.21 -1.16,2.32 -1.86,3.37 16.98,12.16 32.03,27.24 44.31,44.87 1.06,-0.65 2.17,-1.25 3.36,-1.74 l 35.82,-14.62 c 11.16,-4.55 23.92,0.81 28.48,11.96 l 14.62,35.82 c 4.55,11.14 -0.81,23.92 -11.96,28.47 l -35.82,14.63 c -1.2,0.48 -2.41,0.84 -3.62,1.1 3.67,21.79 3.36,43.69 -0.56,64.79 1.24,0.28 2.47,0.63 3.68,1.15 l 35.6,15.15 c 5.51,2.35 9.56,6.69 11.66,11.84 2.12,5.2 2.25,11.23 -0.12,16.81 l -15.15,35.6 c -4.72,11.08 -17.57,16.25 -28.65,11.54 l -35.6,-15.16 c -1.19,-0.51 -2.31,-1.14 -3.38,-1.85 -12.15,16.98 -27.22,32.02 -44.86,44.31 0.66,1.05 1.26,2.16 1.74,3.36 l 14.63,35.82 c 4.55,11.14 -0.81,23.92 -11.96,28.47 l -35.82,14.63 c -11.15,4.55 -23.92,-0.83 -28.47,-11.97"
         style="fill:#a08bcd;fill-opacity:1;fill-rule:nonzero;stroke:none"
         transform="matrix(0.13333333,0,0,-0.13333333,0,663.65333)" />
      <path
         id="path130"
         d="m 1988.34,2421.1 -1.78,1.76 c -13.55,-13.73 -31.43,-20.59 -49.35,-20.6 -17.61,0.01 -35.21,6.64 -48.71,19.96 -13.73,13.54 -20.6,31.43 -20.6,49.35 0,17.61 6.64,35.21 19.96,48.7 13.54,13.73 31.43,20.6 49.35,20.6 17.61,0 35.21,-6.63 48.7,-19.95 13.73,-13.55 20.6,-31.44 20.6,-49.36 0,-17.61 -6.64,-35.21 -19.95,-48.7 l 1.78,-1.76 1.78,-1.75 c 14.27,14.45 21.4,33.35 21.39,52.21 0.01,19.2 -7.37,38.4 -22.08,52.92 -14.46,14.27 -33.36,21.4 -52.22,21.39 -19.19,0.01 -38.4,-7.37 -52.91,-22.08 -14.27,-14.46 -21.4,-33.36 -21.4,-52.22 0,-19.19 7.38,-38.4 22.09,-52.91 14.46,-14.27 33.36,-21.4 52.22,-21.4 19.19,0 38.39,7.38 52.91,22.09 z m 38.84,182.7 -1.78,1.75 -19.13,-19.37 -1.75,-2.14 1.93,-1.58 1.33,2.12 c -13.39,8.35 -27.93,14.11 -42.91,17.26 l -0.52,-2.44 2.47,-0.41 c 0.15,0.91 0.26,1.88 0.26,2.92 v 0.2 l -0.3,27.11 c -0.12,9.75 -8.07,17.59 -17.8,17.6 h -0.22 0.02 l -27.1,-0.31 c -9.75,-0.12 -17.59,-8.06 -17.6,-17.79 l 0.01,-0.23 v 0.02 l 0.3,-27.1 c 0.01,-1.11 0.16,-2.14 0.33,-3.1 l 2.46,0.45 -0.57,2.43 c -14.51,-3.4 -28.55,-9.25 -41.46,-17.56 l 1.36,-2.1 1.91,1.61 -1.7,2.03 -0.08,0.09 -19.37,19.12 c -3.46,3.42 -8,5.13 -12.51,5.12 -4.58,0.01 -9.19,-1.76 -12.66,-5.28 l -19.04,-19.3 c -3.42,-3.45 -5.13,-7.99 -5.13,-12.5 0,-4.58 1.77,-9.19 5.29,-12.67 l 19.38,-19.12 2.14,-1.75 1.58,1.93 -2.12,1.33 c -8.36,-13.38 -14.11,-27.93 -17.27,-42.91 l 2.45,-0.52 0.41,2.47 c -0.94,0.16 -1.93,0.27 -2.97,0.27 l -0.19,-0.01 0.06,-2.5 -0.03,2.5 -27.1,-0.3 c -4.71,-0.05 -9.17,-1.94 -12.47,-5.29 l -0.04,-0.05 h -0.01 l -0.01,-0.01 c -3.27,-3.34 -5.07,-7.77 -5.07,-12.43 v -0.24 0.02 l 0.31,-27.1 2.5,0.02 v 2.5 h -0.01 -2.53 l 0.03,-2.53 c 0.12,-9.74 8.07,-17.58 17.79,-17.58 h 0.2 0.01 l 27.11,0.3 c 1.13,0.01 2.17,0.17 3.11,0.35 l -0.46,2.45 -2.44,-0.57 c 3.4,-14.51 9.25,-28.55 17.56,-41.46 l 2.1,1.35 -1.61,1.91 -2.02,-1.71 -0.09,-0.07 -19.12,-19.37 c -3.42,-3.46 -5.13,-8 -5.13,-12.51 0,-4.58 1.77,-9.19 5.29,-12.66 l 19.29,-19.04 c 3.46,-3.42 7.99,-5.13 12.5,-5.12 4.59,-0.01 9.2,1.77 12.67,5.29 l 19.12,19.37 1.76,2.14 -1.94,1.58 -1.32,-2.12 c 13.39,-8.36 27.93,-14.11 42.92,-17.27 l 0.51,2.45 -2.46,0.41 c -0.16,-0.91 -0.28,-1.9 -0.28,-2.98 V 2341 l 2.5,0.05 -2.5,-0.02 0.31,-27.11 c 0.05,-4.74 1.96,-9.22 5.35,-12.53 3.33,-3.26 7.77,-5.07 12.43,-5.06 h 0.21 l 27.11,0.3 c 4.87,0.06 9.28,2.08 12.45,5.29 3.18,3.21 5.14,7.64 5.14,12.5 v 0.2 l -0.3,27.11 c -0.02,1.13 -0.17,2.17 -0.35,3.11 l -2.46,-0.47 0.58,-2.43 c 14.51,3.4 28.55,9.26 41.46,17.56 l -1.36,2.1 -1.91,-1.61 1.71,-2.02 0.08,-0.09 19.37,-19.12 c 3.46,-3.42 7.99,-5.13 12.5,-5.13 4.58,0 9.19,1.77 12.67,5.3 l 19.04,19.28 c 3.41,3.46 5.12,8 5.12,12.5 0,4.59 -1.77,9.2 -5.29,12.67 l -19.37,19.12 -2.14,1.76 -1.59,-1.94 2.12,-1.32 c 8.36,13.39 14.12,27.93 17.27,42.92 l -2.44,0.51 -0.41,-2.46 c 0.91,-0.16 1.91,-0.28 2.98,-0.28 h 0.13 l 27.12,0.31 c 4.87,0.05 9.29,2.08 12.46,5.3 3.17,3.2 5.14,7.63 5.13,12.48 v 0.2 0.01 l -0.3,27.11 c -0.12,9.75 -8.06,17.59 -17.79,17.59 h -0.22 0.01 l -27.13,-0.3 h 0.02 c -1.09,-0.02 -2.13,-0.15 -3.11,-0.34 l 0.47,-2.45 2.43,0.57 c -3.4,14.51 -9.25,28.54 -17.56,41.45 l -2.1,-1.36 1.61,-1.91 2.03,1.71 0.09,0.08 19.12,19.37 c 3.41,3.46 5.12,7.99 5.12,12.5 0,4.59 -1.77,9.2 -5.28,12.67 l -19.3,19.04 c -3.46,3.41 -7.99,5.12 -12.5,5.12 -4.58,0 -9.19,-1.77 -12.66,-5.29 l 1.78,-1.75 1.78,-1.76 c 2.5,2.54 5.79,3.8 9.1,3.8 3.26,0 6.5,-1.22 8.99,-3.68 l 19.29,-19.04 c 2.54,-2.5 3.8,-5.79 3.8,-9.11 0,-3.26 -1.22,-6.49 -3.68,-8.99 l -18.96,-19.21 -1.94,-1.63 -1.68,-1.42 1.19,-1.85 c 7.99,-12.41 13.62,-25.92 16.89,-39.89 l 0.55,-2.33 2.35,0.45 2.26,0.25 27.11,0.3 v 0 h 0.13 c 6.98,0.01 12.72,-5.65 12.79,-12.65 l 0.3,-27.11 v 0.01 l 0.01,-0.16 c -0.01,-3.49 -1.41,-6.65 -3.7,-8.97 -2.3,-2.33 -5.45,-3.78 -8.95,-3.81 l -27.11,-0.31 h 0.02 -0.11 l -2.16,0.21 -2.37,0.39 -0.49,-2.34 c -3.04,-14.43 -8.58,-28.42 -16.62,-41.3 l -1.16,-1.87 3.66,-3 19.21,-18.96 c 2.53,-2.5 3.8,-5.79 3.8,-9.11 0,-3.25 -1.22,-6.49 -3.68,-8.98 l -19.04,-19.29 c -2.51,-2.54 -5.8,-3.8 -9.11,-3.81 -3.26,0.01 -6.5,1.23 -8.99,3.69 l -19.21,18.96 -1.64,1.93 -1.41,1.68 -1.85,-1.19 c -12.42,-7.98 -25.92,-13.62 -39.9,-16.89 l -2.33,-0.55 0.45,-2.36 0.26,-2.23 0.3,-27.1 v 0.01 -0.16 c 0,-3.5 -1.4,-6.66 -3.69,-8.98 -2.3,-2.32 -5.45,-3.77 -8.96,-3.81 l -27.1,-0.3 h -0.16 c -3.38,0 -6.51,1.27 -8.93,3.64 -2.46,2.4 -3.81,5.57 -3.86,9 l -0.3,27.12 v 0.02 0.06 l 0.21,2.16 0.39,2.36 -2.34,0.5 c -14.43,3.03 -28.42,8.57 -41.3,16.61 l -1.87,1.17 -3,-3.66 -18.96,-19.21 c -2.5,-2.54 -5.79,-3.8 -9.11,-3.8 -3.26,0 -6.49,1.22 -8.99,3.68 l -19.29,19.04 c -2.53,2.5 -3.79,5.79 -3.8,9.1 0.01,3.26 1.23,6.5 3.68,9 l 18.97,19.2 1.94,1.64 1.68,1.41 -1.19,1.85 c -8,12.42 -13.63,25.94 -16.9,39.9 l -0.54,2.34 -2.36,-0.45 -2.23,-0.26 -27.12,-0.3 h 0.01 -0.16 c -6.97,-0.01 -12.71,5.65 -12.79,12.64 l -2.5,-0.03 v -2.5 h 0.01 2.53 l -0.34,29.66 v 0 0.14 c 0,3.37 1.28,6.51 3.64,8.93 l -1.78,1.75 1.76,-1.77 0.06,0.05 0.01,0.02 c 2.4,2.42 5.54,3.76 8.96,3.8 l 27.13,0.3 h 0.01 l 0.07,0.01 2.15,-0.2 2.36,-0.39 0.49,2.34 c 3.05,14.42 8.58,28.41 16.62,41.29 l 1.17,1.87 -3.67,3 -19.21,18.95 c -2.53,2.51 -3.79,5.8 -3.8,9.11 0.01,3.26 1.23,6.5 3.69,8.99 l 19.03,19.29 c 2.51,2.54 5.8,3.8 9.11,3.8 3.26,0 6.5,-1.22 9,-3.68 l 19.2,-18.95 1.63,-1.94 1.42,-1.69 1.85,1.19 c 12.42,7.99 25.92,13.62 39.89,16.89 l 2.32,0.55 -0.43,2.34 -0.25,2.26 -0.31,27.1 v 0.01 0.14 c 0,6.98 5.66,12.72 12.66,12.79 l 27.12,0.31 v 0 h 0.12 c 6.98,0 12.72,-5.66 12.8,-12.66 l 0.3,-27.1 v -0.15 l -0.19,-2.1 -0.4,-2.36 2.35,-0.5 c 14.42,-3.04 28.41,-8.58 41.29,-16.62 l 1.86,-1.16 3,3.66 18.97,19.21 -1.78,1.76"
         style="fill:#a08bcd;fill-opacity:1;fill-rule:nonzero;stroke:none"
         transform="matrix(0.13333333,0,0,-0.13333333,0,663.65333)" />
      <path
         id="path131"
         d="M 504.73,2835.13 H 381.18 v 20.66 h 123.55 v -20.66"
         style="fill:#212c5a;fill-opacity:1;fill-rule:nonzero;stroke:none"
         transform="matrix(0.13333333,0,0,-0.13333333,0,663.65333)" />
      <path
         id="path132"
         d="M 870.93,2835.13 H 555.789 v 20.66 H 870.93 v -20.66"
         style="fill:#212c5a;fill-opacity:1;fill-rule:nonzero;stroke:none"
         transform="matrix(0.13333333,0,0,-0.13333333,0,663.65333)" />
      <path
         id="path133"
         d="M 870.93,2613.23 H 675.859 v 20.67 H 870.93 v -20.67"
         style="fill:#212c5a;fill-opacity:1;fill-rule:nonzero;stroke:none"
         transform="matrix(0.13333333,0,0,-0.13333333,0,663.65333)" />
      <path
         id="path134"
         d="M 624.809,2613.23 H 381.18 v 20.67 h 243.629 v -20.67"
         style="fill:#212c5a;fill-opacity:1;fill-rule:nonzero;stroke:none"
         transform="matrix(0.13333333,0,0,-0.13333333,0,663.65333)" />
      <path
         id="path135"
         d="M 652.762,2759.56 H 381.18 v 20.67 h 271.582 v -20.67"
         style="fill:#212c5a;fill-opacity:1;fill-rule:nonzero;stroke:none"
         transform="matrix(0.13333333,0,0,-0.13333333,0,663.65333)" />
      <path
         id="path136"
         d="M 870.93,2759.56 H 703.813 v 20.67 H 870.93 v -20.67"
         style="fill:#212c5a;fill-opacity:1;fill-rule:nonzero;stroke:none"
         transform="matrix(0.13333333,0,0,-0.13333333,0,663.65333)" />
      <path
         id="path137"
         d="M 592,2685.36 H 381.18 v 20.67 H 592 v -20.67"
         style="fill:#212c5a;fill-opacity:1;fill-rule:nonzero;stroke:none"
         transform="matrix(0.13333333,0,0,-0.13333333,0,663.65333)" />
      <path
         id="path138"
         d="M 870.93,2685.36 H 679.344 v 20.67 H 870.93 v -20.67"
         style="fill:#212c5a;fill-opacity:1;fill-rule:nonzero;stroke:none"
         transform="matrix(0.13333333,0,0,-0.13333333,0,663.65333)" />
      <path
         id="path139"
         d="m 655.637,2685.36 h -36.653 v 20.67 h 36.653 v -20.67"
         style="fill:#212c5a;fill-opacity:1;fill-rule:nonzero;stroke:none"
         transform="matrix(0.13333333,0,0,-0.13333333,0,663.65333)" />
      <path
         id="path140"
         d="m 3761,899.539 h -123.54 v 20.672 H 3761 v -20.672"
         style="fill:#212c5a;fill-opacity:1;fill-rule:nonzero;stroke:none"
         transform="matrix(0.13333333,0,0,-0.13333333,0,663.65333)" />
      <path
         id="path141"
         d="m 4127.2,899.539 h -315.14 v 20.672 h 315.14 v -20.672"
         style="fill:#212c5a;fill-opacity:1;fill-rule:nonzero;stroke:none"
         transform="matrix(0.13333333,0,0,-0.13333333,0,663.65333)" />
      <path
         id="path142"
         d="m 4127.2,677.66 h -195.07 v 20.66 h 195.07 v -20.66"
         style="fill:#212c5a;fill-opacity:1;fill-rule:nonzero;stroke:none"
         transform="matrix(0.13333333,0,0,-0.13333333,0,663.65333)" />
      <path
         id="path143"
         d="m 3881.07,677.66 h -243.61 v 20.66 h 243.61 v -20.66"
         style="fill:#212c5a;fill-opacity:1;fill-rule:nonzero;stroke:none"
         transform="matrix(0.13333333,0,0,-0.13333333,0,663.65333)" />
      <path
         id="path144"
         d="m 3909.03,823.969 h -271.57 v 20.679 h 271.57 v -20.679"
         style="fill:#212c5a;fill-opacity:1;fill-rule:nonzero;stroke:none"
         transform="matrix(0.13333333,0,0,-0.13333333,0,663.65333)" />
      <path
         id="path145"
         d="m 4127.2,823.969 h -167.11 v 20.679 h 167.11 v -20.679"
         style="fill:#212c5a;fill-opacity:1;fill-rule:nonzero;stroke:none"
         transform="matrix(0.13333333,0,0,-0.13333333,0,663.65333)" />
      <path
         id="path146"
         d="m 3848.28,749.781 h -210.82 v 20.668 h 210.82 v -20.668"
         style="fill:#212c5a;fill-opacity:1;fill-rule:nonzero;stroke:none"
         transform="matrix(0.13333333,0,0,-0.13333333,0,663.65333)" />
      <path
         id="path147"
         d="m 4127.2,749.781 h -191.59 v 20.668 h 191.59 v -20.668"
         style="fill:#212c5a;fill-opacity:1;fill-rule:nonzero;stroke:none"
         transform="matrix(0.13333333,0,0,-0.13333333,0,663.65333)" />
      <path
         id="path148"
         d="m 3911.9,749.781 h -36.65 v 20.668 h 36.65 v -20.668"
         style="fill:#212c5a;fill-opacity:1;fill-rule:nonzero;stroke:none"
         transform="matrix(0.13333333,0,0,-0.13333333,0,663.65333)" />
      <path
         id="path149"
         d="m 3805.1,3230.25 c -70.91,-15.18 -140.95,30.15 -156.14,101.06 -15.17,70.91 30.16,140.95 101.07,156.14 70.91,15.18 140.94,-30.16 156.13,-101.07 15.18,-70.91 -30.16,-140.95 -101.06,-156.13 z m 242.99,240.53 -48.51,-10.39 c -1.62,-0.34 -3.16,-0.85 -4.64,-1.45 -11.86,25.74 -28.01,48.72 -47.39,68.23 1.1,1.2 2.16,2.48 3.05,3.89 l 26.77,41.78 c 8.33,13 4.53,30.35 -8.48,38.68 l -41.77,26.77 c -13,8.33 -30.35,4.53 -38.68,-8.48 l -26.77,-41.78 c -0.9,-1.4 -1.61,-2.88 -2.25,-4.39 -25.13,9.2 -51.98,14.25 -79.54,14.51 -0.07,1.6 -0.23,3.21 -0.58,4.82 l -10.39,48.52 c -3.23,15.1 -18.14,24.75 -33.24,21.52 l -48.52,-10.39 c -15.1,-3.23 -24.75,-18.14 -21.52,-33.25 l 10.38,-48.51 c 0.36,-1.62 0.86,-3.16 1.46,-4.64 -25.74,-11.85 -48.71,-28 -68.23,-47.39 -1.2,1.11 -2.48,2.16 -3.89,3.06 l -41.78,26.77 c -6.26,4.01 -13.7,5.36 -20.96,3.8 l -0.13,-0.03 c -7.32,-1.6 -13.56,-5.95 -17.59,-12.25 l -26.77,-41.78 c -8.33,-13 -4.53,-30.35 8.47,-38.68 l 41.79,-26.77 c 1.41,-0.91 2.89,-1.61 4.39,-2.23 -9.2,-25.14 -14.25,-51.99 -14.51,-79.56 -1.6,-0.06 -3.2,-0.23 -4.82,-0.58 l -48.52,-10.39 c -15.1,-3.23 -24.76,-18.14 -21.52,-33.24 l 10.39,-48.52 c 3.23,-15.1 18.14,-24.75 33.24,-21.52 l 48.52,10.39 c 1.62,0.35 3.16,0.85 4.63,1.45 11.86,-25.74 28.02,-48.72 47.42,-68.24 -1.12,-1.19 -2.17,-2.45 -3.08,-3.87 l -26.77,-41.78 c -4.03,-6.3 -5.37,-13.8 -3.77,-21.1 1.6,-7.31 5.95,-13.56 12.25,-17.58 l 41.78,-26.78 c 6.46,-4.13 13.99,-5.28 20.96,-3.79 7.05,1.52 13.53,5.73 17.72,12.27 l 26.77,41.78 c 0.9,1.41 1.61,2.9 2.23,4.4 25.14,-9.21 51.99,-14.25 79.56,-14.52 0.06,-1.59 0.23,-3.2 0.58,-4.82 l 10.39,-48.52 c 3.23,-15.1 18.13,-24.75 33.24,-21.52 l 48.52,10.39 c 15.09,3.23 24.75,18.15 21.52,33.24 l -10.39,48.52 c -0.35,1.62 -0.85,3.16 -1.46,4.64 25.76,11.85 48.73,28.01 68.25,47.41 1.2,-1.11 2.46,-2.17 3.87,-3.08 l 41.78,-26.76 c 6.47,-4.14 14,-5.29 20.97,-3.79 7.05,1.51 13.53,5.72 17.71,12.26 l 26.78,41.78 c 8.32,13 4.52,30.36 -8.48,38.69 l -41.78,26.76 c -1.4,0.9 -2.88,1.62 -4.39,2.25 9.2,25.14 14.24,51.98 14.5,79.54 1.6,0.07 3.22,0.23 4.83,0.58 l 48.51,10.39 c 15.11,3.23 24.76,18.14 21.53,33.24 l -10.39,48.52 c -3.24,15.1 -18.15,24.75 -33.25,21.52"
         style="fill:#212c5a;fill-opacity:1;fill-rule:nonzero;stroke:none"
         transform="matrix(0.13333333,0,0,-0.13333333,0,663.65333)" />
      <text
         id="text149"
         xml:space="preserve"
         transform="matrix(1.3333333,0,0,1.3333333,378.8,212.58133)"><tspan
           id="tspan149"
           style="font-variant:normal;font-weight:bold;font-size:25px;font-family:Montserrat-Bold;writing-mode:lr-tb;fill:#ffffff;fill-opacity:1;fill-rule:nonzero;stroke:none"
           x="0"
           y="0">&lt;/&gt;</tspan><tspan
           id="tspan150"
           style="font-variant:normal;font-weight:bold;font-size:18px;font-family:Montserrat-Bold;writing-mode:lr-tb;fill:#ffffff;fill-opacity:1;fill-rule:nonzero;stroke:none"
           x="-208.099"
           y="257.67401">HTML</tspan><tspan
           id="tspan151"
           style="font-variant:normal;font-weight:bold;font-size:19.2946px;font-family:Montserrat-Bold;writing-mode:lr-tb;fill:#ffffff;fill-opacity:1;fill-rule:nonzero;stroke:none"
           x="-165.81619"
           y="105.372">JS</tspan><tspan
           id="tspan152"
           style="font-variant:normal;font-weight:bold;font-size:24.3464px;font-family:Montserrat-Bold;writing-mode:lr-tb;fill:#ffffff;fill-opacity:1;fill-rule:nonzero;stroke:none"
           x="15.0038"
           dx="0 -0.14672846 0.14602046"
           y="236.255">C++</tspan><tspan
           id="tspan153"
           style="font-variant:normal;font-weight:bold;font-size:18.2598px;font-family:Montserrat-Bold;writing-mode:lr-tb;fill:#ffffff;fill-opacity:1;fill-rule:nonzero;stroke:none"
           x="123.3238"
           dx="0 -0.27407229 -0.69399476 -0.69414079"
           y="125.681">JAVA</tspan></text>
    </g>
  </g>
</svg>
