<svg width="664" height="664" viewBox="0 0 664 664" fill="none" xmlns="http://www.w3.org/2000/svg">
<g clip-path="url(#clip0_58_160)">
<path d="M493.825 606.495C436.048 606.495 388.675 561.95 384.175 505.33H520.612C527.733 505.33 533.735 500.561 535.597 494.047H541.707C547.14 494.047 551.547 489.642 551.547 484.207V402.838C582.92 422.214 603.825 456.913 603.825 496.495C603.825 557.246 554.576 606.495 493.825 606.495Z" fill="#EEE7F5"/>
<path d="M128.78 419.669C89.0037 385.317 63.8252 334.51 63.8252 277.829C63.8252 174.368 147.697 90.4956 251.159 90.4956C329.316 90.4956 396.299 138.368 424.385 206.382H144.365C135.764 206.382 128.78 213.366 128.78 221.968V419.669Z" fill="#EEE7F5"/>
<path d="M579.611 309.544L579.16 309.052C575.438 312.462 570.739 314.143 566.048 314.143C560.782 314.143 555.538 312.024 551.711 307.844C548.302 304.122 546.62 299.424 546.62 294.734C546.62 289.467 548.74 284.223 552.919 280.395C556.643 276.986 561.34 275.306 566.031 275.304C571.298 275.306 576.542 277.424 580.37 281.603C583.778 285.327 585.459 290.024 585.459 294.715C585.459 299.982 583.339 305.226 579.16 309.052L579.611 309.544L580.062 310.036C584.526 305.948 586.794 300.336 586.792 294.715C586.794 289.707 584.994 284.679 581.352 280.703C577.264 276.238 571.654 273.971 566.031 273.971C561.023 273.971 555.995 275.771 552.019 279.412C547.554 283.5 545.286 289.111 545.287 294.734C545.286 299.74 547.086 304.768 550.727 308.746C554.815 313.21 560.426 315.478 566.048 315.476C571.056 315.478 576.084 313.678 580.06 310.036L579.611 309.544ZM593.042 259.056L592.591 258.564L587 263.684C586.78 263.887 586.591 264.102 586.423 264.32L586.952 264.726L587.334 264.179C583.716 261.658 579.739 259.846 575.6 258.752L575.43 259.398L576.082 259.539C576.139 259.271 576.187 258.983 576.2 258.676L576.496 251.099L576.5 250.903C576.499 248.262 574.411 246.07 571.751 245.963L564.173 245.664L563.979 245.66C561.338 245.662 559.144 247.751 559.039 250.412L558.74 257.988L558.736 258.148C558.736 258.398 558.759 258.635 558.79 258.858L559.451 258.767L559.331 258.111C555.234 258.855 551.232 260.291 547.512 262.427L547.844 263.004L548.406 262.646C548.259 262.416 548.09 262.184 547.887 261.963V261.964L542.767 256.372C541.794 255.308 540.454 254.767 539.118 254.768C537.926 254.767 536.726 255.198 535.779 256.064L530.188 261.184C529.124 262.158 528.583 263.496 528.584 264.834C528.583 266.024 529.014 267.226 529.88 268.172L535 273.763C535.202 273.983 535.418 274.172 535.635 274.34L536.042 273.812L535.495 273.431C532.972 277.048 531.162 281.024 530.068 285.163L530.712 285.334L530.854 284.682C530.586 284.624 530.299 284.578 529.992 284.564L522.414 284.267L522.216 284.263C520.98 284.262 519.796 284.72 518.88 285.56L518.868 285.571L518.846 285.595L519.316 286.067L518.864 285.576C517.896 286.47 517.33 287.699 517.279 289.015L516.98 296.603V296.618H517.647L516.982 296.591L516.978 296.787C516.978 299.427 519.067 301.62 521.728 301.726L529.304 302.024L529.455 302.027C529.71 302.027 529.95 302.003 530.174 301.972L530.082 301.312L529.426 301.431C530.171 305.53 531.607 309.531 533.742 313.252L534.32 312.92L533.963 312.358C533.731 312.506 533.499 312.676 533.28 312.876L527.688 317.998C526.624 318.971 526.083 320.31 526.084 321.646C526.083 322.838 526.514 324.038 527.38 324.984L532.5 330.576C533.474 331.639 534.812 332.18 536.15 332.18C537.34 332.18 538.542 331.751 539.488 330.884L545.079 325.763C545.299 325.563 545.49 325.347 545.656 325.128L545.128 324.723L544.747 325.27C548.366 327.792 552.343 329.604 556.482 330.696L556.652 330.051L556.001 329.908C555.944 330.171 555.892 330.459 555.88 330.776V330.774L555.583 338.348L555.579 338.55C555.578 339.795 556.044 340.984 556.894 341.9C557.786 342.868 559.015 343.435 560.331 343.486L567.906 343.783L568.1 343.787C569.38 343.787 570.556 343.295 571.437 342.488C572.376 341.63 572.988 340.406 573.043 339.035L573.34 331.459V331.456L573.343 331.316C573.343 331.058 573.319 330.816 573.288 330.591L572.628 330.682L572.747 331.338C576.844 330.594 580.847 329.156 584.567 327.022L584.236 326.443L583.673 326.803C583.821 327.034 583.992 327.264 584.194 327.484L589.314 333.076C590.287 334.139 591.626 334.68 592.962 334.68C594.154 334.68 595.354 334.251 596.3 333.384L601.892 328.263C602.955 327.291 603.496 325.951 603.496 324.615C603.496 323.423 603.067 322.223 602.2 321.276L597.079 315.684C596.878 315.466 596.663 315.275 596.443 315.107L596.037 315.636L596.584 316.018C599.108 312.399 600.919 308.422 602.012 304.282L601.367 304.112L601.224 304.763C601.49 304.822 601.776 304.871 602.09 304.884L609.666 305.182L609.86 305.186C611.139 305.186 612.318 304.694 613.198 303.886C614.136 303.028 614.748 301.803 614.801 300.434L615.1 292.858L615.103 292.664C615.103 290.022 613.012 287.828 610.352 287.722L602.775 287.424L602.612 287.422C602.366 287.422 602.129 287.443 601.907 287.472L601.996 288.134L602.652 288.015C601.908 283.918 600.472 279.916 598.337 276.196L597.759 276.528L598.118 277.09C598.348 276.943 598.58 276.774 598.8 276.571L604.392 271.451C605.455 270.478 605.998 269.139 605.996 267.802C605.996 266.611 605.567 265.41 604.7 264.464L599.579 258.872C598.606 257.808 597.267 257.267 595.93 257.268C594.739 257.267 593.538 257.698 592.591 258.564L593.042 259.056L593.492 259.548C594.186 258.914 595.056 258.602 595.93 258.602C596.912 258.602 597.884 258.995 598.595 259.772L603.716 265.364C604.351 266.058 604.662 266.927 604.663 267.802C604.662 268.783 604.27 269.755 603.491 270.467L597.9 275.588C597.748 275.727 597.582 275.851 597.4 275.967L596.864 276.308L597.18 276.86C599.239 280.446 600.623 284.302 601.34 288.252L601.454 288.879L602.084 288.795C602.268 288.77 602.444 288.755 602.612 288.755L602.722 288.756L610.299 289.054C612.239 289.128 613.771 290.738 613.77 292.664L613.767 292.806L613.47 300.382C613.43 301.384 612.986 302.272 612.298 302.902C611.651 303.495 610.795 303.852 609.86 303.852L609.718 303.85L602.142 303.551C601.94 303.543 601.732 303.51 601.51 303.46L600.886 303.324L600.723 303.942C599.67 307.934 597.923 311.767 595.491 315.255L595.126 315.778L595.632 316.166C595.8 316.295 595.955 316.432 596.096 316.586L601.216 322.176C601.851 322.87 602.162 323.74 602.163 324.615C602.162 325.596 601.77 326.568 600.991 327.28L595.4 332.4C594.707 333.035 593.836 333.346 592.962 333.347C591.98 333.346 591.008 332.954 590.296 332.176L585.176 326.584C585.038 326.432 584.912 326.264 584.798 326.084L584.455 325.55L583.904 325.866C580.317 327.923 576.46 329.308 572.508 330.026L571.88 330.139L571.967 330.771C571.994 330.962 572.01 331.142 572.01 331.316L572.008 331.41V331.407L571.71 338.983C571.671 339.986 571.225 340.874 570.537 341.504C569.889 342.096 569.035 342.454 568.1 342.454L567.958 342.451L560.383 342.154C559.415 342.114 558.53 341.707 557.872 340.996C557.248 340.319 556.912 339.463 556.912 338.55L556.915 338.402L557.214 330.826V330.823C557.22 330.626 557.254 330.418 557.303 330.195L557.44 329.57L556.823 329.407C552.831 328.354 548.998 326.607 545.508 324.176L544.987 323.812L544.599 324.316C544.47 324.486 544.331 324.64 544.179 324.779L538.587 329.9C537.894 330.535 537.023 330.846 536.15 330.847C535.168 330.846 534.196 330.454 533.484 329.676L528.364 324.084C527.73 323.391 527.418 322.52 527.418 321.646C527.418 320.664 527.811 319.694 528.588 318.98L534.179 313.86C534.331 313.722 534.499 313.598 534.678 313.483L535.215 313.142L534.899 312.588C532.84 309.002 531.456 305.146 530.738 301.192L530.624 300.564L529.991 300.651C529.804 300.678 529.626 300.694 529.455 300.694L529.356 300.692L521.78 300.394C519.84 300.319 518.31 298.711 518.311 296.787L518.314 296.643V296.63V296.628L518.611 289.067C518.65 288.098 519.058 287.215 519.768 286.556L519.779 286.547L519.802 286.523L519.331 286.052L519.782 286.544C520.456 285.927 521.307 285.598 522.216 285.596L522.362 285.599L529.939 285.896C530.142 285.904 530.352 285.938 530.571 285.986L531.194 286.12L531.356 285.504C532.411 281.514 534.158 277.68 536.588 274.194L536.952 273.671L536.448 273.283C536.278 273.152 536.123 273.015 535.984 272.863L530.864 267.271C530.23 266.578 529.918 265.707 529.918 264.834C529.918 263.852 530.311 262.88 531.088 262.168L536.679 257.048C537.372 256.414 538.243 256.102 539.118 256.102C540.099 256.102 541.071 256.495 541.783 257.272L546.904 262.864L546.906 262.866C547.043 263.015 547.166 263.182 547.282 263.364L547.624 263.899L548.175 263.583C551.762 261.526 555.618 260.14 559.57 259.423L560.198 259.308L560.111 258.676C560.086 258.492 560.07 258.316 560.07 258.148L560.072 258.043L560.371 250.466C560.445 248.524 562.054 246.994 563.979 246.994L564.122 246.998L571.698 247.295C573.638 247.37 575.168 248.979 575.167 250.903L575.164 251.047L574.868 258.623V258.622C574.859 258.824 574.827 259.034 574.779 259.255L574.643 259.879L575.259 260.042C579.251 261.096 583.084 262.842 586.571 265.272L587.092 265.638L587.48 265.132C587.61 264.963 587.748 264.808 587.9 264.668L593.492 259.548L593.042 259.056Z" fill="#212C5A"/>
<path d="M84.0407 344.182H77.4745C76.9303 344.182 76.4885 343.741 76.4885 343.197C76.4885 342.653 76.9303 342.211 77.4745 342.211H84.0407C84.5844 342.211 85.0255 342.653 85.0255 343.197C85.0255 343.741 84.5844 344.182 84.0407 344.182ZM97.1746 344.182H90.6073C90.0636 344.182 89.6224 343.741 89.6224 343.197C89.6224 342.653 90.0636 342.211 90.6073 342.211H97.1746C97.7178 342.211 98.1588 342.653 98.1588 343.197C98.1588 343.741 97.7178 344.182 97.1746 344.182ZM110.307 344.182H103.741C103.197 344.182 102.756 343.741 102.756 343.197C102.756 342.653 103.197 342.211 103.741 342.211H110.307C110.851 342.211 111.292 342.653 111.292 343.197C111.292 343.741 110.851 344.182 110.307 344.182ZM123.441 344.182H116.873C116.33 344.182 115.889 343.741 115.889 343.197C115.889 342.653 116.33 342.211 116.873 342.211H123.441C123.984 342.211 124.425 342.653 124.425 343.197C124.425 343.741 123.984 344.182 123.441 344.182ZM136.573 344.182H130.007C129.464 344.182 129.022 343.741 129.022 343.197C129.022 342.653 129.464 342.211 130.007 342.211H136.573C137.117 342.211 137.559 342.653 137.559 343.197C137.559 343.741 137.117 344.182 136.573 344.182ZM149.707 344.182H143.14C142.596 344.182 142.156 343.741 142.156 343.197C142.156 342.653 142.596 342.211 143.14 342.211H149.707C150.251 342.211 150.692 342.653 150.692 343.197C150.692 343.741 150.251 344.182 149.707 344.182ZM162.84 344.182H156.273C155.729 344.182 155.288 343.741 155.288 343.197C155.288 342.653 155.729 342.211 156.273 342.211H162.84C163.384 342.211 163.824 342.653 163.824 343.197C163.824 343.741 163.384 344.182 162.84 344.182ZM175.973 344.182H169.407C168.863 344.182 168.421 343.741 168.421 343.197C168.421 342.653 168.863 342.211 169.407 342.211H175.973C176.517 342.211 176.959 342.653 176.959 343.197C176.959 343.741 176.517 344.182 175.973 344.182ZM189.107 344.182H182.54C181.996 344.182 181.555 343.741 181.555 343.197C181.555 342.653 181.996 342.211 182.54 342.211H189.107C189.651 342.211 190.092 342.653 190.092 343.197C190.092 343.741 189.651 344.182 189.107 344.182ZM202.24 344.182H195.673C195.129 344.182 194.688 343.741 194.688 343.197C194.688 342.653 195.129 342.211 195.673 342.211H202.24C202.784 342.211 203.224 342.653 203.224 343.197C203.224 343.741 202.784 344.182 202.24 344.182ZM215.373 344.182H208.807C208.263 344.182 207.821 343.741 207.821 343.197C207.821 342.653 208.263 342.211 208.807 342.211H215.373C215.916 342.211 216.357 342.653 216.357 343.197C216.357 343.741 215.916 344.182 215.373 344.182ZM228.505 344.182H221.939C221.396 344.182 220.955 343.741 220.955 343.197C220.955 342.653 221.396 342.211 221.939 342.211H228.505C229.049 342.211 229.491 342.653 229.491 343.197C229.491 343.741 229.049 344.182 228.505 344.182ZM64.8568 347.193C64.5099 347.193 64.1745 347.011 63.9948 346.687C63.7303 346.211 63.9011 345.611 64.3765 345.349C66.3735 344.239 68.5115 343.41 70.7312 342.883C71.2667 342.761 71.7918 343.086 71.9172 343.615C72.0427 344.145 71.7151 344.675 71.186 344.801C69.1417 345.285 67.1729 346.047 65.3339 347.07C65.1817 347.154 65.0183 347.193 64.8568 347.193ZM55.6312 356.309C55.4656 356.309 55.2979 356.267 55.1437 356.181C54.6713 355.91 54.5079 355.307 54.7771 354.837C55.9068 352.858 57.3036 351.041 58.9287 349.435C59.3156 349.054 59.9391 349.057 60.3213 349.443C60.7036 349.831 60.7011 350.454 60.3136 350.837C58.8156 352.317 57.5276 353.991 56.488 355.813C56.3057 356.131 55.974 356.309 55.6312 356.309ZM52.476 368.887C51.9317 368.887 51.4912 368.446 51.4912 367.903V367.238C51.4912 365.181 51.7412 363.134 52.2349 361.158C52.3672 360.63 52.912 360.309 53.4287 360.441C53.9573 360.573 54.2787 361.107 54.1464 361.634C53.6917 363.457 53.4604 365.342 53.4604 367.238V367.903C53.4604 368.446 53.0197 368.887 52.476 368.887ZM52.476 382.021C51.9317 382.021 51.4912 381.579 51.4912 381.035V374.469C51.4912 373.925 51.9317 373.483 52.476 373.483C53.0197 373.483 53.4604 373.925 53.4604 374.469V381.035C53.4604 381.579 53.0197 382.021 52.476 382.021ZM52.476 395.154C51.9317 395.154 51.4912 394.713 51.4912 394.169V387.602C51.4912 387.058 51.9317 386.618 52.476 386.618C53.0197 386.618 53.4604 387.058 53.4604 387.602V394.169C53.4604 394.713 53.0197 395.154 52.476 395.154ZM52.476 408.287C51.9317 408.287 51.4912 407.846 51.4912 407.302V400.735C51.4912 400.191 51.9317 399.75 52.476 399.75C53.0197 399.75 53.4604 400.191 53.4604 400.735V407.302C53.4604 407.846 53.0197 408.287 52.476 408.287ZM52.476 421.419C51.9317 421.419 51.4912 420.979 51.4912 420.435V413.869C51.4912 413.325 51.9317 412.883 52.476 412.883C53.0197 412.883 53.4604 413.325 53.4604 413.869V420.435C53.4604 420.979 53.0197 421.419 52.476 421.419ZM52.476 434.554C51.9317 434.554 51.4912 434.113 51.4912 433.569V427.002C51.4912 426.458 51.9317 426.017 52.476 426.017C53.0197 426.017 53.4604 426.458 53.4604 427.002V433.569C53.4604 434.113 53.0197 434.554 52.476 434.554ZM52.476 447.687C51.9317 447.687 51.4912 447.245 51.4912 446.701V440.134C51.4912 439.591 51.9317 439.15 52.476 439.15C53.0197 439.15 53.4604 439.591 53.4604 440.134V446.701C53.4604 447.245 53.0197 447.687 52.476 447.687ZM52.476 460.819C51.9317 460.819 51.4912 460.378 51.4912 459.835V453.269C51.4912 452.725 51.9317 452.283 52.476 452.283C53.0197 452.283 53.4604 452.725 53.4604 453.269V459.835C53.4604 460.378 53.0197 460.819 52.476 460.819ZM52.476 473.954C51.9317 473.954 51.4912 473.513 51.4912 472.967V466.402C51.4912 465.857 51.9317 465.415 52.476 465.415C53.0197 465.415 53.4604 465.857 53.4604 466.402V472.967C53.4604 473.513 53.0197 473.954 52.476 473.954ZM52.476 487.086C51.9317 487.086 51.4912 486.645 51.4912 486.101V479.534C51.4912 478.991 51.9317 478.55 52.476 478.55C53.0197 478.55 53.4604 478.991 53.4604 479.534V486.101C53.4604 486.645 53.0197 487.086 52.476 487.086ZM52.476 500.219C51.9317 500.219 51.4912 499.778 51.4912 499.235V492.669C51.4912 492.125 51.9317 491.683 52.476 491.683C53.0197 491.683 53.4604 492.125 53.4604 492.669V499.235C53.4604 499.778 53.0197 500.219 52.476 500.219ZM52.476 513.353C51.9317 513.353 51.4912 512.911 51.4912 512.367V505.801C51.4912 505.257 51.9317 504.815 52.476 504.815C53.0197 504.815 53.4604 505.257 53.4604 505.801V512.367C53.4604 512.911 53.0197 513.353 52.476 513.353ZM52.476 526.486C51.9317 526.486 51.4912 526.045 51.4912 525.501V518.934C51.4912 518.391 51.9317 517.95 52.476 517.95C53.0197 517.95 53.4604 518.391 53.4604 518.934V525.501C53.4604 526.045 53.0197 526.486 52.476 526.486ZM54.8656 539.256C54.4984 539.256 54.1473 539.051 53.976 538.698C52.9844 536.64 52.2771 534.459 51.8787 532.217C51.7839 531.681 52.1407 531.169 52.676 531.075C53.2084 530.985 53.7229 531.335 53.8177 531.871C54.186 533.938 54.836 535.946 55.7516 537.842C55.9875 538.333 55.7823 538.921 55.2927 539.157C55.1541 539.225 55.0088 539.256 54.8656 539.256ZM63.4484 548.978C63.2645 548.978 63.0792 548.926 62.9131 548.819C61.0036 547.58 59.2672 546.083 57.7536 544.371C57.3943 543.965 57.4333 543.342 57.8412 542.981C58.2464 542.622 58.8697 542.658 59.2307 543.068C60.6255 544.646 62.2245 546.025 63.9855 547.166C64.4427 547.463 64.5713 548.073 64.2751 548.529C64.0869 548.819 63.7713 548.978 63.4484 548.978ZM75.8297 552.826H75.8031C73.5136 552.762 71.2527 552.389 69.0812 551.714C68.5615 551.551 68.2719 551.001 68.4333 550.48C68.5948 549.963 69.1417 549.671 69.6656 549.833C71.6651 550.454 73.7484 550.798 75.8579 550.857C76.4011 550.871 76.8307 551.326 76.8145 551.869C76.7989 552.404 76.3625 552.826 75.8297 552.826ZM88.9636 552.837H82.3964C81.8527 552.837 81.4115 552.395 81.4115 551.851C81.4115 551.307 81.8527 550.866 82.3964 550.866H88.9636C89.5068 550.866 89.9484 551.307 89.9484 551.851C89.9484 552.395 89.5068 552.837 88.9636 552.837ZM102.096 552.837H95.5298C94.986 552.837 94.5448 552.395 94.5448 551.851C94.5448 551.307 94.986 550.866 95.5298 550.866H102.096C102.641 550.866 103.081 551.307 103.081 551.851C103.081 552.395 102.641 552.837 102.096 552.837ZM115.23 552.837H108.663C108.119 552.837 107.678 552.395 107.678 551.851C107.678 551.307 108.119 550.866 108.663 550.866H115.23C115.773 550.866 116.215 551.307 116.215 551.851C116.215 552.395 115.773 552.837 115.23 552.837ZM128.363 552.837H121.796C121.253 552.837 120.811 552.395 120.811 551.851C120.811 551.307 121.253 550.866 121.796 550.866H128.363C128.907 550.866 129.347 551.307 129.347 551.851C129.347 552.395 128.907 552.837 128.363 552.837ZM141.496 552.837H134.929C134.385 552.837 133.944 552.395 133.944 551.851C133.944 551.307 134.385 550.866 134.929 550.866H141.496C142.04 550.866 142.481 551.307 142.481 551.851C142.481 552.395 142.04 552.837 141.496 552.837ZM151.008 552.837H148.063C147.519 552.837 147.077 552.395 147.077 551.851C147.077 551.307 147.519 550.866 148.063 550.866H151.008C151.552 550.866 151.993 551.307 151.993 551.851C151.993 552.395 151.552 552.837 151.008 552.837Z" fill="#A08BCD"/>
<path d="M56.7674 447.815C56.7674 450.187 54.8466 452.107 52.4757 452.107C50.1054 452.107 48.1841 450.187 48.1841 447.815C48.1841 445.446 50.1054 443.523 52.4757 443.523C54.8466 443.523 56.7674 445.446 56.7674 447.815Z" fill="#A08BCD"/>
<path d="M52.4759 440.757C48.5838 440.757 45.4171 443.923 45.4171 447.815C45.4171 451.709 48.5838 454.875 52.4759 454.875C56.3687 454.875 59.5348 451.709 59.5348 447.815C59.5348 443.923 56.3687 440.757 52.4759 440.757ZM52.4759 455.859C48.0406 455.859 44.4316 452.251 44.4316 447.815C44.4316 443.381 48.0406 439.771 52.4759 439.771C56.9114 439.771 60.5196 443.381 60.5196 447.815C60.5196 452.251 56.9114 455.859 52.4759 455.859Z" fill="#A08BCD"/>
<path d="M319.59 99.994H311.601C310.94 99.994 310.404 99.4567 310.404 98.7954C310.404 98.134 310.94 97.5967 311.601 97.5967H319.59C320.253 97.5967 320.789 98.134 320.789 98.7954C320.789 99.4567 320.253 99.994 319.59 99.994ZM335.57 99.994H327.58C326.918 99.994 326.381 99.4567 326.381 98.7954C326.381 98.134 326.918 97.5967 327.58 97.5967H335.57C336.232 97.5967 336.768 98.134 336.768 98.7954C336.768 99.4567 336.232 99.994 335.57 99.994ZM351.549 99.994H343.56C342.898 99.994 342.36 99.4567 342.36 98.7954C342.36 98.134 342.898 97.5967 343.56 97.5967H351.549C352.21 97.5967 352.746 98.134 352.746 98.7954C352.746 99.4567 352.21 99.994 351.549 99.994ZM367.528 99.994H359.538C358.877 99.994 358.34 99.4567 358.34 98.7954C358.34 98.134 358.877 97.5967 359.538 97.5967H367.528C368.189 97.5967 368.726 98.134 368.726 98.7954C368.726 99.4567 368.189 99.994 367.528 99.994ZM295.694 100.863C295.157 100.863 294.669 100.499 294.533 99.9553C294.373 99.3127 294.762 98.662 295.406 98.502C297.81 97.902 300.298 97.5967 302.804 97.5967H303.612C304.273 97.5967 304.81 98.134 304.81 98.7954C304.81 99.4567 304.273 99.994 303.612 99.994H302.804C300.496 99.994 298.202 100.274 295.986 100.827L295.694 100.863ZM383.148 102.542C382.984 102.542 382.817 102.509 382.657 102.437C380.324 101.391 377.856 100.671 375.326 100.297C374.672 100.199 374.218 99.59 374.316 98.9353C374.412 98.2807 375.017 97.8154 375.677 97.926C378.424 98.3314 381.102 99.114 383.637 100.25C384.241 100.521 384.512 101.23 384.241 101.834C384.041 102.278 383.605 102.542 383.148 102.542ZM281.997 108.686C281.692 108.686 281.388 108.57 281.154 108.339C280.684 107.875 280.68 107.117 281.145 106.645C283.1 104.667 285.309 102.969 287.715 101.594C288.287 101.265 289.02 101.466 289.35 102.039C289.677 102.614 289.477 103.346 288.904 103.675C286.688 104.941 284.652 106.507 282.849 108.33C282.615 108.567 282.305 108.686 281.997 108.686ZM395.274 112.642C394.893 112.642 394.517 112.462 394.286 112.126C392.83 110.018 391.096 108.122 389.132 106.485C388.625 106.062 388.554 105.306 388.978 104.797C389.404 104.287 390.157 104.221 390.668 104.643C392.797 106.419 394.678 108.477 396.258 110.762C396.634 111.306 396.498 112.053 395.954 112.429C395.746 112.573 395.508 112.642 395.274 112.642ZM274.341 122.482L274.064 122.45C273.418 122.297 273.021 121.651 273.174 121.007C273.814 118.303 274.824 115.702 276.173 113.275C276.493 112.697 277.225 112.487 277.802 112.811C278.381 113.133 278.589 113.863 278.268 114.441C277.024 116.675 276.096 119.07 275.505 121.559C275.376 122.111 274.884 122.482 274.341 122.482ZM400.384 127.561C399.753 127.561 399.225 127.067 399.188 126.43C399.044 123.87 398.55 121.349 397.724 118.937C397.51 118.311 397.844 117.63 398.469 117.414C399.089 117.202 399.778 117.533 399.99 118.161C400.89 120.778 401.425 123.515 401.582 126.294C401.621 126.955 401.114 127.521 400.454 127.559L400.384 127.561ZM273.553 138.398C272.892 138.398 272.354 137.861 272.354 137.199V129.21C272.354 128.549 272.892 128.011 273.553 128.011C274.214 128.011 274.752 128.549 274.752 129.21V137.199C274.752 137.861 274.214 138.398 273.553 138.398ZM400.436 143.538C399.774 143.538 399.238 143.001 399.238 142.339V134.35C399.238 133.689 399.774 133.151 400.436 133.151C401.097 133.151 401.633 133.689 401.633 134.35V142.339C401.633 143.001 401.097 143.538 400.436 143.538ZM273.553 154.377C272.892 154.377 272.354 153.839 272.354 153.178V145.189C272.354 144.527 272.892 143.991 273.553 143.991C274.214 143.991 274.752 144.527 274.752 145.189V153.178C274.752 153.839 274.214 154.377 273.553 154.377ZM400.436 159.517C399.774 159.517 399.238 158.981 399.238 158.318V150.329C399.238 149.667 399.774 149.131 400.436 149.131C401.097 149.131 401.633 149.667 401.633 150.329V158.318C401.633 158.981 401.097 159.517 400.436 159.517ZM273.553 170.355C272.892 170.355 272.354 169.819 272.354 169.158V161.167C272.354 160.506 272.892 159.969 273.553 159.969C274.214 159.969 274.752 160.506 274.752 161.167V169.158C274.752 169.819 274.214 170.355 273.553 170.355ZM400.436 175.495C399.774 175.495 399.238 174.959 399.238 174.298V166.307C399.238 165.646 399.774 165.109 400.436 165.109C401.097 165.109 401.633 165.646 401.633 166.307V174.298C401.633 174.959 401.097 175.495 400.436 175.495ZM273.553 186.334C272.892 186.334 272.354 185.798 272.354 185.135V177.146C272.354 176.485 272.892 175.949 273.553 175.949C274.214 175.949 274.752 176.485 274.752 177.146V185.135C274.752 185.798 274.214 186.334 273.553 186.334ZM400.436 191.474C399.774 191.474 399.238 190.938 399.238 190.277V182.287C399.238 181.625 399.774 181.089 400.436 181.089C401.097 181.089 401.633 181.625 401.633 182.287V190.277C401.633 190.938 401.097 191.474 400.436 191.474ZM273.553 202.314C272.892 202.314 272.354 201.777 272.354 201.115V193.126C272.354 192.465 272.892 191.927 273.553 191.927C274.214 191.927 274.752 192.465 274.752 193.126V201.115C274.752 201.777 274.214 202.314 273.553 202.314ZM400.436 207.454C399.774 207.454 399.238 206.917 399.238 206.255V198.266C399.238 197.605 399.774 197.067 400.436 197.067C401.097 197.067 401.633 197.605 401.633 198.266V206.255C401.633 206.917 401.097 207.454 400.436 207.454ZM273.553 218.293C272.892 218.293 272.354 217.755 272.354 217.094V209.105C272.354 208.442 272.892 207.906 273.553 207.906C274.214 207.906 274.752 208.442 274.752 209.105V217.094C274.752 217.755 274.214 218.293 273.553 218.293ZM400.436 219.878C399.774 219.878 399.238 219.341 399.238 218.679V214.245C399.238 213.583 399.774 213.046 400.436 213.046C401.097 213.046 401.633 213.583 401.633 214.245V218.679C401.633 219.341 401.097 219.878 400.436 219.878ZM273.553 234.271C272.892 234.271 272.354 233.734 272.354 233.073V225.083C272.354 224.422 272.892 223.885 273.553 223.885C274.214 223.885 274.752 224.422 274.752 225.083V233.073C274.752 233.734 274.214 234.271 273.553 234.271ZM273.553 250.25C272.892 250.25 272.354 249.714 272.354 249.051V241.062C272.354 240.401 272.892 239.863 273.553 239.863C274.214 239.863 274.752 240.401 274.752 241.062V249.051C274.752 249.714 274.214 250.25 273.553 250.25ZM273.553 266.229C272.892 266.229 272.354 265.691 272.354 265.03V257.041C272.354 256.379 272.892 255.843 273.553 255.843C274.214 255.843 274.752 256.379 274.752 257.041V265.03C274.752 265.691 274.214 266.229 273.553 266.229ZM273.553 282.207C272.892 282.207 272.354 281.671 272.354 281.01V273.021C272.354 272.358 272.892 271.822 273.553 271.822C274.214 271.822 274.752 272.358 274.752 273.021V281.01C274.752 281.671 274.214 282.207 273.553 282.207ZM273.553 298.187C272.892 298.187 272.354 297.65 272.354 296.989V288.999C272.354 288.337 272.892 287.801 273.553 287.801C274.214 287.801 274.752 288.337 274.752 288.999V296.989C274.752 297.65 274.214 298.187 273.553 298.187ZM273.553 314.166C272.892 314.166 272.354 313.629 272.354 312.967V304.978C272.354 304.317 272.892 303.779 273.553 303.779C274.214 303.779 274.752 304.317 274.752 304.978V312.967C274.752 313.629 274.214 314.166 273.553 314.166Z" fill="#A08BCD"/>
<path d="M336.995 103.298C339.482 103.298 341.498 101.282 341.498 98.7952C341.498 96.3085 339.482 94.2925 336.995 94.2925C334.51 94.2925 332.492 96.3085 332.492 98.7952C332.492 101.282 334.51 103.298 336.995 103.298Z" fill="#A08BCD"/>
<path d="M336.995 91.3904C332.911 91.3904 329.589 94.713 329.589 98.7957C329.589 102.88 332.911 106.201 336.995 106.201C341.077 106.201 344.401 102.88 344.401 98.7957C344.401 94.713 341.077 91.3904 336.995 91.3904ZM336.995 107.234C332.341 107.234 328.556 103.449 328.556 98.7957C328.556 94.1424 332.341 90.357 336.995 90.357C341.647 90.357 345.433 94.1424 345.433 98.7957C345.433 103.449 341.647 107.234 336.995 107.234Z" fill="#A08BCD"/>
<path d="M342.375 176.924H265.103V163.714H342.375V176.924Z" fill="#B7B9B7"/>
<path d="M404.802 158.742H349.568C345.548 158.742 341.734 160.092 339.149 162.429L324.144 173.657H265.032C262.56 173.657 260.557 175.66 260.557 178.132V259.949C260.557 262.42 262.56 264.424 265.032 264.424H409.064C411.534 264.424 413.538 262.42 413.538 259.949V180.901V178.132V168.685C413.538 163.43 409.628 158.742 404.802 158.742Z" fill="#FAB743"/>
<path d="M158.473 482.503L158.009 482.024C152.273 487.584 144.851 490.35 137.428 490.351C129.698 490.35 121.983 487.35 116.192 481.378C110.631 475.64 107.866 468.218 107.866 460.796C107.866 453.066 110.866 445.351 116.84 439.559C122.575 433.999 129.998 431.234 137.42 431.232C145.149 431.234 152.865 434.234 158.656 440.207C164.217 445.943 166.981 453.366 166.983 460.787C166.981 468.518 163.983 476.232 158.009 482.024L158.473 482.503L158.937 482.982C165.179 476.93 168.317 468.86 168.316 460.787C168.316 453.036 165.424 445.272 159.613 439.279C153.563 433.038 145.492 429.899 137.42 429.899C129.669 429.899 121.904 432.792 115.911 438.602C109.67 444.652 106.531 452.723 106.532 460.796C106.531 468.547 109.425 476.312 115.235 482.306C121.285 488.547 129.356 491.684 137.428 491.684C145.179 491.684 152.945 488.791 158.937 482.982L158.473 482.503ZM176.513 405.982L176.049 405.503L167.856 413.446C167.552 413.742 167.288 414.058 167.053 414.382L167.595 414.772L167.96 414.215C162.444 410.598 156.42 408.06 150.187 406.602L150.035 407.25L150.691 407.374C150.764 406.979 150.82 406.564 150.824 406.127L150.948 394.718V394.642C150.947 390.758 147.813 387.58 143.919 387.536L132.51 387.412H132.433C128.549 387.414 125.372 390.547 125.329 394.442L125.206 405.851L125.206 405.916C125.206 406.328 125.251 406.722 125.313 407.096L125.97 406.988L125.833 406.336C119.737 407.623 113.817 409.94 108.346 413.291L108.694 413.859L109.246 413.486C109.023 413.155 108.77 412.831 108.473 412.526H108.473L100.531 404.334C99.1407 402.899 97.2818 402.176 95.4282 402.178C93.6484 402.176 91.8604 402.843 90.4839 404.178L82.2922 412.12C80.8574 413.511 80.135 415.37 80.1355 417.223C80.135 419.003 80.8011 420.791 82.1364 422.167L90.0787 430.36C90.3751 430.666 90.6912 430.928 91.0131 431.162L91.4042 430.622L90.8464 430.256C87.2303 435.771 84.6918 441.795 83.2334 448.03L83.8823 448.182L84.0047 447.526C83.6115 447.452 83.197 447.396 82.7599 447.392L71.3162 447.268H71.3522H71.2735C69.4203 447.267 67.6599 447.979 66.3287 449.272L66.3214 449.278L66.2927 449.308L66.7714 449.772L66.3052 449.296C64.9506 450.619 64.1886 452.404 64.1698 454.298L64.047 465.707L64.7136 465.714V465.047H64.7126H64.0531L64.0459 465.707V465.783C64.047 469.667 67.1807 472.844 71.0746 472.887L82.4839 473.011H82.485H82.5402C82.9599 473.011 83.3563 472.963 83.7312 472.899L83.6203 472.243L82.9678 472.38C84.2547 478.478 86.5724 484.398 89.9235 489.871L90.4922 489.522L90.1178 488.971C89.7896 489.194 89.464 489.446 89.1584 489.743L80.9667 497.686C79.5323 499.076 78.8099 500.934 78.8104 502.787C78.8099 504.567 79.476 506.355 80.8115 507.732L88.7531 515.924C90.1438 517.359 92.0027 518.082 93.8563 518.08C95.636 518.082 97.424 517.415 98.8006 516.08L107.025 508.107L106.993 508.138C107.297 507.842 107.56 507.526 107.794 507.204L107.254 506.812L106.889 507.37C112.406 510.987 118.431 513.526 124.666 514.984L124.818 514.335L124.163 514.211C124.089 514.599 124.029 515.012 124.025 515.456L123.902 526.866L123.901 526.946C123.9 528.81 124.621 530.579 125.929 531.912C127.252 533.266 129.036 534.028 130.93 534.047L142.339 534.17L142.347 533.503H141.68V533.504V534.164L142.34 534.171H142.413C144.331 534.171 146.079 533.404 147.359 532.164C148.672 530.894 149.499 529.112 149.52 527.142L149.644 515.732V515.678C149.644 515.256 149.595 514.86 149.532 514.486L148.875 514.596L149.012 515.248C155.109 513.962 161.031 511.643 166.503 508.292L166.155 507.724L165.604 508.099C165.827 508.427 166.079 508.751 166.375 509.058L174.317 517.25C175.708 518.684 177.567 519.407 179.42 519.406C181.2 519.407 182.988 518.74 184.365 517.404L192.557 509.463C193.992 508.072 194.715 506.215 194.713 504.36C194.715 502.58 194.048 500.792 192.712 499.416L184.771 491.223C184.475 490.918 184.157 490.655 183.836 490.422L183.444 490.962L184.001 491.327C187.619 485.811 190.159 479.786 191.616 473.55L190.967 473.399L190.841 474.054C191.232 474.128 191.647 474.187 192.089 474.191L203.497 474.315H203.577C205.492 474.316 207.24 473.55 208.519 472.31C209.831 471.038 210.659 469.256 210.68 467.287L210.803 455.878L210.804 455.8C210.803 451.916 207.668 448.739 203.775 448.695L192.365 448.574H192.367L192.307 448.572C191.893 448.572 191.497 448.618 191.119 448.679L191.228 449.338L191.88 449.199C190.592 443.104 188.276 437.184 184.925 431.714L184.356 432.062L184.731 432.614C185.06 432.391 185.384 432.138 185.691 431.84L193.883 423.898C195.317 422.508 196.04 420.65 196.039 418.796C196.04 417.016 195.373 415.228 194.037 413.851L186.096 405.66C184.705 404.224 182.847 403.502 180.993 403.503C179.213 403.502 177.425 404.168 176.049 405.503L176.513 405.982L176.977 406.46C178.097 405.375 179.543 404.836 180.993 404.836C182.504 404.836 184.007 405.422 185.139 406.588L193.08 414.779C194.167 415.9 194.704 417.346 194.705 418.796C194.704 420.307 194.12 421.81 192.955 422.94L184.763 430.883C184.523 431.115 184.261 431.32 183.983 431.51L183.455 431.866L183.788 432.41C187.057 437.748 189.319 443.526 190.576 449.475L190.707 450.099L191.336 449.995C191.667 449.94 191.989 449.906 192.307 449.906H192.351V449.907L203.76 450.028C206.919 450.062 209.472 452.648 209.471 455.8L209.469 455.863L209.347 467.272C209.329 468.874 208.66 470.315 207.591 471.352C206.547 472.362 205.133 472.982 203.577 472.982H203.512L192.103 472.858C191.771 472.855 191.437 472.81 191.092 472.744L190.463 472.623L190.317 473.247C188.895 479.334 186.417 485.212 182.887 490.595L182.539 491.127L183.052 491.5C183.325 491.699 183.581 491.912 183.813 492.152L191.755 500.344C192.841 501.464 193.38 502.91 193.38 504.36C193.38 505.872 192.796 507.375 191.629 508.506L183.437 516.447C182.316 517.534 180.871 518.072 179.42 518.072C177.909 518.072 176.407 517.488 175.275 516.322L167.333 508.13V508.131C167.101 507.89 166.896 507.628 166.705 507.35L166.348 506.824L165.807 507.155C160.465 510.426 154.688 512.687 148.737 513.944L148.112 514.076L148.217 514.707C148.273 515.04 148.311 515.36 148.311 515.678V515.719L148.187 527.127C148.169 528.73 147.5 530.17 146.431 531.206C145.387 532.218 143.972 532.838 142.413 532.838H142.352L142.347 533.504H143.013V533.503V532.843L130.944 532.714C129.398 532.696 127.964 532.083 126.881 530.979C125.815 529.888 125.235 528.467 125.234 526.946L125.235 526.88L125.358 515.471C125.361 515.139 125.407 514.806 125.472 514.459L125.592 513.831L124.969 513.686C118.883 512.262 113.004 509.784 107.62 506.255L107.088 505.907L106.715 506.422C106.517 506.694 106.304 506.948 106.064 507.18L97.8724 515.123C96.7522 516.208 95.3068 516.747 93.8563 516.747C92.3454 516.747 90.8418 516.163 89.7099 514.996L81.7688 506.804C80.6828 505.683 80.1443 504.238 80.1438 502.787C80.1448 501.276 80.7287 499.774 81.8948 498.643L90.087 490.7H90.0875C90.3255 490.468 90.5875 490.263 90.8662 490.074L91.3927 489.716L91.0604 489.174C87.7902 483.834 85.5287 478.056 84.2724 472.104L84.1402 471.478L83.5088 471.586C83.1787 471.642 82.8584 471.678 82.5402 471.678H82.4979L71.0891 471.554C67.9292 471.522 65.3776 468.935 65.3792 465.783V465.72L64.7126 465.714V466.38H64.7136H65.373L65.5031 454.312C65.5203 452.766 66.1323 451.331 67.2375 450.248L67.2443 450.242L67.2708 450.215L66.7927 449.75L67.2568 450.228C68.3448 449.174 69.7599 448.602 71.2735 448.602H71.336L82.7459 448.726H82.7464C83.0771 448.728 83.414 448.772 83.7604 448.836L84.3864 448.954L84.5318 448.332C85.9552 442.247 88.4323 436.37 91.9615 430.987L92.3104 430.455L91.7948 430.082C91.523 429.884 91.2678 429.671 91.0355 429.431L83.0938 421.239C82.0079 420.119 81.4694 418.674 81.4688 417.223C81.4694 415.712 82.0536 414.208 83.2203 413.078L91.412 405.135C92.5323 404.05 93.9776 403.511 95.4282 403.511C96.9396 403.511 98.4422 404.095 99.574 405.263L107.516 413.454H107.516C107.748 413.692 107.953 413.954 108.142 414.234L108.499 414.76L109.043 414.428C114.382 411.159 120.158 408.896 126.108 407.64L126.732 407.51L126.628 406.88C126.574 406.551 126.539 406.23 126.539 405.916L126.54 405.866L126.663 394.456C126.695 391.296 129.282 388.744 132.433 388.746H132.495H132.496L143.904 388.87C147.064 388.903 149.616 391.49 149.615 394.642V394.704L149.491 406.112C149.488 406.444 149.445 406.782 149.38 407.127L149.261 407.754L149.883 407.899C155.968 409.323 161.845 411.8 167.228 415.33L167.761 415.679L168.135 415.163C168.331 414.891 168.545 414.636 168.785 414.403L176.977 406.46L176.513 405.982Z" fill="#212C5A"/>
<path d="M393.803 499.504H271.175V558.288H393.803V499.504Z" fill="#E31293"/>
<path d="M536.196 221.967V489.757C536.196 498.357 529.224 505.33 520.612 505.33H144.365C135.764 505.33 128.78 498.357 128.78 489.757V221.967C128.78 213.366 135.764 206.382 144.365 206.382H520.612C529.224 206.382 536.196 213.366 536.196 221.967Z" fill="#EE1A98"/>
<path d="M331.825 494.495C327.407 494.495 323.825 490.912 323.825 486.495C323.825 482.076 327.407 478.495 331.825 478.495C336.243 478.495 339.825 482.076 339.825 486.495C339.825 490.912 336.243 494.495 331.825 494.495Z" fill="#F472BF"/>
<path d="M531.301 468.85V224.967C531.301 217.575 525.517 211.582 518.379 211.582H146.599C139.461 211.582 133.675 217.575 133.675 224.967V468.85H531.301Z" fill="#DAC9E9"/>
<path d="M417.931 564.623H247.047V564.214C247.047 557.443 252.535 551.955 259.306 551.955H405.672C412.442 551.955 417.931 557.443 417.931 564.214V564.623Z" fill="#EE1A98"/>
<path d="M165.735 209.081C165.735 197.277 156.836 187.564 145.384 186.25C145.472 185.48 145.528 184.698 145.528 183.902C145.528 172.585 136.355 163.412 125.038 163.412C122.006 163.412 119.138 164.088 116.548 165.269C111.092 156.764 101.561 151.124 90.7069 151.124C73.7579 151.124 60.0183 164.864 60.0183 181.813C60.0183 183.305 60.1303 184.772 60.3361 186.206C48.7375 187.38 39.6855 197.173 39.6855 209.081C39.6855 221.78 49.9798 232.074 62.6782 232.074H143.881V232.016C156.047 231.417 165.735 221.394 165.735 209.081Z" fill="#A08BCD"/>
<path d="M117.436 249.619V213.894H87.9827V249.619H78.7759L102.709 272.042L126.644 249.619H117.436Z" fill="#FAB743"/>
<path d="M442.804 225.973H370.489C363.801 225.973 358.381 220.553 358.381 213.865V189.815C358.381 183.129 363.801 177.707 370.489 177.707H442.804C449.492 177.707 454.912 183.129 454.912 189.815V213.865C454.912 220.553 449.492 225.973 442.804 225.973Z" fill="#4746A4"/>
<path d="M172.86 573.3H100.545C93.858 573.3 88.4365 567.88 88.4365 561.192V537.142C88.4365 530.456 93.858 525.034 100.545 525.034H172.86C179.548 525.034 184.968 530.456 184.968 537.142V561.192C184.968 567.88 179.548 573.3 172.86 573.3Z" fill="#4746A4"/>
<path d="M207.635 369.115H135.319C128.632 369.115 123.21 363.694 123.21 357.007V332.957C123.21 326.27 128.632 320.849 135.319 320.849H207.635C214.323 320.849 219.743 326.27 219.743 332.957V357.007C219.743 363.694 214.323 369.115 207.635 369.115Z" fill="#4746A4"/>
<path d="M462.449 523.651H459.004C458.433 523.651 457.971 523.187 457.971 522.618C457.971 522.047 458.433 521.583 459.004 521.583H462.449C463.019 521.583 463.481 522.047 463.481 522.618C463.481 523.187 463.019 523.651 462.449 523.651Z" fill="#A08BCD"/>
<path d="M573.778 409.139C573.206 409.139 572.744 408.678 572.744 408.107V401.217C572.744 400.646 573.206 400.183 573.778 400.183C574.349 400.183 574.811 400.646 574.811 401.217V408.107C574.811 408.678 574.349 409.139 573.778 409.139ZM573.778 422.919C573.206 422.919 572.744 422.458 572.744 421.887V414.997C572.744 414.426 573.206 413.965 573.778 413.965C574.349 413.965 574.811 414.426 574.811 414.997V421.887C574.811 422.458 574.349 422.919 573.778 422.919ZM573.778 436.701C573.206 436.701 572.744 436.239 572.744 435.669V428.778C572.744 428.207 573.206 427.743 573.778 427.743C574.349 427.743 574.811 428.207 574.811 428.778V435.669C574.811 436.239 574.349 436.701 573.778 436.701ZM573.778 450.481C573.206 450.481 572.744 450.019 572.744 449.449V442.558C572.744 441.987 573.206 441.523 573.778 441.523C574.349 441.523 574.811 441.987 574.811 442.558V449.449C574.811 450.019 574.349 450.481 573.778 450.481ZM573.778 464.262C573.206 464.262 572.744 463.798 572.744 463.229V456.339C572.744 455.769 573.206 455.305 573.778 455.305C574.349 455.305 574.811 455.769 574.811 456.339V463.229C574.811 463.798 574.349 464.262 573.778 464.262ZM573.778 478.042C573.206 478.042 572.744 477.579 572.744 477.009V470.119C572.744 469.549 573.206 469.085 573.778 469.085C574.349 469.085 574.811 469.549 574.811 470.119V477.009C574.811 477.579 574.349 478.042 573.778 478.042ZM573.778 491.823C573.206 491.823 572.744 491.359 572.744 490.79V483.899C572.744 483.329 573.206 482.866 573.778 482.866C574.349 482.866 574.811 483.329 574.811 483.899V490.79C574.811 491.359 574.349 491.823 573.778 491.823ZM571.87 505.365C571.746 505.365 571.621 505.343 571.499 505.297C570.967 505.09 570.701 504.491 570.906 503.961C571.704 501.897 572.249 499.737 572.524 497.539C572.596 496.973 573.095 496.57 573.68 496.643C574.245 496.715 574.647 497.231 574.575 497.798C574.279 500.161 573.693 502.483 572.834 504.703C572.677 505.114 572.286 505.365 571.87 505.365ZM564.06 516.549C563.772 516.549 563.487 516.43 563.283 516.197C562.907 515.769 562.948 515.115 563.377 514.739C565.041 513.277 566.528 511.615 567.794 509.802C568.121 509.335 568.764 509.219 569.234 509.547C569.701 509.874 569.815 510.519 569.488 510.986C568.127 512.934 566.529 514.719 564.74 516.293C564.545 516.465 564.301 516.549 564.06 516.549ZM551.955 522.85C551.489 522.85 551.067 522.533 550.952 522.059C550.817 521.505 551.158 520.947 551.712 520.811C553.864 520.291 555.95 519.509 557.912 518.485C558.42 518.219 559.042 518.417 559.306 518.922C559.57 519.429 559.373 520.053 558.868 520.317C556.756 521.418 554.515 522.261 552.199 522.821L551.955 522.85ZM476.229 523.651H469.339C468.768 523.651 468.305 523.187 468.305 522.618C468.305 522.047 468.768 521.583 469.339 521.583H476.229C476.798 521.583 477.262 522.047 477.262 522.618C477.262 523.187 476.798 523.651 476.229 523.651ZM490.009 523.651H483.12C482.549 523.651 482.086 523.187 482.086 522.618C482.086 522.047 482.549 521.583 483.12 521.583H490.009C490.579 521.583 491.043 522.047 491.043 522.618C491.043 523.187 490.579 523.651 490.009 523.651ZM503.79 523.651H496.9C496.329 523.651 495.865 523.187 495.865 522.618C495.865 522.047 496.329 521.583 496.9 521.583H503.79C504.36 521.583 504.822 522.047 504.822 522.618C504.822 523.187 504.36 523.651 503.79 523.651ZM517.572 523.651H510.681C510.111 523.651 509.647 523.187 509.647 522.618C509.647 522.047 510.111 521.583 510.681 521.583H517.572C518.141 521.583 518.604 522.047 518.604 522.618C518.604 523.187 518.141 523.651 517.572 523.651ZM531.35 523.651H524.461C523.89 523.651 523.428 523.187 523.428 522.618C523.428 522.047 523.89 521.583 524.461 521.583H531.35C531.921 521.583 532.384 522.047 532.384 522.618C532.384 523.187 531.921 523.651 531.35 523.651ZM545.13 523.651H538.24C537.671 523.651 537.208 523.187 537.208 522.618C537.208 522.047 537.671 521.583 538.24 521.583H545.13C545.701 521.583 546.165 522.047 546.165 522.618C546.165 523.187 545.701 523.651 545.13 523.651Z" fill="#A08BCD"/>
<path d="M573.779 395.329C573.207 395.329 572.744 394.866 572.744 394.297V391.885H571.877C571.307 391.885 570.845 391.421 570.845 390.852C570.845 390.281 571.307 389.817 571.877 389.817H573.779C574.349 389.817 574.811 390.281 574.811 390.852V394.297C574.811 394.866 574.349 395.329 573.779 395.329Z" fill="#A08BCD"/>
<path d="M541.707 286.489H451.3C445.865 286.489 441.458 290.895 441.458 296.329V484.208C441.458 489.643 445.865 494.048 451.3 494.048H541.707C547.14 494.048 551.547 489.643 551.547 484.208V296.329C551.547 290.895 547.14 286.489 541.707 286.489Z" fill="#A08BCD"/>
<path d="M516.719 297.315H466.989C466.127 297.315 465.427 296.615 465.427 295.751V295.55C465.427 294.687 466.127 293.987 466.989 293.987H516.719C517.581 293.987 518.281 294.687 518.281 295.55V295.751C518.281 296.615 517.581 297.315 516.719 297.315Z" fill="#212C5A"/>
<path d="M527.58 295.651C527.58 296.57 526.835 297.315 525.916 297.315C524.997 297.315 524.252 296.57 524.252 295.651C524.252 294.733 524.997 293.987 525.916 293.987C526.835 293.987 527.58 294.733 527.58 295.651Z" fill="#212C5A"/>
<path d="M515.088 330.493L507.907 339.084L489.321 316.852L458.247 354.022H495.419H520.395H534.759L515.088 330.493Z" fill="#FAB743"/>
<path d="M479.42 455.814L476.029 459.872L467.255 449.374L452.584 466.924H470.133H481.925H488.708L479.42 455.814Z" fill="#FAB743"/>
<path d="M447.52 383.619H493.772V381.019H447.52V383.619Z" fill="#5C58B1"/>
<path d="M447.52 378.174H493.772V375.574H447.52V378.174Z" fill="#5C58B1"/>
<path d="M447.52 388.938H476.765V386.34H447.52V388.938Z" fill="#5C58B1"/>
<path d="M478.845 388.938H493.772V386.34H478.845V388.938Z" fill="#5C58B1"/>
<path d="M447.52 394.251H488.44V391.651H447.52V394.251Z" fill="#5C58B1"/>
<path d="M447.52 399.71H461.734V397.111H447.52V399.71Z" fill="#5C58B1"/>
<path d="M464.184 399.71H474.42V397.111H464.184V399.71Z" fill="#5C58B1"/>
<path d="M499.235 420.012H545.486V417.412H499.235V420.012Z" fill="#5C58B1"/>
<path d="M499.235 414.566H545.486V411.968H499.235V414.566Z" fill="#5C58B1"/>
<path d="M499.235 425.33H528.48V422.731H499.235V425.33Z" fill="#5C58B1"/>
<path d="M530.559 425.33H545.486V422.731H530.559V425.33Z" fill="#5C58B1"/>
<path d="M499.235 430.644H540.155V428.045H499.235V430.644Z" fill="#5C58B1"/>
<path d="M499.235 436.103H513.447V433.504H499.235V436.103Z" fill="#5C58B1"/>
<path d="M515.898 436.103H526.133V433.504H515.898V436.103Z" fill="#5C58B1"/>
<path d="M499.235 383.619H545.486V381.019H499.235V383.619Z" fill="#5C58B1"/>
<path d="M499.235 378.174H545.486V375.574H499.235V378.174Z" fill="#5C58B1"/>
<path d="M499.235 388.938H528.48V386.34H499.235V388.938Z" fill="#5C58B1"/>
<path d="M530.559 388.938H545.486V386.34H530.559V388.938Z" fill="#5C58B1"/>
<path d="M499.235 394.251H545.486V391.651H499.235V394.251Z" fill="#5C58B1"/>
<path d="M499.235 399.71H513.447V397.111H499.235V399.71Z" fill="#5C58B1"/>
<path d="M515.898 399.71H545.486V397.111H515.898V399.71Z" fill="#5C58B1"/>
<path d="M447.52 420.012H493.772V417.412H447.52V420.012Z" fill="#5C58B1"/>
<path d="M447.52 414.566H493.772V411.968H447.52V414.566Z" fill="#5C58B1"/>
<path d="M447.52 425.33H493.772V422.731H447.52V425.33Z" fill="#5C58B1"/>
<path d="M447.52 430.644H493.772V428.045H447.52V430.644Z" fill="#5C58B1"/>
<path d="M447.52 436.103H493.772V433.504H447.52V436.103Z" fill="#5C58B1"/>
<path d="M499.235 454.205H545.486V451.607H499.235V454.205Z" fill="#5C58B1"/>
<path d="M499.235 448.76H545.486V446.161H499.235V448.76Z" fill="#5C58B1"/>
<path d="M516.241 459.523H545.487V456.925H516.241V459.523Z" fill="#5C58B1"/>
<path d="M499.235 459.523H514.161V456.925H499.235V459.523Z" fill="#5C58B1"/>
<path d="M499.235 464.838H534.748V462.239H499.235V464.838Z" fill="#5C58B1"/>
<path d="M537.216 464.838H545.486V462.239H537.216V464.838Z" fill="#5C58B1"/>
<path d="M511.368 470.297H545.486V467.697H511.368V470.297Z" fill="#5C58B1"/>
<path d="M499.235 470.297H509.469V467.697H499.235V470.297Z" fill="#5C58B1"/>
<path d="M463.361 542.313H391.046C384.358 542.313 378.938 536.892 378.938 530.206V506.155C378.938 499.468 384.358 494.047 391.046 494.047H463.361C470.049 494.047 475.47 499.468 475.47 506.155V530.206C475.47 536.892 470.049 542.313 463.361 542.313Z" fill="#4746A4"/>
<path d="M577.502 462.262C577.502 464.749 575.486 466.765 573 466.765C570.513 466.765 568.497 464.749 568.497 462.262C568.497 459.775 570.513 457.759 573 457.759C575.486 457.759 577.502 459.775 577.502 462.262Z" fill="#A08BCD"/>
<path d="M572.999 454.856C568.915 454.856 565.593 458.179 565.593 462.263C565.593 466.347 568.915 469.668 572.999 469.668C577.083 469.668 580.405 466.347 580.405 462.263C580.405 458.179 577.083 454.856 572.999 454.856ZM572.999 470.701C568.347 470.701 564.56 466.916 564.56 462.263C564.56 457.609 568.347 453.823 572.999 453.823C577.652 453.823 581.439 457.609 581.439 462.263C581.439 466.916 577.652 470.701 572.999 470.701Z" fill="#A08BCD"/>
<path d="M611.858 396.194H539.542C532.854 396.194 527.434 390.773 527.434 384.086V360.036C527.434 353.35 532.854 347.928 539.542 347.928H611.858C618.544 347.928 623.966 353.35 623.966 360.036V384.086C623.966 390.773 618.544 396.194 611.858 396.194Z" fill="#4746A4"/>
<path d="M352.236 407.786H321.86V405.03H352.236V407.786Z" fill="#212C5A"/>
<path d="M430.369 407.786H360.025V405.03H430.369V407.786Z" fill="#212C5A"/>
<path d="M394.317 428.743C382.241 428.743 370.14 428.728 358.095 428.699L358.101 425.944C382.188 426.002 406.501 426.002 430.365 425.944L430.372 428.699C418.439 428.728 406.392 428.743 394.317 428.743Z" fill="#212C5A"/>
<path d="M430.369 418.243H347.029V415.487H430.369V418.243Z" fill="#212C5A"/>
<path d="M430.369 439.201H342.496V436.445H430.369V439.201Z" fill="#212C5A"/>
<path d="M430.369 449.658H330.308V446.904H430.369V449.658Z" fill="#212C5A"/>
<path d="M204.741 250.207H157.696V247.451H204.741V250.207Z" fill="#A08BCD"/>
<path d="M314.088 250.207H265.539V247.451H314.088V250.207Z" fill="#A08BCD"/>
<path d="M314.088 260.663H280.411V257.908H314.088V260.663Z" fill="#FAB743"/>
<path d="M314.088 281.622H266.557V278.866H314.088V281.622Z" fill="#FAB743"/>
<path d="M314.088 292.079H257.248V289.323H314.088V292.079Z" fill="#FAB743"/>
<path d="M314.088 304.305H240.975V301.55H314.088V304.305Z" fill="#FAB743"/>
<path d="M259.415 250.207H212.368V247.451H259.415V250.207Z" fill="#FAB743"/>
<path d="M276.108 271.165C268.922 271.165 261.71 271.156 247.286 271.134L237.908 271.122L237.911 268.366L247.29 268.38C276.132 268.42 276.135 268.42 304.774 268.38L314.088 268.366V271.122L304.778 271.134C290.456 271.156 283.295 271.165 276.108 271.165Z" fill="#FAB743"/>
<path d="M193.748 271.165C181.673 271.165 169.627 271.152 157.692 271.122L157.699 268.366C181.563 268.424 205.876 268.424 229.964 268.366L229.969 271.122C217.924 271.152 205.821 271.165 193.748 271.165Z" fill="#A08BCD"/>
<path d="M273.729 260.663H157.696V257.908H273.729V260.663Z" fill="#A08BCD"/>
<path d="M234.533 304.305H157.696V301.55H234.533V304.305Z" fill="#A08BCD"/>
<path d="M260.557 281.622H157.696V278.866H260.557V281.622Z" fill="#A08BCD"/>
<path d="M250.917 292.079H157.696V289.323H250.917V292.079Z" fill="#A08BCD"/>
<path d="M149.748 248.829C149.748 249.88 148.897 250.73 147.848 250.73C146.797 250.73 145.947 249.88 145.947 248.829C145.947 247.78 146.797 246.929 147.848 246.929C148.897 246.929 149.748 247.78 149.748 248.829Z" fill="#EE1A98"/>
<path d="M149.748 259.288C149.748 260.337 148.897 261.188 147.848 261.188C146.797 261.188 145.947 260.337 145.947 259.288C145.947 258.238 146.797 257.386 147.848 257.386C148.897 257.386 149.748 258.238 149.748 259.288Z" fill="#EE1A98"/>
<path d="M149.748 269.743C149.748 270.794 148.897 271.645 147.848 271.645C146.797 271.645 145.947 270.794 145.947 269.743C145.947 268.694 146.797 267.843 147.848 267.843C148.897 267.843 149.748 268.694 149.748 269.743Z" fill="#EE1A98"/>
<path d="M149.748 280.201C149.748 281.251 148.897 282.103 147.848 282.103C146.797 282.103 145.947 281.251 145.947 280.201C145.947 279.152 146.797 278.301 147.848 278.301C148.897 278.301 149.748 279.152 149.748 280.201Z" fill="#EE1A98"/>
<path d="M149.748 290.703C149.748 291.752 148.897 292.603 147.848 292.603C146.797 292.603 145.947 291.752 145.947 290.703C145.947 289.653 146.797 288.801 147.848 288.801C148.897 288.801 149.748 289.653 149.748 290.703Z" fill="#EE1A98"/>
<path d="M149.748 302.927C149.748 303.976 148.897 304.827 147.848 304.827C146.797 304.827 145.947 303.976 145.947 302.927C145.947 301.878 146.797 301.027 147.848 301.027C148.897 301.027 149.748 301.878 149.748 302.927Z" fill="#EE1A98"/>
<path d="M326.628 309.158C326.248 309.158 325.94 308.85 325.94 308.469V247.282C325.94 246.901 326.248 246.593 326.628 246.593C327.009 246.593 327.317 246.901 327.317 247.282V308.469C327.317 308.85 327.009 309.158 326.628 309.158Z" fill="#EE1A98"/>
<path d="M195.045 397.854H190.811C190.42 397.854 190.104 397.538 190.104 397.148C190.104 396.757 190.42 396.442 190.811 396.442H195.045C195.436 396.442 195.752 396.757 195.752 397.148C195.752 397.538 195.436 397.854 195.045 397.854ZM203.517 397.854H199.281C198.891 397.854 198.575 397.538 198.575 397.148C198.575 396.757 198.891 396.442 199.281 396.442H203.517C203.907 396.442 204.223 396.757 204.223 397.148C204.223 397.538 203.907 397.854 203.517 397.854ZM211.988 397.854H207.752C207.361 397.854 207.045 397.538 207.045 397.148C207.045 396.757 207.361 396.442 207.752 396.442H211.988C212.377 396.442 212.693 396.757 212.693 397.148C212.693 397.538 212.377 397.854 211.988 397.854ZM185.703 403.353C185.312 403.353 184.996 403.036 184.996 402.646V402.132C184.996 400.693 185.533 399.322 186.508 398.269C186.772 397.984 187.217 397.965 187.505 398.23C187.792 398.494 187.809 398.941 187.545 399.228C186.812 400.02 186.408 401.05 186.408 402.132V402.646C186.408 403.036 186.093 403.353 185.703 403.353ZM185.703 411.822C185.312 411.822 184.996 411.508 184.996 411.117V406.881C184.996 406.492 185.312 406.176 185.703 406.176C186.093 406.176 186.408 406.492 186.408 406.881V411.117C186.408 411.508 186.093 411.822 185.703 411.822ZM185.703 420.294C185.312 420.294 184.996 419.977 184.996 419.588V415.353C184.996 414.962 185.312 414.646 185.703 414.646C186.093 414.646 186.408 414.962 186.408 415.353V419.588C186.408 419.977 186.093 420.294 185.703 420.294ZM185.703 428.764C185.312 428.764 184.996 428.449 184.996 428.058V423.822C184.996 423.433 185.312 423.117 185.703 423.117C186.093 423.117 186.408 423.433 186.408 423.822V428.058C186.408 428.449 186.093 428.764 185.703 428.764ZM185.816 437.226C185.491 437.226 185.199 437.001 185.128 436.67C185.041 436.27 184.996 435.861 184.996 435.456V432.294C184.996 431.904 185.312 431.588 185.703 431.588C186.093 431.588 186.408 431.904 186.408 432.294V435.456C186.408 435.761 186.441 436.07 186.507 436.37C186.589 436.752 186.348 437.128 185.967 437.21L185.816 437.226ZM192.4 441.144H190.685C189.721 441.144 188.768 440.898 187.929 440.432C187.587 440.244 187.464 439.813 187.653 439.472C187.844 439.13 188.277 439.01 188.613 439.197C189.243 439.548 189.96 439.732 190.685 439.732H192.4C192.791 439.732 193.105 440.048 193.105 440.437C193.105 440.828 192.791 441.144 192.4 441.144ZM200.871 441.144H196.636C196.245 441.144 195.929 440.828 195.929 440.437C195.929 440.048 196.245 439.732 196.636 439.732H200.871C201.261 439.732 201.576 440.048 201.576 440.437C201.576 440.828 201.261 441.144 200.871 441.144ZM209.341 441.144H205.107C204.716 441.144 204.4 440.828 204.4 440.437C204.4 440.048 204.716 439.732 205.107 439.732H209.341C209.732 439.732 210.047 440.048 210.047 440.437C210.047 440.828 209.732 441.144 209.341 441.144Z" fill="#212C5A"/>
<path d="M224.706 425.636H202.032V422.813H224.706V425.636Z" fill="#212C5A"/>
<path d="M267.268 425.636H230.64V422.813H267.268V425.636Z" fill="#212C5A"/>
<path d="M267.268 449.658H244.596V446.836H267.268V449.658Z" fill="#212C5A"/>
<path d="M238.663 449.658H202.032V446.836H238.663V449.658Z" fill="#212C5A"/>
<path d="M241.911 433.818H202.032V430.994H241.911V433.818Z" fill="#212C5A"/>
<path d="M267.268 433.818H247.844V430.994H267.268V433.818Z" fill="#212C5A"/>
<path d="M234.85 441.85H202.032V439.024H234.85V441.85Z" fill="#212C5A"/>
<path d="M267.268 441.85H245V439.024H267.268V441.85Z" fill="#212C5A"/>
<path d="M213.902 388.7H202.032V410.8H213.902V388.7Z" fill="#FAB743"/>
<path d="M232.523 380.31H220.655V410.8H232.523V380.31Z" fill="#EE1A98"/>
<path d="M250.53 362.916H238.661V410.8H250.53V362.916Z" fill="#4746A4"/>
<path d="M242.245 441.85H237.985V439.024H242.245V441.85Z" fill="#212C5A"/>
<path d="M429.3 387.03H340.449V287.898H429.3V387.03Z" fill="#A08BCD"/>
<path d="M340.449 387.031H429.3V287.867H340.449V387.031ZM430.68 388.409H339.072V286.489H430.68V388.409Z" fill="#4746A4"/>
<path d="M429.989 287.177H339.759V299.053H429.989V287.177Z" fill="#4746A4"/>
<path d="M274.914 198.974C263.187 202.683 250.63 196.16 246.92 184.435C243.211 172.707 249.734 160.15 261.46 156.439C273.187 152.731 285.744 159.254 289.455 170.98C293.163 182.707 286.64 195.266 274.914 198.974ZM312.055 154.438L304.031 156.975C303.764 157.059 303.512 157.17 303.271 157.295C300.855 153.139 297.756 149.522 294.167 146.54C294.335 146.319 294.491 146.087 294.622 145.835L298.466 138.348C299.66 136.019 298.739 133.15 296.41 131.954L288.922 128.11C286.594 126.914 283.724 127.835 282.528 130.166L278.684 137.652C278.555 137.904 278.458 138.166 278.376 138.43C273.983 137.283 269.37 136.864 264.711 137.266C264.675 136.996 264.62 136.728 264.536 136.462L261.998 128.436C261.208 125.939 258.535 124.551 256.038 125.34L248.014 127.879C245.516 128.668 244.127 131.343 244.916 133.84L247.455 141.864C247.54 142.131 247.65 142.382 247.775 142.623C243.62 145.039 240.003 148.138 237.02 151.727C236.799 151.559 236.567 151.403 236.315 151.274L228.828 147.43C227.707 146.854 226.43 146.746 225.227 147.126L225.206 147.132C223.998 147.522 223.014 148.356 222.435 149.486L218.59 156.972C217.394 159.302 218.316 162.17 220.646 163.367L228.132 167.211C228.386 167.34 228.648 167.436 228.911 167.516C227.763 171.91 227.344 176.524 227.746 181.184C227.478 181.219 227.208 181.274 226.942 181.358L218.918 183.896C216.42 184.687 215.031 187.36 215.822 189.858L218.359 197.882C219.15 200.379 221.823 201.767 224.32 200.978L232.344 198.439C232.611 198.355 232.863 198.244 233.103 198.12C235.52 202.275 238.62 205.894 242.21 208.875C242.043 209.095 241.884 209.326 241.754 209.579L237.91 217.066C237.33 218.194 237.224 219.482 237.614 220.688C238.002 221.896 238.838 222.882 239.966 223.46L247.452 227.304C248.61 227.899 249.9 227.97 251.052 227.606C252.219 227.236 253.244 226.42 253.847 225.248L257.691 217.762C257.822 217.508 257.915 217.246 257.996 216.983C262.39 218.131 267.004 218.548 271.664 218.148C271.7 218.416 271.755 218.686 271.839 218.952L274.378 226.978C275.167 229.474 277.84 230.863 280.338 230.074L288.362 227.535C290.859 226.744 292.247 224.072 291.458 221.575L288.92 213.55C288.835 213.283 288.726 213.031 288.6 212.791C292.755 210.374 296.374 207.274 299.355 203.684C299.575 203.852 299.806 204.01 300.059 204.14L307.546 207.986C308.704 208.579 309.995 208.651 311.147 208.286C312.314 207.916 313.339 207.102 313.94 205.93L317.786 198.442C318.982 196.112 318.059 193.243 315.73 192.048L308.242 188.204C307.991 188.075 307.73 187.976 307.464 187.895C308.611 183.502 309.03 178.888 308.628 174.231C308.898 174.195 309.166 174.14 309.434 174.055L317.458 171.518C319.955 170.728 321.343 168.054 320.554 165.556L318.016 157.532C317.226 155.035 314.552 153.647 312.055 154.438Z" fill="#212C5A"/>
<path d="M308.347 375.691C305.496 382.672 297.499 386.032 290.519 383.183C283.539 380.332 280.179 372.335 283.028 365.354C285.879 358.374 293.876 355.015 300.856 357.864C307.836 360.715 311.196 368.712 308.347 375.691ZM301.923 340.728L299.972 345.504C299.907 345.663 299.86 345.826 299.825 345.987C296.92 345.498 294 345.539 291.188 346.062C291.149 345.895 291.101 345.731 291.033 345.571L289.013 340.823C288.384 339.347 286.671 338.656 285.193 339.286L280.447 341.306C278.969 341.935 278.279 343.647 278.908 345.126L280.929 349.871C280.996 350.031 281.081 350.18 281.175 350.322C278.911 351.943 276.905 353.952 275.268 356.304C275.128 356.216 274.979 356.136 274.82 356.072L270.044 354.122C268.557 353.515 266.855 354.23 266.248 355.716L264.297 360.492C263.691 361.979 264.407 363.682 265.892 364.29L270.669 366.239C270.828 366.303 270.989 366.351 271.152 366.386C270.661 369.292 270.704 372.211 271.225 375.023C271.06 375.062 270.895 375.11 270.735 375.178L265.988 377.198C265.276 377.502 264.725 378.062 264.433 378.776L264.428 378.79C264.137 379.511 264.145 380.302 264.449 381.018L266.471 385.764C267.099 387.242 268.812 387.931 270.289 387.302L275.036 385.283C275.197 385.214 275.344 385.128 275.485 385.035C277.105 387.298 279.116 389.304 281.469 390.943C281.38 391.083 281.301 391.232 281.236 391.391L279.285 396.167C278.679 397.654 279.395 399.355 280.88 399.963L285.657 401.912C287.144 402.52 288.847 401.804 289.453 400.318L291.404 395.542C291.468 395.383 291.515 395.222 291.549 395.059C294.456 395.55 297.376 395.508 300.189 394.986C300.227 395.15 300.273 395.315 300.341 395.475L302.363 400.223C302.667 400.939 303.232 401.492 303.953 401.783C304.675 402.075 305.467 402.066 306.181 401.76L310.929 399.742C311.663 399.428 312.203 398.848 312.483 398.162C312.767 397.467 312.784 396.664 312.467 395.922L310.447 391.175C310.379 391.014 310.292 390.866 310.199 390.726C312.463 389.104 314.469 387.094 316.107 384.743C316.248 384.83 316.396 384.91 316.555 384.975L321.331 386.924C322.819 387.531 324.52 386.816 325.128 385.33L327.077 380.554C327.684 379.068 326.969 377.364 325.483 376.758L320.707 374.807C320.547 374.743 320.385 374.695 320.224 374.66C320.713 371.755 320.672 368.835 320.149 366.022C320.315 365.984 320.479 365.938 320.64 365.868L325.387 363.848C326.121 363.535 326.661 362.956 326.941 362.27C327.224 361.576 327.241 360.772 326.925 360.028L324.905 355.282C324.276 353.804 322.563 353.115 321.085 353.743L316.339 355.764C316.18 355.832 316.031 355.916 315.888 356.011C314.268 353.747 312.259 351.742 309.907 350.103C309.995 349.963 310.075 349.815 310.139 349.655L312.089 344.879C312.696 343.394 311.981 341.69 310.495 341.083L305.719 339.132C304.232 338.526 302.529 339.243 301.923 340.728Z" fill="#A08BCD"/>
<path d="M265.112 340.841L264.875 340.606C263.068 342.437 260.684 343.351 258.295 343.353C255.947 343.351 253.6 342.467 251.8 340.691C249.97 338.886 249.054 336.501 249.054 334.111C249.054 331.763 249.939 329.417 251.715 327.618C253.52 325.787 255.906 324.871 258.295 324.871C260.643 324.871 262.99 325.755 264.788 327.531C266.619 329.338 267.535 331.723 267.535 334.113C267.535 336.461 266.65 338.807 264.875 340.606L265.112 340.841L265.35 341.074C267.252 339.147 268.203 336.627 268.202 334.113C268.203 331.553 267.219 328.993 265.258 327.057C263.33 325.154 260.81 324.203 258.295 324.205C255.736 324.203 253.175 325.187 251.24 327.149C249.338 329.077 248.387 331.597 248.387 334.111C248.387 336.67 249.371 339.231 251.332 341.166C253.26 343.069 255.78 344.019 258.295 344.019C260.854 344.019 263.414 343.035 265.35 341.074L265.112 340.841ZM270.291 316.481L270.054 316.247L267.503 318.83L267.27 319.115L267.527 319.326L267.704 319.043C265.919 317.93 263.98 317.162 261.983 316.742L261.914 317.067L262.243 317.122C262.263 317.001 262.278 316.871 262.278 316.733V316.706L262.238 313.091C262.222 311.791 261.162 310.746 259.864 310.745H259.835H259.838L256.224 310.786C254.924 310.802 253.879 311.861 253.878 313.158L253.879 313.189V313.186L253.919 316.799C253.92 316.947 253.94 317.085 253.963 317.213L254.291 317.153L254.215 316.829C252.28 317.282 250.408 318.062 248.687 319.17L248.868 319.45L249.123 319.235L248.896 318.965L248.886 318.953L246.303 316.403C245.842 315.947 245.236 315.719 244.635 315.721C244.024 315.719 243.41 315.955 242.947 316.425L240.408 318.998C239.952 319.458 239.724 320.063 239.724 320.665C239.724 321.275 239.96 321.89 240.43 322.354L243.014 324.903L243.299 325.137L243.51 324.879L243.227 324.702C242.112 326.486 241.346 328.426 240.924 330.423L241.251 330.493L241.306 330.163C241.18 330.142 241.048 330.127 240.91 330.127L240.884 330.129L240.892 330.462L240.888 330.129L237.275 330.169C236.647 330.175 236.052 330.427 235.612 330.874L235.607 330.881H235.606L235.604 330.882C235.168 331.327 234.928 331.918 234.928 332.539V332.571V332.569L234.97 336.182L235.303 336.179V335.846H235.302H234.964L234.968 336.183C234.984 337.482 236.044 338.527 237.34 338.527H237.367H237.368L240.983 338.487C241.134 338.486 241.272 338.465 241.398 338.441L241.336 338.114L241.011 338.19C241.464 340.125 242.244 341.997 243.352 343.718L243.632 343.538L243.418 343.283L243.148 343.511L243.136 343.521L240.587 346.103C240.131 346.565 239.903 347.17 239.903 347.771C239.903 348.382 240.139 348.997 240.608 349.459L243.18 351.998C243.642 352.454 244.246 352.682 244.847 352.681C245.459 352.682 246.074 352.445 246.536 351.975L249.086 349.393L249.32 349.107L249.062 348.897L248.886 349.179C250.671 350.294 252.61 351.061 254.608 351.482L254.676 351.155L254.348 351.101C254.327 351.222 254.311 351.354 254.311 351.498V351.521L254.644 351.514L254.311 351.517L254.352 355.131C254.359 355.763 254.614 356.361 255.066 356.802C255.51 357.237 256.102 357.478 256.723 357.477H256.751L260.366 357.437C261.015 357.429 261.603 357.159 262.026 356.731C262.45 356.303 262.711 355.713 262.711 355.065V355.038L262.671 351.423C262.668 351.273 262.648 351.134 262.624 351.009L262.296 351.071L262.374 351.395C264.308 350.942 266.18 350.161 267.902 349.054L267.72 348.774L267.466 348.989L267.694 349.258L267.704 349.27L270.287 351.819C270.748 352.275 271.352 352.503 271.954 352.503C272.564 352.503 273.179 352.267 273.643 351.797L276.182 349.226C276.636 348.765 276.864 348.159 276.864 347.559C276.864 346.947 276.628 346.333 276.159 345.87L273.576 343.321L273.291 343.086L273.079 343.345L273.362 343.521C274.476 341.735 275.244 339.797 275.664 337.798L275.339 337.73L275.284 338.058C275.406 338.079 275.539 338.095 275.682 338.095H275.699L279.315 338.054C279.964 338.047 280.554 337.777 280.976 337.347C281.399 336.921 281.662 336.33 281.66 335.683V335.657V335.655L281.62 332.041C281.604 330.741 280.546 329.695 279.248 329.695H279.219H279.22L275.603 329.735H275.606C275.46 329.738 275.322 329.755 275.191 329.781L275.254 330.107L275.578 330.031C275.124 328.097 274.344 326.226 273.236 324.505L272.956 324.686L273.171 324.941L273.442 324.713L273.454 324.702L276.003 322.119C276.458 321.658 276.686 321.054 276.686 320.453C276.686 319.841 276.45 319.226 275.982 318.763L273.408 316.225C272.947 315.77 272.343 315.542 271.742 315.542C271.131 315.542 270.516 315.778 270.054 316.247L270.291 316.481L270.528 316.715C270.862 316.377 271.3 316.209 271.742 316.209C272.176 316.209 272.608 316.371 272.94 316.699L275.512 319.238C275.851 319.571 276.019 320.01 276.019 320.453C276.019 320.887 275.856 321.318 275.528 321.651L273 324.213L272.742 324.43L272.518 324.619L272.676 324.866C273.742 326.521 274.492 328.322 274.928 330.185L275.002 330.495L275.315 330.435L275.616 330.402L279.231 330.362H279.248C280.179 330.361 280.944 331.115 280.954 332.049L280.994 335.663V335.662L280.995 335.683C280.994 336.149 280.807 336.57 280.502 336.879C280.195 337.19 279.775 337.383 279.308 337.387L275.694 337.429H275.696H275.682L275.394 337.401L275.078 337.349L275.012 337.661C274.607 339.585 273.868 341.45 272.796 343.167L272.642 343.417L273.13 343.817L275.691 346.345C276.028 346.678 276.198 347.117 276.198 347.559C276.198 347.993 276.035 348.425 275.707 348.757L273.168 351.329C272.834 351.667 272.395 351.835 271.954 351.837C271.519 351.835 271.087 351.673 270.755 351.345L268.194 348.817L267.975 348.559L267.787 348.335L267.54 348.494C265.884 349.558 264.084 350.31 262.22 350.746L261.91 350.819L261.97 351.134L262.004 351.431L262.044 355.045V355.043V355.065C262.044 355.531 261.858 355.953 261.552 356.262C261.246 356.571 260.826 356.765 260.358 356.77L256.744 356.81H256.723C256.272 356.81 255.855 356.641 255.532 356.325C255.204 356.005 255.024 355.582 255.018 355.125L254.978 351.509V351.506V351.498L255.006 351.21L255.058 350.895L254.746 350.829C252.822 350.425 250.956 349.686 249.239 348.614L248.99 348.458L248.59 348.946L246.062 351.507C245.728 351.846 245.29 352.014 244.847 352.014C244.412 352.014 243.982 351.851 243.648 351.523L241.076 348.985C240.739 348.651 240.571 348.213 240.57 347.771C240.571 347.337 240.734 346.905 241.06 346.571L243.59 344.011L243.848 343.793L244.072 343.605L243.914 343.358C242.847 341.702 242.096 339.899 241.66 338.038L241.588 337.726L241.274 337.786L240.976 337.821L237.36 337.861H237.362H237.34C236.411 337.862 235.646 337.107 235.635 336.175L235.302 336.179V336.513H235.303H235.64L235.595 332.558V332.539C235.595 332.09 235.766 331.671 236.08 331.349L235.843 331.115L236.078 331.351L236.086 331.345L236.087 331.342C236.407 331.019 236.826 330.841 237.282 330.835L240.899 330.795H240.9L240.91 330.794L241.196 330.821L241.511 330.873L241.576 330.561C241.983 328.638 242.72 326.773 243.792 325.055L243.948 324.806L243.459 324.406L240.898 321.879C240.56 321.545 240.392 321.106 240.391 320.665C240.392 320.23 240.555 319.798 240.883 319.466L243.42 316.894C243.755 316.555 244.194 316.387 244.635 316.387C245.07 316.387 245.502 316.55 245.835 316.878L248.395 319.405L248.612 319.663L248.802 319.889L249.048 319.73C250.704 318.665 252.504 317.914 254.367 317.478L254.676 317.405L254.619 317.093L254.586 316.791L254.544 313.178V313.177V313.158C254.544 312.227 255.299 311.462 256.232 311.453L259.848 311.411H259.864C260.795 311.411 261.56 312.166 261.571 313.099L261.611 316.713V316.733L261.586 317.013L261.532 317.327L261.846 317.394C263.768 317.799 265.634 318.538 267.351 319.61L267.599 319.765L267.999 319.277L270.528 316.715L270.291 316.481Z" fill="#A08BCD"/>
<path d="M67.2976 285.637H50.8242V282.882H67.2976V285.637Z" fill="#212C5A"/>
<path d="M116.124 285.637H74.105V282.882H116.124V285.637Z" fill="#212C5A"/>
<path d="M116.124 315.224H90.1147V312.468H116.124V315.224Z" fill="#212C5A"/>
<path d="M83.3081 315.224H50.8242V312.468H83.3081V315.224Z" fill="#212C5A"/>
<path d="M87.0352 295.713H50.8242V292.957H87.0352V295.713Z" fill="#212C5A"/>
<path d="M116.124 295.713H93.8418V292.957H116.124V295.713Z" fill="#212C5A"/>
<path d="M78.9336 305.606H50.8242V302.85H78.9336V305.606Z" fill="#212C5A"/>
<path d="M116.124 305.606H90.5791V302.85H116.124V305.606Z" fill="#212C5A"/>
<path d="M87.4183 305.606H82.5312V302.85H87.4183V305.606Z" fill="#212C5A"/>
<path d="M501.467 543.716H484.995V540.96H501.467V543.716Z" fill="#212C5A"/>
<path d="M550.293 543.716H508.274V540.96H550.293V543.716Z" fill="#212C5A"/>
<path d="M550.294 573.3H524.284V570.545H550.294V573.3Z" fill="#212C5A"/>
<path d="M517.476 573.3H484.995V570.545H517.476V573.3Z" fill="#212C5A"/>
<path d="M521.204 553.791H484.995V551.034H521.204V553.791Z" fill="#212C5A"/>
<path d="M550.294 553.791H528.012V551.034H550.294V553.791Z" fill="#212C5A"/>
<path d="M513.104 563.684H484.995V560.928H513.104V563.684Z" fill="#212C5A"/>
<path d="M550.293 563.684H524.748V560.928H550.293V563.684Z" fill="#212C5A"/>
<path d="M521.587 563.684H516.7V560.928H521.587V563.684Z" fill="#212C5A"/>
<path d="M507.347 232.955C497.892 234.979 488.553 228.935 486.528 219.48C484.505 210.025 490.549 200.687 500.004 198.661C509.459 196.637 518.796 202.683 520.821 212.137C522.845 221.592 516.8 230.931 507.347 232.955ZM539.745 200.884L533.277 202.269C533.061 202.315 532.856 202.383 532.659 202.463C531.077 199.031 528.924 195.967 526.34 193.365C526.487 193.205 526.628 193.035 526.747 192.847L530.316 187.276C531.427 185.543 530.92 183.229 529.185 182.119L523.616 178.549C521.883 177.439 519.569 177.945 518.459 179.68L514.889 185.251C514.769 185.437 514.675 185.635 514.589 185.836C511.239 184.609 507.659 183.936 503.984 183.901C503.975 183.688 503.953 183.473 503.907 183.259L502.521 176.789C502.091 174.776 500.103 173.489 498.089 173.92L491.62 175.305C489.607 175.736 488.32 177.724 488.751 179.739L490.135 186.207C490.183 186.423 490.249 186.628 490.329 186.825C486.897 188.405 483.835 190.559 481.232 193.144C481.072 192.996 480.901 192.856 480.713 192.736L475.143 189.167C474.308 188.632 473.316 188.452 472.348 188.66L472.331 188.664C471.355 188.877 470.523 189.457 469.985 190.297L466.416 195.868C465.305 197.601 465.812 199.915 467.545 201.025L473.117 204.595C473.305 204.716 473.503 204.809 473.703 204.892C472.476 208.244 471.803 211.824 471.768 215.5C471.555 215.508 471.341 215.531 471.125 215.577L464.656 216.963C462.643 217.393 461.355 219.381 461.787 221.395L463.172 227.864C463.603 229.877 465.591 231.164 467.604 230.733L474.073 229.348C474.289 229.301 474.495 229.235 474.691 229.155C476.272 232.587 478.427 235.651 481.013 238.253C480.864 238.412 480.724 238.58 480.603 238.769L477.033 244.34C476.496 245.18 476.317 246.18 476.531 247.153C476.744 248.128 477.324 248.961 478.164 249.497L483.735 253.068C484.596 253.619 485.6 253.772 486.529 253.573C487.469 253.371 488.333 252.809 488.892 251.937L492.461 246.367C492.581 246.179 492.676 245.98 492.759 245.78C496.111 247.008 499.691 247.68 503.367 247.716C503.375 247.928 503.397 248.143 503.444 248.359L504.829 254.828C505.26 256.841 507.247 258.128 509.261 257.697L515.731 256.312C517.743 255.881 519.031 253.892 518.6 251.88L517.215 245.411C517.168 245.195 517.101 244.989 517.02 244.792C520.455 243.212 523.517 241.057 526.12 238.471C526.28 238.619 526.448 238.76 526.636 238.881L532.207 242.449C533.069 243.001 534.073 243.155 535.003 242.955C535.943 242.753 536.807 242.192 537.364 241.32L540.935 235.749C542.044 234.016 541.537 231.701 539.804 230.591L534.233 227.023C534.047 226.903 533.849 226.807 533.648 226.723C534.875 223.371 535.547 219.792 535.581 216.117C535.795 216.108 536.011 216.087 536.225 216.04L542.693 214.655C544.708 214.224 545.995 212.236 545.564 210.223L544.179 203.753C543.747 201.74 541.759 200.453 539.745 200.884Z" fill="#212C5A"/>
<path d="M400.933 210.533L385.067 204.5V200.167L400.933 194.133V198.3L386.633 203.5V201.167L400.933 206.367V210.533ZM401.854 217.333L412.854 185.933H417.488L406.488 217.333H401.854ZM418.074 210.533V206.367L432.374 201.167V203.5L418.074 198.3V194.133L433.941 200.167V204.5L418.074 210.533Z" fill="white"/>
<path d="M541.075 382V364.5H548.65C550.217 364.5 551.567 364.758 552.7 365.275C553.833 365.775 554.708 366.5 555.325 367.45C555.942 368.4 556.25 369.533 556.25 370.85C556.25 372.15 555.942 373.275 555.325 374.225C554.708 375.158 553.833 375.875 552.7 376.375C551.567 376.875 550.217 377.125 548.65 377.125H543.325L545.125 375.35V382H541.075ZM552.2 382L547.825 375.65H552.15L556.575 382H552.2ZM545.125 375.8L543.325 373.9H548.425C549.675 373.9 550.608 373.633 551.225 373.1C551.842 372.55 552.15 371.8 552.15 370.85C552.15 369.883 551.842 369.133 551.225 368.6C550.608 368.067 549.675 367.8 548.425 367.8H543.325L545.125 365.875V375.8ZM565.859 382.2C564.325 382.2 562.975 381.9 561.809 381.3C560.659 380.7 559.767 379.883 559.134 378.85C558.5 377.8 558.184 376.608 558.184 375.275C558.184 373.925 558.492 372.733 559.109 371.7C559.742 370.65 560.6 369.833 561.684 369.25C562.767 368.65 563.992 368.35 565.359 368.35C566.675 368.35 567.859 368.633 568.909 369.2C569.975 369.75 570.817 370.55 571.434 371.6C572.05 372.633 572.359 373.875 572.359 375.325C572.359 375.475 572.35 375.65 572.334 375.85C572.317 376.033 572.3 376.208 572.284 376.375H561.359V374.1H570.234L568.734 374.775C568.734 374.075 568.592 373.467 568.309 372.95C568.025 372.433 567.634 372.033 567.134 371.75C566.634 371.45 566.05 371.3 565.384 371.3C564.717 371.3 564.125 371.45 563.609 371.75C563.109 372.033 562.717 372.442 562.434 372.975C562.15 373.492 562.009 374.108 562.009 374.825V375.425C562.009 376.158 562.167 376.808 562.484 377.375C562.817 377.925 563.275 378.35 563.859 378.65C564.459 378.933 565.159 379.075 565.959 379.075C566.675 379.075 567.3 378.967 567.834 378.75C568.384 378.533 568.884 378.208 569.334 377.775L571.409 380.025C570.792 380.725 570.017 381.267 569.084 381.65C568.15 382.017 567.075 382.2 565.859 382.2ZM582.839 382V379.375L582.589 378.8V374.1C582.589 373.267 582.331 372.617 581.814 372.15C581.314 371.683 580.539 371.45 579.489 371.45C578.772 371.45 578.064 371.567 577.364 371.8C576.681 372.017 576.097 372.317 575.614 372.7L574.214 369.975C574.947 369.458 575.831 369.058 576.864 368.775C577.897 368.492 578.947 368.35 580.014 368.35C582.064 368.35 583.656 368.833 584.789 369.8C585.922 370.767 586.489 372.275 586.489 374.325V382H582.839ZM578.739 382.2C577.689 382.2 576.789 382.025 576.039 381.675C575.289 381.308 574.714 380.817 574.314 380.2C573.914 379.583 573.714 378.892 573.714 378.125C573.714 377.325 573.906 376.625 574.289 376.025C574.689 375.425 575.314 374.958 576.164 374.625C577.014 374.275 578.122 374.1 579.489 374.1H583.064V376.375H579.914C578.997 376.375 578.364 376.525 578.014 376.825C577.681 377.125 577.514 377.5 577.514 377.95C577.514 378.45 577.706 378.85 578.089 379.15C578.489 379.433 579.031 379.575 579.714 379.575C580.364 379.575 580.947 379.425 581.464 379.125C581.981 378.808 582.356 378.35 582.589 377.75L583.189 379.55C582.906 380.417 582.389 381.075 581.639 381.525C580.889 381.975 579.922 382.2 578.739 382.2ZM596.616 382.2C595.166 382.2 593.875 381.908 592.741 381.325C591.608 380.725 590.716 379.9 590.066 378.85C589.433 377.8 589.116 376.608 589.116 375.275C589.116 373.925 589.433 372.733 590.066 371.7C590.716 370.65 591.608 369.833 592.741 369.25C593.875 368.65 595.166 368.35 596.616 368.35C598.033 368.35 599.266 368.65 600.316 369.25C601.366 369.833 602.141 370.675 602.641 371.775L599.616 373.4C599.266 372.767 598.825 372.3 598.291 372C597.775 371.7 597.208 371.55 596.591 371.55C595.925 371.55 595.325 371.7 594.791 372C594.258 372.3 593.833 372.725 593.516 373.275C593.216 373.825 593.066 374.492 593.066 375.275C593.066 376.058 593.216 376.725 593.516 377.275C593.833 377.825 594.258 378.25 594.791 378.55C595.325 378.85 595.925 379 596.591 379C597.208 379 597.775 378.858 598.291 378.575C598.825 378.275 599.266 377.8 599.616 377.15L602.641 378.8C602.141 379.883 601.366 380.725 600.316 381.325C599.266 381.908 598.033 382.2 596.616 382.2ZM610.582 382.2C608.999 382.2 607.766 381.8 606.882 381C605.999 380.183 605.557 378.975 605.557 377.375V365.575H609.457V377.325C609.457 377.892 609.607 378.333 609.907 378.65C610.207 378.95 610.616 379.1 611.132 379.1C611.749 379.1 612.274 378.933 612.707 378.6L613.757 381.35C613.357 381.633 612.874 381.85 612.307 382C611.757 382.133 611.182 382.2 610.582 382.2ZM603.482 371.85V368.85H612.807V371.85H603.482Z" fill="white"/>
<path d="M127.909 354V337.9H130.991L140.49 349.492H138.995V337.9H142.675V354H139.616L130.094 342.408H131.589V354H127.909ZM152.119 354.184C150.801 354.184 149.628 353.908 148.6 353.356C147.588 352.804 146.783 352.053 146.185 351.102C145.603 350.136 145.311 349.04 145.311 347.813C145.311 346.571 145.603 345.475 146.185 344.524C146.783 343.558 147.588 342.807 148.6 342.27C149.628 341.718 150.801 341.442 152.119 341.442C153.423 341.442 154.588 341.718 155.615 342.27C156.643 342.807 157.448 343.55 158.03 344.501C158.613 345.452 158.904 346.556 158.904 347.813C158.904 349.04 158.613 350.136 158.03 351.102C157.448 352.053 156.643 352.804 155.615 353.356C154.588 353.908 153.423 354.184 152.119 354.184ZM152.119 351.24C152.717 351.24 153.254 351.102 153.729 350.826C154.205 350.55 154.58 350.159 154.856 349.653C155.132 349.132 155.27 348.518 155.27 347.813C155.27 347.092 155.132 346.479 154.856 345.973C154.58 345.467 154.205 345.076 153.729 344.8C153.254 344.524 152.717 344.386 152.119 344.386C151.521 344.386 150.985 344.524 150.509 344.8C150.034 345.076 149.651 345.467 149.359 345.973C149.083 346.479 148.945 347.092 148.945 347.813C148.945 348.518 149.083 349.132 149.359 349.653C149.651 350.159 150.034 350.55 150.509 350.826C150.985 351.102 151.521 351.24 152.119 351.24ZM166.615 354.184C165.45 354.184 164.4 353.923 163.464 353.402C162.529 352.865 161.785 352.122 161.233 351.171C160.697 350.22 160.428 349.101 160.428 347.813C160.428 346.51 160.697 345.383 161.233 344.432C161.785 343.481 162.529 342.745 163.464 342.224C164.4 341.703 165.45 341.442 166.615 341.442C167.658 341.442 168.57 341.672 169.352 342.132C170.134 342.592 170.74 343.29 171.169 344.225C171.599 345.16 171.813 346.356 171.813 347.813C171.813 349.254 171.606 350.45 171.192 351.401C170.778 352.336 170.18 353.034 169.398 353.494C168.632 353.954 167.704 354.184 166.615 354.184ZM167.236 351.24C167.819 351.24 168.348 351.102 168.823 350.826C169.299 350.55 169.674 350.159 169.95 349.653C170.242 349.132 170.387 348.518 170.387 347.813C170.387 347.092 170.242 346.479 169.95 345.973C169.674 345.467 169.299 345.076 168.823 344.8C168.348 344.524 167.819 344.386 167.236 344.386C166.638 344.386 166.102 344.524 165.626 344.8C165.151 345.076 164.768 345.467 164.476 345.973C164.2 346.479 164.062 347.092 164.062 347.813C164.062 348.518 164.2 349.132 164.476 349.653C164.768 350.159 165.151 350.55 165.626 350.826C166.102 351.102 166.638 351.24 167.236 351.24ZM170.479 354V351.47L170.548 347.79L170.318 344.133V336.934H173.906V354H170.479ZM183.368 354.184C181.958 354.184 180.716 353.908 179.642 353.356C178.584 352.804 177.764 352.053 177.181 351.102C176.599 350.136 176.307 349.04 176.307 347.813C176.307 346.571 176.591 345.475 177.158 344.524C177.741 343.558 178.531 342.807 179.527 342.27C180.524 341.718 181.651 341.442 182.908 341.442C184.12 341.442 185.208 341.703 186.174 342.224C187.156 342.73 187.93 343.466 188.497 344.432C189.065 345.383 189.348 346.525 189.348 347.859C189.348 347.997 189.341 348.158 189.325 348.342C189.31 348.511 189.295 348.672 189.279 348.825H179.228V346.732H187.393L186.013 347.353C186.013 346.709 185.883 346.149 185.622 345.674C185.362 345.199 185.001 344.831 184.541 344.57C184.081 344.294 183.545 344.156 182.931 344.156C182.318 344.156 181.774 344.294 181.298 344.57C180.838 344.831 180.478 345.206 180.217 345.697C179.957 346.172 179.826 346.74 179.826 347.399V347.951C179.826 348.626 179.972 349.224 180.263 349.745C180.57 350.251 180.992 350.642 181.528 350.918C182.08 351.179 182.724 351.309 183.46 351.309C184.12 351.309 184.695 351.209 185.185 351.01C185.691 350.811 186.151 350.512 186.565 350.113L188.474 352.183C187.907 352.827 187.194 353.325 186.335 353.678C185.477 354.015 184.488 354.184 183.368 354.184ZM193.094 354.184C192.481 354.184 191.952 353.977 191.507 353.563C191.078 353.134 190.863 352.589 190.863 351.93C190.863 351.271 191.078 350.742 191.507 350.343C191.952 349.929 192.481 349.722 193.094 349.722C193.723 349.722 194.252 349.929 194.681 350.343C195.11 350.742 195.325 351.271 195.325 351.93C195.325 352.589 195.11 353.134 194.681 353.563C194.252 353.977 193.723 354.184 193.094 354.184ZM197.061 358.646C196.509 358.646 195.98 358.585 195.474 358.462C194.968 358.355 194.539 358.186 194.186 357.956L195.152 355.357C195.566 355.648 196.072 355.794 196.67 355.794C197.115 355.794 197.468 355.641 197.728 355.334C198.004 355.043 198.142 354.598 198.142 354V341.626H201.73V353.977C201.73 355.403 201.324 356.538 200.511 357.381C199.699 358.224 198.549 358.646 197.061 358.646ZM199.936 339.901C199.277 339.901 198.74 339.709 198.326 339.326C197.912 338.943 197.705 338.467 197.705 337.9C197.705 337.333 197.912 336.857 198.326 336.474C198.74 336.091 199.277 335.899 199.936 335.899C200.596 335.899 201.132 336.083 201.546 336.451C201.96 336.804 202.167 337.264 202.167 337.831C202.167 338.429 201.96 338.927 201.546 339.326C201.148 339.709 200.611 339.901 199.936 339.901ZM209.197 354.184C208.139 354.184 207.119 354.061 206.138 353.816C205.172 353.555 204.405 353.233 203.838 352.85L205.034 350.274C205.601 350.627 206.268 350.918 207.035 351.148C207.817 351.363 208.584 351.47 209.335 351.47C210.163 351.47 210.746 351.37 211.083 351.171C211.436 350.972 211.612 350.696 211.612 350.343C211.612 350.052 211.474 349.837 211.198 349.699C210.937 349.546 210.585 349.431 210.14 349.354C209.695 349.277 209.205 349.201 208.668 349.124C208.147 349.047 207.618 348.948 207.081 348.825C206.544 348.687 206.054 348.488 205.609 348.227C205.164 347.966 204.804 347.614 204.528 347.169C204.267 346.724 204.137 346.149 204.137 345.444C204.137 344.662 204.359 343.972 204.804 343.374C205.264 342.776 205.923 342.308 206.782 341.971C207.641 341.618 208.668 341.442 209.864 341.442C210.707 341.442 211.566 341.534 212.44 341.718C213.314 341.902 214.042 342.17 214.625 342.523L213.429 345.076C212.831 344.723 212.225 344.486 211.612 344.363C211.014 344.225 210.431 344.156 209.864 344.156C209.067 344.156 208.484 344.263 208.116 344.478C207.748 344.693 207.564 344.969 207.564 345.306C207.564 345.613 207.694 345.843 207.955 345.996C208.231 346.149 208.591 346.272 209.036 346.364C209.481 346.456 209.964 346.54 210.485 346.617C211.022 346.678 211.558 346.778 212.095 346.916C212.632 347.054 213.115 347.253 213.544 347.514C213.989 347.759 214.349 348.104 214.625 348.549C214.901 348.978 215.039 349.546 215.039 350.251C215.039 351.018 214.809 351.7 214.349 352.298C213.889 352.881 213.222 353.341 212.348 353.678C211.489 354.015 210.439 354.184 209.197 354.184Z" fill="white"/>
<path d="M411.614 527.276C410.372 527.276 409.214 527.077 408.141 526.678C407.083 526.264 406.163 525.681 405.381 524.93C404.599 524.179 403.986 523.297 403.541 522.285C403.112 521.273 402.897 520.161 402.897 518.95C402.897 517.739 403.112 516.627 403.541 515.615C403.986 514.603 404.599 513.721 405.381 512.97C406.178 512.219 407.106 511.644 408.164 511.245C409.222 510.831 410.38 510.624 411.637 510.624C413.032 510.624 414.29 510.869 415.409 511.36C416.544 511.835 417.494 512.541 418.261 513.476L415.869 515.684C415.317 515.055 414.704 514.588 414.029 514.281C413.354 513.959 412.618 513.798 411.821 513.798C411.07 513.798 410.38 513.921 409.751 514.166C409.122 514.411 408.578 514.764 408.118 515.224C407.658 515.684 407.298 516.228 407.037 516.857C406.792 517.486 406.669 518.183 406.669 518.95C406.669 519.717 406.792 520.414 407.037 521.043C407.298 521.672 407.658 522.216 408.118 522.676C408.578 523.136 409.122 523.489 409.751 523.734C410.38 523.979 411.07 524.102 411.821 524.102C412.618 524.102 413.354 523.949 414.029 523.642C414.704 523.32 415.317 522.837 415.869 522.193L418.261 524.401C417.494 525.336 416.544 526.049 415.409 526.54C414.29 527.031 413.025 527.276 411.614 527.276ZM425.977 527.276C424.689 527.276 423.455 527.107 422.274 526.77C421.094 526.417 420.143 525.965 419.422 525.413L420.687 522.607C421.377 523.098 422.19 523.504 423.125 523.826C424.076 524.133 425.034 524.286 426 524.286C426.736 524.286 427.327 524.217 427.771 524.079C428.231 523.926 428.569 523.719 428.783 523.458C428.998 523.197 429.105 522.898 429.105 522.561C429.105 522.132 428.937 521.794 428.599 521.549C428.262 521.288 427.817 521.081 427.265 520.928C426.713 520.759 426.1 520.606 425.425 520.468C424.766 520.315 424.099 520.131 423.424 519.916C422.765 519.701 422.159 519.425 421.607 519.088C421.055 518.751 420.603 518.306 420.25 517.754C419.913 517.202 419.744 516.497 419.744 515.638C419.744 514.718 419.99 513.882 420.48 513.131C420.986 512.364 421.738 511.759 422.734 511.314C423.746 510.854 425.011 510.624 426.529 510.624C427.541 510.624 428.538 510.747 429.519 510.992C430.501 511.222 431.367 511.575 432.118 512.05L430.968 514.879C430.217 514.45 429.466 514.135 428.714 513.936C427.963 513.721 427.227 513.614 426.506 513.614C425.786 513.614 425.195 513.698 424.735 513.867C424.275 514.036 423.946 514.258 423.746 514.534C423.547 514.795 423.447 515.101 423.447 515.454C423.447 515.868 423.616 516.205 423.953 516.466C424.291 516.711 424.735 516.911 425.287 517.064C425.839 517.217 426.445 517.371 427.104 517.524C427.779 517.677 428.446 517.854 429.105 518.053C429.78 518.252 430.393 518.521 430.945 518.858C431.497 519.195 431.942 519.64 432.279 520.192C432.632 520.744 432.808 521.442 432.808 522.285C432.808 523.19 432.555 524.018 432.049 524.769C431.543 525.52 430.784 526.126 429.772 526.586C428.776 527.046 427.511 527.276 425.977 527.276ZM440.644 527.276C439.356 527.276 438.122 527.107 436.941 526.77C435.761 526.417 434.81 525.965 434.089 525.413L435.354 522.607C436.044 523.098 436.857 523.504 437.792 523.826C438.743 524.133 439.701 524.286 440.667 524.286C441.403 524.286 441.994 524.217 442.438 524.079C442.898 523.926 443.236 523.719 443.45 523.458C443.665 523.197 443.772 522.898 443.772 522.561C443.772 522.132 443.604 521.794 443.266 521.549C442.929 521.288 442.484 521.081 441.932 520.928C441.38 520.759 440.767 520.606 440.092 520.468C439.433 520.315 438.766 520.131 438.091 519.916C437.432 519.701 436.826 519.425 436.274 519.088C435.722 518.751 435.27 518.306 434.917 517.754C434.58 517.202 434.411 516.497 434.411 515.638C434.411 514.718 434.657 513.882 435.147 513.131C435.653 512.364 436.405 511.759 437.401 511.314C438.413 510.854 439.678 510.624 441.196 510.624C442.208 510.624 443.205 510.747 444.186 510.992C445.168 511.222 446.034 511.575 446.785 512.05L445.635 514.879C444.884 514.45 444.133 514.135 443.381 513.936C442.63 513.721 441.894 513.614 441.173 513.614C440.453 513.614 439.862 513.698 439.402 513.867C438.942 514.036 438.613 514.258 438.413 514.534C438.214 514.795 438.114 515.101 438.114 515.454C438.114 515.868 438.283 516.205 438.62 516.466C438.958 516.711 439.402 516.911 439.954 517.064C440.506 517.217 441.112 517.371 441.771 517.524C442.446 517.677 443.113 517.854 443.772 518.053C444.447 518.252 445.06 518.521 445.612 518.858C446.164 519.195 446.609 519.64 446.946 520.192C447.299 520.744 447.475 521.442 447.475 522.285C447.475 523.19 447.222 524.018 446.716 524.769C446.21 525.52 445.451 526.126 444.439 526.586C443.443 527.046 442.178 527.276 440.644 527.276Z" fill="white"/>
<path d="M92.909 557V540.9H95.991L102.845 552.262H101.212L107.951 540.9H111.01L111.056 557H107.56L107.537 546.259H108.181L102.799 555.298H101.12L95.623 546.259H96.405V557H92.909ZM116.187 561.646C115.543 561.646 114.906 561.546 114.278 561.347C113.649 561.148 113.135 560.872 112.737 560.519L114.048 557.966C114.324 558.211 114.638 558.403 114.991 558.541C115.359 558.679 115.719 558.748 116.072 558.748C116.578 558.748 116.976 558.625 117.268 558.38C117.574 558.15 117.85 557.759 118.096 557.207L118.74 555.689L119.016 555.298L123.455 544.626H126.905L121.316 557.759C120.917 558.756 120.457 559.538 119.936 560.105C119.43 560.672 118.862 561.071 118.234 561.301C117.62 561.531 116.938 561.646 116.187 561.646ZM118.303 557.483L112.783 544.626H116.486L120.764 554.976L118.303 557.483ZM133.845 557.276C132.557 557.276 131.322 557.107 130.142 556.77C128.961 556.417 128.01 555.965 127.29 555.413L128.555 552.607C129.245 553.098 130.057 553.504 130.993 553.826C131.943 554.133 132.902 554.286 133.868 554.286C134.604 554.286 135.194 554.217 135.639 554.079C136.099 553.926 136.436 553.719 136.651 553.458C136.865 553.197 136.973 552.898 136.973 552.561C136.973 552.132 136.804 551.794 136.467 551.549C136.129 551.288 135.685 551.081 135.133 550.928C134.581 550.759 133.967 550.606 133.293 550.468C132.633 550.315 131.966 550.131 131.292 549.916C130.632 549.701 130.027 549.425 129.475 549.088C128.923 548.751 128.47 548.306 128.118 547.754C127.78 547.202 127.612 546.497 127.612 545.638C127.612 544.718 127.857 543.882 128.348 543.131C128.854 542.364 129.605 541.759 130.602 541.314C131.614 540.854 132.879 540.624 134.397 540.624C135.409 540.624 136.405 540.747 137.387 540.992C138.368 541.222 139.234 541.575 139.986 542.05L138.836 544.879C138.084 544.45 137.333 544.135 136.582 543.936C135.83 543.721 135.094 543.614 134.374 543.614C133.653 543.614 133.063 543.698 132.603 543.867C132.143 544.036 131.813 544.258 131.614 544.534C131.414 544.795 131.315 545.101 131.315 545.454C131.315 545.868 131.483 546.205 131.821 546.466C132.158 546.711 132.603 546.911 133.155 547.064C133.707 547.217 134.312 547.371 134.972 547.524C135.646 547.677 136.313 547.854 136.973 548.053C137.647 548.252 138.261 548.521 138.813 548.858C139.365 549.195 139.809 549.64 140.147 550.192C140.499 550.744 140.676 551.442 140.676 552.285C140.676 553.19 140.423 554.018 139.917 554.769C139.411 555.52 138.652 556.126 137.64 556.586C136.643 557.046 135.378 557.276 133.845 557.276ZM151.019 557.276C149.761 557.276 148.588 557.069 147.5 556.655C146.426 556.241 145.491 555.658 144.693 554.907C143.912 554.156 143.298 553.274 142.854 552.262C142.424 551.25 142.21 550.146 142.21 548.95C142.21 547.754 142.424 546.65 142.854 545.638C143.298 544.626 143.919 543.744 144.717 542.993C145.514 542.242 146.449 541.659 147.523 541.245C148.596 540.831 149.761 540.624 151.019 540.624C152.291 540.624 153.456 540.831 154.515 541.245C155.588 541.659 156.516 542.242 157.298 542.993C158.095 543.729 158.716 544.603 159.161 545.615C159.605 546.627 159.828 547.739 159.828 548.95C159.828 550.146 159.605 551.258 159.161 552.285C158.716 553.297 158.095 554.179 157.298 554.93C156.516 555.666 155.588 556.241 154.515 556.655C153.456 557.069 152.291 557.276 151.019 557.276ZM156.286 560.703C155.657 560.703 155.059 560.634 154.492 560.496C153.94 560.358 153.388 560.136 152.836 559.829C152.299 559.522 151.732 559.108 151.134 558.587C150.551 558.066 149.915 557.422 149.225 556.655L153.134 555.666C153.549 556.233 153.932 556.686 154.285 557.023C154.637 557.36 154.975 557.598 155.297 557.736C155.634 557.874 155.987 557.943 156.355 557.943C157.336 557.943 158.21 557.544 158.977 556.747L160.633 558.725C159.544 560.044 158.095 560.703 156.286 560.703ZM151.019 554.102C151.739 554.102 152.399 553.979 152.997 553.734C153.61 553.489 154.147 553.136 154.607 552.676C155.067 552.216 155.419 551.672 155.665 551.043C155.925 550.399 156.056 549.701 156.056 548.95C156.056 548.183 155.925 547.486 155.665 546.857C155.419 546.228 155.067 545.684 154.607 545.224C154.147 544.764 153.61 544.411 152.997 544.166C152.399 543.921 151.739 543.798 151.019 543.798C150.298 543.798 149.631 543.921 149.018 544.166C148.404 544.411 147.868 544.764 147.408 545.224C146.963 545.684 146.61 546.228 146.35 546.857C146.104 547.486 145.982 548.183 145.982 548.95C145.982 549.701 146.104 550.399 146.35 551.043C146.61 551.672 146.963 552.216 147.408 552.676C147.868 553.136 148.404 553.489 149.018 553.734C149.631 553.979 150.298 554.102 151.019 554.102ZM162.628 557V540.9H166.354V553.964H174.427V557H162.628Z" fill="white"/>
</g>
<defs>
<clipPath id="clip0_58_160">
<rect width="663.653" height="663.653" fill="white"/>
</clipPath>
</defs>
</svg>
